<?xml version="1.0" encoding="utf-8"?>
<!-- Generator: Adobe Illustrator 26.5.0, SVG Export Plug-In . SVG Version: 6.00 Build 0)  -->
<svg version="1.1" id="_x36_x8" xmlns="http://www.w3.org/2000/svg" xmlns:xlink="http://www.w3.org/1999/xlink" x="0px" y="0px"
	 viewBox="0 0 432 576" style="enable-background:new 0 0 432 576;" xml:space="preserve">
<style type="text/css">
	.st0{fill:none;stroke:#000000;stroke-miterlimit:10;}
	.st1{font-family:'ArialRoundedMTBold';}
	.st2{font-size:10px;}
	.st3{font-size:8.6968px;}
</style>
<g id="border">
	<path id="outer" class="st0" d="M420,576H12c-6.6,0-12-5.4-12-12V12C0,5.4,5.4,0,12,0h408c6.6,0,12,5.4,12,12v552
		C432,570.6,426.6,576,420,576z"/>
	<path id="inner" class="st0" d="M378.5,534.6H53.5c-6.7,0-12.1-5.4-12.1-12.1v-469c0-6.6,5.5-12.1,12.1-12.1h325
		c6.7,0,12.1,5.4,12.1,12.1v469C390.6,529.2,385.1,534.6,378.5,534.6z"/>
</g>
<g id="labels">
</g>
<g id="peg_holes">
	<g>
		<g>
			<circle class="st0" cx="10.6" cy="206.3" r="3.4"/>
			<circle class="st0" cx="29.1" cy="206.3" r="3.4"/>
		</g>
		<g>
			<circle class="st0" cx="10.6" cy="191.1" r="3.4"/>
			<circle class="st0" cx="29.1" cy="191.1" r="3.4"/>
		</g>
		<g>
			<circle class="st0" cx="10.6" cy="175.8" r="3.4"/>
			<circle class="st0" cx="29.1" cy="175.8" r="3.4"/>
		</g>
		<g>
			<circle class="st0" cx="10.6" cy="160.5" r="3.4"/>
			<circle class="st0" cx="29.1" cy="160.5" r="3.4"/>
		</g>
		<g>
			<circle class="st0" cx="10.6" cy="146.2" r="3.4"/>
			<circle class="st0" cx="29.1" cy="146.2" r="3.4"/>
		</g>
	</g>
	<g>
		<circle class="st0" cx="10.6" cy="504.2" r="3.4"/>
		<circle class="st0" cx="29.1" cy="504.2" r="3.4"/>
	</g>
	<g>
		<circle class="st0" cx="10.6" cy="489" r="3.4"/>
		<circle class="st0" cx="29.1" cy="489" r="3.4"/>
	</g>
	<g>
		<circle class="st0" cx="10.6" cy="473.7" r="3.4"/>
		<circle class="st0" cx="29.1" cy="473.7" r="3.4"/>
	</g>
	<g>
		<circle class="st0" cx="10.6" cy="458.4" r="3.4"/>
		<circle class="st0" cx="29.1" cy="458.4" r="3.4"/>
	</g>
	<g>
		<circle class="st0" cx="10.6" cy="444.1" r="3.4"/>
		<circle class="st0" cx="29.1" cy="444.1" r="3.4"/>
	</g>
	<g>
		<circle class="st0" cx="10.6" cy="280.8" r="3.4"/>
		<circle class="st0" cx="29.1" cy="280.8" r="3.4"/>
	</g>
	<g>
		<circle class="st0" cx="10.6" cy="265.5" r="3.4"/>
		<circle class="st0" cx="29.1" cy="265.5" r="3.4"/>
	</g>
	<g>
		<circle class="st0" cx="10.6" cy="250.3" r="3.4"/>
		<circle class="st0" cx="29.1" cy="250.3" r="3.4"/>
	</g>
	<g>
		<circle class="st0" cx="10.6" cy="235" r="3.4"/>
		<circle class="st0" cx="29.1" cy="235" r="3.4"/>
	</g>
	<g>
		<circle class="st0" cx="10.6" cy="220.7" r="3.4"/>
		<circle class="st0" cx="29.1" cy="220.7" r="3.4"/>
	</g>
	<g>
		<circle class="st0" cx="10.6" cy="355.3" r="3.4"/>
		<circle class="st0" cx="29.1" cy="355.3" r="3.4"/>
	</g>
	<g>
		<circle class="st0" cx="10.6" cy="340" r="3.4"/>
		<circle class="st0" cx="29.1" cy="340" r="3.4"/>
	</g>
	<g>
		<circle class="st0" cx="10.6" cy="324.7" r="3.4"/>
		<circle class="st0" cx="29.1" cy="324.7" r="3.4"/>
	</g>
	<g>
		<circle class="st0" cx="10.6" cy="309.5" r="3.4"/>
		<circle class="st0" cx="29.1" cy="309.5" r="3.4"/>
	</g>
	<g>
		<circle class="st0" cx="10.6" cy="295.2" r="3.4"/>
		<circle class="st0" cx="29.1" cy="295.2" r="3.4"/>
	</g>
	<g>
		<circle class="st0" cx="10.6" cy="429.8" r="3.4"/>
		<circle class="st0" cx="29.1" cy="429.8" r="3.4"/>
	</g>
	<g>
		<circle class="st0" cx="10.6" cy="414.5" r="3.4"/>
		<circle class="st0" cx="29.1" cy="414.5" r="3.4"/>
	</g>
	<g>
		<circle class="st0" cx="10.6" cy="399.2" r="3.4"/>
		<circle class="st0" cx="29.1" cy="399.2" r="3.4"/>
	</g>
	<g>
		<circle class="st0" cx="10.6" cy="383.9" r="3.4"/>
		<circle class="st0" cx="29.1" cy="383.9" r="3.4"/>
	</g>
	<g>
		<circle class="st0" cx="10.6" cy="369.7" r="3.4"/>
		<circle class="st0" cx="29.1" cy="369.7" r="3.4"/>
	</g>
	<g>
		<circle class="st0" cx="10.6" cy="131.9" r="3.4"/>
		<circle class="st0" cx="29.1" cy="131.9" r="3.4"/>
	</g>
	<g>
		<circle class="st0" cx="10.6" cy="116.6" r="3.4"/>
		<circle class="st0" cx="29.1" cy="116.6" r="3.4"/>
	</g>
	<g>
		<circle class="st0" cx="10.6" cy="101.3" r="3.4"/>
		<circle class="st0" cx="29.1" cy="101.3" r="3.4"/>
	</g>
	<g>
		<circle class="st0" cx="10.6" cy="86.1" r="3.4"/>
		<circle class="st0" cx="29.1" cy="86.1" r="3.4"/>
	</g>
	<circle class="st0" cx="10.6" cy="71.8" r="3.4"/>
	<circle class="st0" cx="29.1" cy="71.8" r="3.4"/>
	<g id="east__x28_30_x29_">
		<g>
			<g>
				<circle class="st0" cx="402.9" cy="504.2" r="3.4"/>
				<circle class="st0" cx="421.4" cy="504.2" r="3.4"/>
			</g>
			<g>
				<circle class="st0" cx="402.9" cy="489" r="3.4"/>
				<circle class="st0" cx="421.4" cy="489" r="3.4"/>
			</g>
			<g>
				<circle class="st0" cx="402.9" cy="473.7" r="3.4"/>
				<circle class="st0" cx="421.4" cy="473.7" r="3.4"/>
			</g>
			<g>
				<circle class="st0" cx="402.9" cy="458.4" r="3.4"/>
				<circle class="st0" cx="421.4" cy="458.4" r="3.4"/>
			</g>
			<g>
				<circle class="st0" cx="402.9" cy="444.1" r="3.4"/>
				<circle class="st0" cx="421.4" cy="444.1" r="3.4"/>
			</g>
		</g>
		<g>
			<g>
				<circle class="st0" cx="402.9" cy="206.3" r="3.4"/>
				<circle class="st0" cx="421.4" cy="206.3" r="3.4"/>
			</g>
			<g>
				<circle class="st0" cx="402.9" cy="191.1" r="3.4"/>
				<circle class="st0" cx="421.4" cy="191.1" r="3.4"/>
			</g>
			<g>
				<circle class="st0" cx="402.9" cy="175.8" r="3.4"/>
				<circle class="st0" cx="421.4" cy="175.8" r="3.4"/>
			</g>
			<g>
				<circle class="st0" cx="402.9" cy="160.5" r="3.4"/>
				<circle class="st0" cx="421.4" cy="160.5" r="3.4"/>
			</g>
			<g>
				<circle class="st0" cx="402.9" cy="146.2" r="3.4"/>
				<circle class="st0" cx="421.4" cy="146.2" r="3.4"/>
			</g>
		</g>
		<g>
			<g>
				<circle class="st0" cx="402.9" cy="280.8" r="3.4"/>
				<circle class="st0" cx="421.4" cy="280.8" r="3.4"/>
			</g>
			<g>
				<circle class="st0" cx="402.9" cy="265.5" r="3.4"/>
				<circle class="st0" cx="421.4" cy="265.5" r="3.4"/>
			</g>
			<g>
				<circle class="st0" cx="402.9" cy="250.3" r="3.4"/>
				<circle class="st0" cx="421.4" cy="250.3" r="3.4"/>
			</g>
			<g>
				<circle class="st0" cx="402.9" cy="235" r="3.4"/>
				<circle class="st0" cx="421.4" cy="235" r="3.4"/>
			</g>
			<g>
				<circle class="st0" cx="402.9" cy="220.7" r="3.4"/>
				<circle class="st0" cx="421.4" cy="220.7" r="3.4"/>
			</g>
		</g>
		<g>
			<g>
				<circle class="st0" cx="402.9" cy="355.3" r="3.4"/>
				<circle class="st0" cx="421.4" cy="355.3" r="3.4"/>
			</g>
			<g>
				<circle class="st0" cx="402.9" cy="340" r="3.4"/>
				<circle class="st0" cx="421.4" cy="340" r="3.4"/>
			</g>
			<g>
				<circle class="st0" cx="402.9" cy="324.7" r="3.4"/>
				<circle class="st0" cx="421.4" cy="324.7" r="3.4"/>
			</g>
			<g>
				<circle class="st0" cx="402.9" cy="309.5" r="3.4"/>
				<circle class="st0" cx="421.4" cy="309.5" r="3.4"/>
			</g>
			<g>
				<circle class="st0" cx="402.9" cy="295.2" r="3.4"/>
				<circle class="st0" cx="421.4" cy="295.2" r="3.4"/>
			</g>
		</g>
		<g>
			<g>
				<circle class="st0" cx="402.9" cy="429.8" r="3.4"/>
				<circle class="st0" cx="421.4" cy="429.8" r="3.4"/>
			</g>
			<g>
				<circle class="st0" cx="402.9" cy="414.5" r="3.4"/>
				<circle class="st0" cx="421.4" cy="414.5" r="3.4"/>
			</g>
			<g>
				<circle class="st0" cx="402.9" cy="399.2" r="3.4"/>
				<circle class="st0" cx="421.4" cy="399.2" r="3.4"/>
			</g>
			<g>
				<circle class="st0" cx="402.9" cy="383.9" r="3.4"/>
				<circle class="st0" cx="421.4" cy="383.9" r="3.4"/>
			</g>
			<g>
				<circle class="st0" cx="402.9" cy="369.7" r="3.4"/>
				<circle class="st0" cx="421.4" cy="369.7" r="3.4"/>
			</g>
		</g>
		<g>
			<g>
				<circle class="st0" cx="402.9" cy="131.9" r="3.4"/>
				<circle class="st0" cx="421.4" cy="131.9" r="3.4"/>
			</g>
			<g>
				<circle class="st0" cx="402.9" cy="116.6" r="3.4"/>
				<circle class="st0" cx="421.4" cy="116.6" r="3.4"/>
			</g>
			<g>
				<circle class="st0" cx="402.9" cy="101.3" r="3.4"/>
				<circle class="st0" cx="421.4" cy="101.3" r="3.4"/>
			</g>
			<g>
				<circle class="st0" cx="402.9" cy="86.1" r="3.4"/>
				<circle class="st0" cx="421.4" cy="86.1" r="3.4"/>
			</g>
			<g>
				<circle class="st0" cx="402.9" cy="71.8" r="3.4"/>
				<circle class="st0" cx="421.4" cy="71.8" r="3.4"/>
			</g>
		</g>
	</g>
	<g id="north__x28_20_x29_">
		<g>
			<g>
				<circle class="st0" cx="360.2" cy="29.1" r="3.4"/>
				<circle class="st0" cx="360.2" cy="10.6" r="3.4"/>
			</g>
			<g>
				<circle class="st0" cx="345" cy="29.1" r="3.4"/>
				<circle class="st0" cx="345" cy="10.6" r="3.4"/>
			</g>
			<g>
				<circle class="st0" cx="329.7" cy="29.1" r="3.4"/>
				<circle class="st0" cx="329.7" cy="10.6" r="3.4"/>
			</g>
			<g>
				<circle class="st0" cx="314.4" cy="29.1" r="3.4"/>
				<circle class="st0" cx="314.4" cy="10.6" r="3.4"/>
			</g>
			<g>
				<circle class="st0" cx="300.1" cy="29.1" r="3.4"/>
				<circle class="st0" cx="300.1" cy="10.6" r="3.4"/>
			</g>
		</g>
		<circle class="st0" cx="131.9" cy="29.1" r="3.4"/>
		<circle class="st0" cx="131.9" cy="10.6" r="3.4"/>
		<circle class="st0" cx="116.6" cy="29.1" r="3.4"/>
		<circle class="st0" cx="116.6" cy="10.6" r="3.4"/>
		<circle class="st0" cx="101.3" cy="29.1" r="3.4"/>
		<circle class="st0" cx="101.3" cy="10.6" r="3.4"/>
		<circle class="st0" cx="86.1" cy="29.1" r="3.4"/>
		<circle class="st0" cx="86.1" cy="10.6" r="3.4"/>
		<circle class="st0" cx="71.8" cy="29.1" r="3.4"/>
		<circle class="st0" cx="71.8" cy="10.6" r="3.4"/>
		<g>
			<g>
				<circle class="st0" cx="208" cy="29.1" r="3.4"/>
				<circle class="st0" cx="208" cy="10.6" r="3.4"/>
			</g>
			<g>
				<circle class="st0" cx="192.7" cy="29.1" r="3.4"/>
				<circle class="st0" cx="192.7" cy="10.6" r="3.4"/>
			</g>
			<g>
				<circle class="st0" cx="177.4" cy="29.1" r="3.4"/>
				<circle class="st0" cx="177.4" cy="10.6" r="3.4"/>
			</g>
			<g>
				<circle class="st0" cx="162.2" cy="29.1" r="3.4"/>
				<circle class="st0" cx="162.2" cy="10.6" r="3.4"/>
			</g>
			<g>
				<circle class="st0" cx="147.9" cy="29.1" r="3.4"/>
				<circle class="st0" cx="147.9" cy="10.6" r="3.4"/>
			</g>
		</g>
		<g>
			<g>
				<circle class="st0" cx="284.1" cy="29.1" r="3.4"/>
				<circle class="st0" cx="284.1" cy="10.6" r="3.4"/>
			</g>
			<g>
				<circle class="st0" cx="268.8" cy="29.1" r="3.4"/>
				<circle class="st0" cx="268.8" cy="10.6" r="3.4"/>
			</g>
			<g>
				<circle class="st0" cx="253.6" cy="29.1" r="3.4"/>
				<circle class="st0" cx="253.6" cy="10.6" r="3.4"/>
			</g>
			<g>
				<circle class="st0" cx="238.3" cy="29.1" r="3.4"/>
				<circle class="st0" cx="238.3" cy="10.6" r="3.4"/>
			</g>
			<g>
				<circle class="st0" cx="224" cy="29.1" r="3.4"/>
				<circle class="st0" cx="224" cy="10.6" r="3.4"/>
			</g>
		</g>
	</g>
	<g id="south__x28_20_x29_">
		<g>
			<g>
				<circle class="st0" cx="360.2" cy="565.4" r="3.4"/>
				<circle class="st0" cx="360.2" cy="546.9" r="3.4"/>
			</g>
			<g>
				<circle class="st0" cx="345" cy="565.4" r="3.4"/>
				<circle class="st0" cx="345" cy="546.9" r="3.4"/>
			</g>
			<g>
				<circle class="st0" cx="329.7" cy="565.4" r="3.4"/>
				<circle class="st0" cx="329.7" cy="546.9" r="3.4"/>
			</g>
			<g>
				<circle class="st0" cx="314.4" cy="565.4" r="3.4"/>
				<circle class="st0" cx="314.4" cy="546.9" r="3.4"/>
			</g>
			<g>
				<circle class="st0" cx="300.1" cy="565.4" r="3.4"/>
				<circle class="st0" cx="300.1" cy="546.9" r="3.4"/>
			</g>
		</g>
		<g>
			<g>
				<circle class="st0" cx="131.9" cy="565.4" r="3.4"/>
				<circle class="st0" cx="131.9" cy="546.9" r="3.4"/>
			</g>
			<g>
				<circle class="st0" cx="116.6" cy="565.4" r="3.4"/>
				<circle class="st0" cx="116.6" cy="546.9" r="3.4"/>
			</g>
			<g>
				<circle class="st0" cx="101.3" cy="565.4" r="3.4"/>
				<circle class="st0" cx="101.3" cy="546.9" r="3.4"/>
			</g>
			<g>
				<circle class="st0" cx="86.1" cy="565.4" r="3.4"/>
				<circle class="st0" cx="86.1" cy="546.9" r="3.4"/>
			</g>
			<g>
				<circle class="st0" cx="71.8" cy="565.4" r="3.4"/>
				<circle class="st0" cx="71.8" cy="546.9" r="3.4"/>
			</g>
		</g>
		<g>
			<g>
				<circle class="st0" cx="208" cy="565.4" r="3.4"/>
				<circle class="st0" cx="208" cy="546.9" r="3.4"/>
			</g>
			<g>
				<circle class="st0" cx="192.7" cy="565.4" r="3.4"/>
				<circle class="st0" cx="192.7" cy="546.9" r="3.4"/>
			</g>
			<g>
				<circle class="st0" cx="177.4" cy="565.4" r="3.4"/>
				<circle class="st0" cx="177.4" cy="546.9" r="3.4"/>
			</g>
			<g>
				<circle class="st0" cx="162.2" cy="565.4" r="3.4"/>
				<circle class="st0" cx="162.2" cy="546.9" r="3.4"/>
			</g>
			<g>
				<circle class="st0" cx="147.9" cy="565.4" r="3.4"/>
				<circle class="st0" cx="147.9" cy="546.9" r="3.4"/>
			</g>
		</g>
		<g>
			<g>
				<circle class="st0" cx="284.1" cy="565.4" r="3.4"/>
				<circle class="st0" cx="284.1" cy="546.9" r="3.4"/>
			</g>
			<g>
				<circle class="st0" cx="268.8" cy="565.4" r="3.4"/>
				<circle class="st0" cx="268.8" cy="546.9" r="3.4"/>
			</g>
			<g>
				<circle class="st0" cx="253.6" cy="565.4" r="3.4"/>
				<circle class="st0" cx="253.6" cy="546.9" r="3.4"/>
			</g>
			<g>
				<circle class="st0" cx="238.3" cy="565.4" r="3.4"/>
				<circle class="st0" cx="238.3" cy="546.9" r="3.4"/>
			</g>
			<g>
				<circle class="st0" cx="224" cy="565.4" r="3.4"/>
				<circle class="st0" cx="224" cy="546.9" r="3.4"/>
			</g>
		</g>
	</g>
	<g id="corners__x28_4x5_x29_">
		<g>
			<circle class="st0" cx="29.1" cy="532.7" r="3.4"/>
			<circle class="st0" cx="29.1" cy="546.9" r="3.4"/>
			<circle class="st0" cx="43.3" cy="546.9" r="3.4"/>
			<circle class="st0" cx="57.5" cy="546.9" r="3.4"/>
			<circle class="st0" cx="29.1" cy="518.5" r="3.4"/>
			<circle class="st0" cx="10.6" cy="541.9" r="3.4"/>
			<circle class="st0" cx="10.6" cy="565.4" r="3.4"/>
			<circle class="st0" cx="34.1" cy="565.4" r="3.4"/>
			<circle class="st0" cx="57.5" cy="565.4" r="3.4"/>
			<circle class="st0" cx="10.6" cy="518.5" r="3.4"/>
		</g>
		<g>
			<g>
				<g>
					<circle class="st0" cx="29.1" cy="43.3" r="3.4"/>
					<circle class="st0" cx="29.1" cy="29.1" r="3.4"/>
					<circle class="st0" cx="43.3" cy="29.1" r="3.4"/>
					<circle class="st0" cx="57.5" cy="29.1" r="3.4"/>
					<circle class="st0" cx="29.1" cy="57.5" r="3.4"/>
					<circle class="st0" cx="10.6" cy="34.1" r="3.4"/>
					<circle class="st0" cx="10.6" cy="10.6" r="3.4"/>
					<circle class="st0" cx="34.1" cy="10.6" r="3.4"/>
					<circle class="st0" cx="57.5" cy="10.6" r="3.4"/>
					<circle class="st0" cx="10.6" cy="57.5" r="3.4"/>
				</g>
				<g>
					<circle class="st0" cx="402.9" cy="43.3" r="3.4"/>
					<circle class="st0" cx="402.9" cy="29.1" r="3.4"/>
					<circle class="st0" cx="388.7" cy="29.1" r="3.4"/>
					<circle class="st0" cx="374.5" cy="29.1" r="3.4"/>
					<circle class="st0" cx="402.9" cy="57.5" r="3.4"/>
					<circle class="st0" cx="421.4" cy="34.1" r="3.4"/>
					<circle class="st0" cx="421.4" cy="10.6" r="3.4"/>
					<circle class="st0" cx="397.9" cy="10.6" r="3.4"/>
					<circle class="st0" cx="374.5" cy="10.6" r="3.4"/>
					<circle class="st0" cx="421.4" cy="57.5" r="3.4"/>
				</g>
			</g>
			<g>
				<circle class="st0" cx="402.9" cy="532.7" r="3.4"/>
				<circle class="st0" cx="402.9" cy="546.9" r="3.4"/>
				<circle class="st0" cx="388.7" cy="546.9" r="3.4"/>
				<circle class="st0" cx="374.5" cy="546.9" r="3.4"/>
				<circle class="st0" cx="402.9" cy="518.5" r="3.4"/>
				<circle class="st0" cx="421.4" cy="541.9" r="3.4"/>
				<circle class="st0" cx="421.4" cy="565.4" r="3.4"/>
				<circle class="st0" cx="397.9" cy="565.4" r="3.4"/>
				<circle class="st0" cx="374.5" cy="565.4" r="3.4"/>
				<circle class="st0" cx="421.4" cy="518.5" r="3.4"/>
			</g>
		</g>
	</g>
	<g>
		<g>
			<circle class="st0" cx="55.5" cy="504.2" r="3.4"/>
			<circle class="st0" cx="74" cy="504.2" r="3.4"/>
		</g>
		<g>
			<circle class="st0" cx="55.5" cy="488.9" r="3.4"/>
			<circle class="st0" cx="74" cy="488.9" r="3.4"/>
		</g>
	</g>
</g>
<line class="st0" x1="2.1" y1="511.4" x2="38.1" y2="511.4"/>
<line class="st0" x1="15.1" y1="363" x2="24.1" y2="363"/>
<line class="st0" x1="15.1" y1="138.5" x2="24.1" y2="138.5"/>
<line class="st0" x1="15.1" y1="213.4" x2="24.1" y2="213.4"/>
<line class="st0" x1="15.1" y1="437.8" x2="24.1" y2="437.8"/>
<line class="st0" x1="15.1" y1="288.2" x2="24.1" y2="288.2"/>
<line class="st0" x1="15.1" y1="63.7" x2="24.1" y2="63.7"/>
<line class="st0" x1="64.8" y1="24.3" x2="64.8" y2="15.3"/>
<line class="st0" x1="291.5" y1="24.3" x2="291.5" y2="15.3"/>
<line class="st0" x1="215.9" y1="24.3" x2="215.9" y2="15.3"/>
<line class="st0" x1="140.4" y1="24.3" x2="140.4" y2="15.3"/>
<line class="st0" x1="407.3" y1="363" x2="416.3" y2="363"/>
<line class="st0" x1="407.3" y1="138.5" x2="416.3" y2="138.5"/>
<line class="st0" x1="407.3" y1="213.4" x2="416.3" y2="213.4"/>
<line class="st0" x1="407.3" y1="437.8" x2="416.3" y2="437.8"/>
<line class="st0" x1="407.3" y1="288.2" x2="416.3" y2="288.2"/>
<text transform="matrix(-0.8877 0 0 -1 414.7729 508.5396)" class="st1 st2">S</text>
<g>
	<line class="st0" x1="64.8" y1="560.7" x2="64.8" y2="551.7"/>
	<line class="st0" x1="291.5" y1="560.7" x2="291.5" y2="551.7"/>
	<line class="st0" x1="367" y1="560.7" x2="367" y2="551.7"/>
</g>
<line class="st0" x1="215.9" y1="560.7" x2="215.9" y2="551.7"/>
<line class="st0" x1="140.4" y1="560.7" x2="140.4" y2="551.7"/>
<text transform="matrix(-1.0207 0 0 -1 417.7822 61.1641)" class="st1 st3">SS</text>
<line class="st0" x1="367" y1="24.3" x2="367" y2="15.3"/>
</svg>
