<?xml version="1.0" encoding="UTF-8"?>
<svg xmlns="http://www.w3.org/2000/svg" viewBox="0 0 504 504">
  <defs>
    <style>
      .cls-1 {
        fill: none;
        stroke: #231f20;
        stroke-miterlimit: 10;
      }
    </style>
  </defs>
  <g id="border">
    <rect id="outer" class="cls-1" x="36" y="9" width="432" height="486" rx="12" ry="12"/>
    <rect id="inner" class="cls-1" x="90" y="63" width="324" height="378" rx="12" ry="12"/>
  </g>
  <g id="pegs">
    <g>
      <g>
        <circle class="cls-1" cx="54.5" cy="422.6" r="3.38"/>
        <circle class="cls-1" cx="54.5" cy="411.33" r="3.38"/>
        <circle class="cls-1" cx="54.5" cy="400.05" r="3.38"/>
        <circle class="cls-1" cx="54.5" cy="388.78" r="3.38"/>
        <circle class="cls-1" cx="54.5" cy="377.51" r="3.38"/>
      </g>
      <g>
        <circle class="cls-1" cx="73" cy="422.6" r="3.38"/>
        <circle class="cls-1" cx="73" cy="411.33" r="3.38"/>
        <circle class="cls-1" cx="73" cy="400.05" r="3.38"/>
        <circle class="cls-1" cx="73" cy="388.78" r="3.38"/>
        <circle class="cls-1" cx="73" cy="377.51" r="3.38"/>
      </g>
    </g>
    <g>
      <g>
        <circle class="cls-1" cx="54.5" cy="364.32" r="3.38"/>
        <circle class="cls-1" cx="54.5" cy="353.05" r="3.38"/>
        <circle class="cls-1" cx="54.5" cy="341.77" r="3.38"/>
        <circle class="cls-1" cx="54.5" cy="330.5" r="3.38"/>
        <circle class="cls-1" cx="54.5" cy="319.23" r="3.38"/>
      </g>
      <g>
        <circle class="cls-1" cx="72.5" cy="364.32" r="3.38"/>
        <circle class="cls-1" cx="72.5" cy="353.05" r="3.38"/>
        <circle class="cls-1" cx="72.5" cy="341.77" r="3.38"/>
        <circle class="cls-1" cx="72.5" cy="330.5" r="3.38"/>
        <circle class="cls-1" cx="72.5" cy="319.23" r="3.38"/>
      </g>
    </g>
    <g>
      <g>
        <circle class="cls-1" cx="54.5" cy="305.07" r="3.38"/>
        <circle class="cls-1" cx="54.5" cy="293.8" r="3.38"/>
        <circle class="cls-1" cx="54.5" cy="282.52" r="3.38"/>
        <circle class="cls-1" cx="54.5" cy="271.25" r="3.38"/>
        <circle class="cls-1" cx="54.5" cy="259.98" r="3.38"/>
      </g>
      <g>
        <circle class="cls-1" cx="72.5" cy="305.07" r="3.38"/>
        <circle class="cls-1" cx="72.5" cy="293.8" r="3.38"/>
        <circle class="cls-1" cx="72.5" cy="282.52" r="3.38"/>
        <circle class="cls-1" cx="72.5" cy="271.25" r="3.38"/>
        <circle class="cls-1" cx="72.5" cy="259.98" r="3.38"/>
      </g>
    </g>
    <g>
      <g>
        <circle class="cls-1" cx="54.5" cy="245.82" r="3.38"/>
        <circle class="cls-1" cx="54.5" cy="234.55" r="3.38"/>
        <circle class="cls-1" cx="54.5" cy="223.27" r="3.38"/>
        <circle class="cls-1" cx="54.5" cy="212" r="3.38"/>
        <circle class="cls-1" cx="54.5" cy="200.73" r="3.38"/>
      </g>
      <g>
        <circle class="cls-1" cx="72.5" cy="245.82" r="3.38"/>
        <circle class="cls-1" cx="72.5" cy="234.55" r="3.38"/>
        <circle class="cls-1" cx="72.5" cy="223.27" r="3.38"/>
        <circle class="cls-1" cx="72.5" cy="212" r="3.38"/>
        <circle class="cls-1" cx="72.5" cy="200.73" r="3.38"/>
      </g>
    </g>
    <g>
      <g>
        <circle class="cls-1" cx="54.5" cy="186.57" r="3.38"/>
        <circle class="cls-1" cx="54.5" cy="175.3" r="3.38"/>
        <circle class="cls-1" cx="54.5" cy="164.02" r="3.38"/>
        <circle class="cls-1" cx="54.5" cy="152.75" r="3.38"/>
        <circle class="cls-1" cx="54.5" cy="141.48" r="3.38"/>
      </g>
      <g>
        <circle class="cls-1" cx="72.5" cy="186.57" r="3.38"/>
        <circle class="cls-1" cx="72.5" cy="175.3" r="3.38"/>
        <circle class="cls-1" cx="72.5" cy="164.02" r="3.38"/>
        <circle class="cls-1" cx="72.5" cy="152.75" r="3.38"/>
        <circle class="cls-1" cx="72.5" cy="141.48" r="3.38"/>
      </g>
    </g>
    <g>
      <g>
        <circle class="cls-1" cx="54.5" cy="127.54" r="3.38"/>
        <circle class="cls-1" cx="54.5" cy="116.27" r="3.38"/>
        <circle class="cls-1" cx="54.5" cy="105" r="3.38"/>
        <circle class="cls-1" cx="54.5" cy="93.72" r="3.38"/>
        <circle class="cls-1" cx="54.5" cy="82.45" r="3.38"/>
      </g>
      <g>
        <circle class="cls-1" cx="72.5" cy="127.54" r="3.38"/>
        <circle class="cls-1" cx="72.5" cy="116.27" r="3.38"/>
        <circle class="cls-1" cx="72.5" cy="105" r="3.38"/>
        <circle class="cls-1" cx="72.5" cy="93.72" r="3.38"/>
        <circle class="cls-1" cx="72.5" cy="82.45" r="3.38"/>
      </g>
    </g>
    <g>
      <g>
        <g>
          <circle class="cls-1" cx="393.47" cy="46" r="3.38"/>
          <circle class="cls-1" cx="382.2" cy="46" r="3.38"/>
          <circle class="cls-1" cx="370.92" cy="46" r="3.38"/>
          <circle class="cls-1" cx="359.65" cy="46" r="3.38"/>
          <circle class="cls-1" cx="348.38" cy="46" r="3.38"/>
        </g>
        <g>
          <circle class="cls-1" cx="393.47" cy="28" r="3.38"/>
          <circle class="cls-1" cx="382.2" cy="28" r="3.38"/>
          <circle class="cls-1" cx="370.92" cy="28" r="3.38"/>
          <circle class="cls-1" cx="359.65" cy="28" r="3.38"/>
          <circle class="cls-1" cx="348.38" cy="28" r="3.38"/>
        </g>
      </g>
      <g>
        <g>
          <circle class="cls-1" cx="334.22" cy="46" r="3.38"/>
          <circle class="cls-1" cx="322.95" cy="46" r="3.38"/>
          <circle class="cls-1" cx="311.67" cy="46" r="3.38"/>
          <circle class="cls-1" cx="300.4" cy="46" r="3.38"/>
          <circle class="cls-1" cx="289.13" cy="46" r="3.38"/>
        </g>
        <g>
          <circle class="cls-1" cx="334.22" cy="28" r="3.38"/>
          <circle class="cls-1" cx="322.95" cy="28" r="3.38"/>
          <circle class="cls-1" cx="311.67" cy="28" r="3.38"/>
          <circle class="cls-1" cx="300.4" cy="28" r="3.38"/>
          <circle class="cls-1" cx="289.13" cy="28" r="3.38"/>
        </g>
      </g>
      <g>
        <g>
          <circle class="cls-1" cx="274.97" cy="46" r="3.38"/>
          <circle class="cls-1" cx="263.7" cy="46" r="3.38"/>
          <circle class="cls-1" cx="252.42" cy="46" r="3.38"/>
          <circle class="cls-1" cx="241.15" cy="46" r="3.38"/>
          <circle class="cls-1" cx="229.88" cy="46" r="3.38"/>
        </g>
        <g>
          <circle class="cls-1" cx="274.97" cy="28" r="3.38"/>
          <circle class="cls-1" cx="263.7" cy="28" r="3.38"/>
          <circle class="cls-1" cx="252.42" cy="28" r="3.38"/>
          <circle class="cls-1" cx="241.15" cy="28" r="3.38"/>
          <circle class="cls-1" cx="229.88" cy="28" r="3.38"/>
        </g>
      </g>
      <g>
        <g>
          <circle class="cls-1" cx="215.72" cy="46" r="3.38"/>
          <circle class="cls-1" cx="204.45" cy="46" r="3.38"/>
          <circle class="cls-1" cx="193.17" cy="46" r="3.38"/>
          <circle class="cls-1" cx="181.9" cy="46" r="3.38"/>
          <circle class="cls-1" cx="170.63" cy="46" r="3.38"/>
        </g>
        <g>
          <circle class="cls-1" cx="215.72" cy="28" r="3.38"/>
          <circle class="cls-1" cx="204.45" cy="28" r="3.38"/>
          <circle class="cls-1" cx="193.17" cy="28" r="3.38"/>
          <circle class="cls-1" cx="181.9" cy="28" r="3.38"/>
          <circle class="cls-1" cx="170.63" cy="28" r="3.38"/>
        </g>
      </g>
      <g>
        <g>
          <circle class="cls-1" cx="156.47" cy="46" r="3.38"/>
          <circle class="cls-1" cx="145.2" cy="46" r="3.38"/>
          <circle class="cls-1" cx="133.92" cy="46" r="3.38"/>
          <circle class="cls-1" cx="122.65" cy="46" r="3.38"/>
          <circle class="cls-1" cx="111.38" cy="46" r="3.38"/>
        </g>
        <g>
          <circle class="cls-1" cx="156.47" cy="28" r="3.38"/>
          <circle class="cls-1" cx="145.2" cy="28" r="3.38"/>
          <circle class="cls-1" cx="133.92" cy="28" r="3.38"/>
          <circle class="cls-1" cx="122.65" cy="28" r="3.38"/>
          <circle class="cls-1" cx="111.38" cy="28" r="3.38"/>
        </g>
      </g>
    </g>
    <g>
      <circle class="cls-1" cx="72.42" cy="68.55" r="3.38"/>
      <circle class="cls-1" cx="84.77" cy="46" r="3.38"/>
      <circle class="cls-1" cx="72.42" cy="46" r="3.38"/>
      <circle class="cls-1" cx="72.42" cy="57.27" r="3.38"/>
      <circle class="cls-1" cx="53.92" cy="68.55" r="3.38"/>
      <circle class="cls-1" cx="96.05" cy="46" r="3.38"/>
      <circle class="cls-1" cx="53.57" cy="46" r="3.38"/>
      <circle class="cls-1" cx="53.57" cy="28" r="3.38"/>
      <circle class="cls-1" cx="72.42" cy="28" r="3.38"/>
      <circle class="cls-1" cx="96.05" cy="28" r="3.38"/>
      <circle class="cls-1" cx="84.77" cy="46" r="3.38"/>
    </g>
    <g>
      <circle class="cls-1" cx="431.57" cy="435.45" r="3.38"/>
      <circle class="cls-1" cx="419.22" cy="458" r="3.38"/>
      <circle class="cls-1" cx="431.57" cy="458" r="3.38"/>
      <circle class="cls-1" cx="431.57" cy="446.73" r="3.38"/>
      <circle class="cls-1" cx="450.07" cy="435.45" r="3.38"/>
      <circle class="cls-1" cx="407.94" cy="458" r="3.38"/>
      <circle class="cls-1" cx="450.42" cy="458" r="3.38"/>
      <circle class="cls-1" cx="450.42" cy="476" r="3.38"/>
      <circle class="cls-1" cx="431.57" cy="476" r="3.38"/>
      <circle class="cls-1" cx="407.94" cy="476" r="3.38"/>
      <circle class="cls-1" cx="419.22" cy="458" r="3.38"/>
    </g>
    <g>
      <g>
        <circle class="cls-1" cx="393.47" cy="475.92" r="3.38"/>
        <circle class="cls-1" cx="382.2" cy="475.92" r="3.38"/>
        <circle class="cls-1" cx="370.92" cy="475.92" r="3.38"/>
        <circle class="cls-1" cx="359.65" cy="475.92" r="3.38"/>
        <circle class="cls-1" cx="348.38" cy="475.92" r="3.38"/>
      </g>
      <g>
        <circle class="cls-1" cx="393.47" cy="457.92" r="3.38"/>
        <circle class="cls-1" cx="382.2" cy="457.92" r="3.38"/>
        <circle class="cls-1" cx="370.92" cy="457.92" r="3.38"/>
        <circle class="cls-1" cx="359.65" cy="457.92" r="3.38"/>
        <circle class="cls-1" cx="348.38" cy="457.92" r="3.38"/>
      </g>
    </g>
    <g>
      <g>
        <circle class="cls-1" cx="334.22" cy="475.92" r="3.38"/>
        <circle class="cls-1" cx="322.95" cy="475.92" r="3.38"/>
        <circle class="cls-1" cx="311.67" cy="475.92" r="3.38"/>
        <circle class="cls-1" cx="300.4" cy="475.92" r="3.38"/>
        <circle class="cls-1" cx="289.13" cy="475.92" r="3.38"/>
      </g>
      <g>
        <circle class="cls-1" cx="334.22" cy="457.92" r="3.38"/>
        <circle class="cls-1" cx="322.95" cy="457.92" r="3.38"/>
        <circle class="cls-1" cx="311.67" cy="457.92" r="3.38"/>
        <circle class="cls-1" cx="300.4" cy="457.92" r="3.38"/>
        <circle class="cls-1" cx="289.13" cy="457.92" r="3.38"/>
      </g>
    </g>
    <g>
      <g>
        <circle class="cls-1" cx="274.97" cy="475.92" r="3.38"/>
        <circle class="cls-1" cx="263.7" cy="475.92" r="3.38"/>
        <circle class="cls-1" cx="252.42" cy="475.92" r="3.38"/>
        <circle class="cls-1" cx="241.15" cy="475.92" r="3.38"/>
        <circle class="cls-1" cx="229.88" cy="475.92" r="3.38"/>
      </g>
      <g>
        <circle class="cls-1" cx="274.97" cy="457.92" r="3.38"/>
        <circle class="cls-1" cx="263.7" cy="457.92" r="3.38"/>
        <circle class="cls-1" cx="252.42" cy="457.92" r="3.38"/>
        <circle class="cls-1" cx="241.15" cy="457.92" r="3.38"/>
        <circle class="cls-1" cx="229.88" cy="457.92" r="3.38"/>
      </g>
    </g>
    <g>
      <g>
        <circle class="cls-1" cx="215.72" cy="475.92" r="3.38"/>
        <circle class="cls-1" cx="204.45" cy="475.92" r="3.38"/>
        <circle class="cls-1" cx="193.17" cy="475.92" r="3.38"/>
        <circle class="cls-1" cx="181.9" cy="475.92" r="3.38"/>
        <circle class="cls-1" cx="170.63" cy="475.92" r="3.38"/>
      </g>
      <g>
        <circle class="cls-1" cx="215.72" cy="457.92" r="3.38"/>
        <circle class="cls-1" cx="204.45" cy="457.92" r="3.38"/>
        <circle class="cls-1" cx="193.17" cy="457.92" r="3.38"/>
        <circle class="cls-1" cx="181.9" cy="457.92" r="3.38"/>
        <circle class="cls-1" cx="170.63" cy="457.92" r="3.38"/>
      </g>
    </g>
    <g>
      <circle class="cls-1" cx="156.47" cy="475.92" r="3.38"/>
      <circle class="cls-1" cx="145.2" cy="475.92" r="3.38"/>
      <circle class="cls-1" cx="133.92" cy="475.92" r="3.38"/>
      <circle class="cls-1" cx="122.65" cy="475.92" r="3.38"/>
      <circle class="cls-1" cx="111.38" cy="475.92" r="3.38"/>
    </g>
    <g>
      <circle class="cls-1" cx="156.47" cy="457.92" r="3.38"/>
      <circle class="cls-1" cx="145.2" cy="457.92" r="3.38"/>
      <circle class="cls-1" cx="133.92" cy="457.92" r="3.38"/>
      <circle class="cls-1" cx="122.65" cy="457.92" r="3.38"/>
      <circle class="cls-1" cx="111.38" cy="457.92" r="3.38"/>
    </g>
    <g>
      <circle class="cls-1" cx="431.57" cy="68.55" r="3.38"/>
      <circle class="cls-1" cx="419.22" cy="46" r="3.38"/>
      <circle class="cls-1" cx="431.57" cy="46" r="3.38"/>
      <circle class="cls-1" cx="431.57" cy="57.27" r="3.38"/>
      <circle class="cls-1" cx="450.07" cy="68.55" r="3.38"/>
      <circle class="cls-1" cx="407.94" cy="46" r="3.38"/>
      <circle class="cls-1" cx="450.42" cy="46" r="3.38"/>
      <circle class="cls-1" cx="450.42" cy="28" r="3.38"/>
      <circle class="cls-1" cx="431.57" cy="28" r="3.38"/>
      <circle class="cls-1" cx="407.94" cy="28" r="3.38"/>
      <circle class="cls-1" cx="419.22" cy="46" r="3.38"/>
    </g>
    <circle class="cls-1" cx="93.43" cy="466.92" r="3.38"/>
    <g>
      <circle class="cls-1" cx="54.42" cy="448.92" r="3.38"/>
      <circle class="cls-1" cx="54.42" cy="437.64" r="3.38"/>
      <circle class="cls-1" cx="72.92" cy="448.92" r="3.38"/>
      <circle class="cls-1" cx="72.92" cy="437.64" r="3.38"/>
    </g>
    <g>
      <g>
        <g>
          <circle class="cls-1" cx="431.93" cy="422.6" r="3.38"/>
          <circle class="cls-1" cx="431.93" cy="411.33" r="3.38"/>
          <circle class="cls-1" cx="431.93" cy="400.05" r="3.38"/>
          <circle class="cls-1" cx="431.93" cy="388.78" r="3.38"/>
          <circle class="cls-1" cx="431.93" cy="377.51" r="3.38"/>
        </g>
        <g>
          <circle class="cls-1" cx="450.43" cy="422.6" r="3.38"/>
          <circle class="cls-1" cx="450.43" cy="411.33" r="3.38"/>
          <circle class="cls-1" cx="450.43" cy="400.05" r="3.38"/>
          <circle class="cls-1" cx="450.43" cy="388.78" r="3.38"/>
          <circle class="cls-1" cx="450.43" cy="377.51" r="3.38"/>
        </g>
      </g>
      <g>
        <g>
          <circle class="cls-1" cx="431.93" cy="364.32" r="3.38"/>
          <circle class="cls-1" cx="431.93" cy="353.05" r="3.38"/>
          <circle class="cls-1" cx="431.93" cy="341.77" r="3.38"/>
          <circle class="cls-1" cx="431.93" cy="330.5" r="3.38"/>
          <circle class="cls-1" cx="431.93" cy="319.23" r="3.38"/>
        </g>
        <g>
          <circle class="cls-1" cx="449.93" cy="364.32" r="3.38"/>
          <circle class="cls-1" cx="449.93" cy="353.05" r="3.38"/>
          <circle class="cls-1" cx="449.93" cy="341.77" r="3.38"/>
          <circle class="cls-1" cx="449.93" cy="330.5" r="3.38"/>
          <circle class="cls-1" cx="449.93" cy="319.23" r="3.38"/>
        </g>
      </g>
      <g>
        <g>
          <circle class="cls-1" cx="431.93" cy="305.07" r="3.38"/>
          <circle class="cls-1" cx="431.93" cy="293.8" r="3.38"/>
          <circle class="cls-1" cx="431.93" cy="282.52" r="3.38"/>
          <circle class="cls-1" cx="431.93" cy="271.25" r="3.38"/>
          <circle class="cls-1" cx="431.93" cy="259.98" r="3.38"/>
        </g>
        <g>
          <circle class="cls-1" cx="449.93" cy="305.07" r="3.38"/>
          <circle class="cls-1" cx="449.93" cy="293.8" r="3.38"/>
          <circle class="cls-1" cx="449.93" cy="282.52" r="3.38"/>
          <circle class="cls-1" cx="449.93" cy="271.25" r="3.38"/>
          <circle class="cls-1" cx="449.93" cy="259.98" r="3.38"/>
        </g>
      </g>
      <g>
        <g>
          <circle class="cls-1" cx="431.93" cy="245.82" r="3.38"/>
          <circle class="cls-1" cx="431.93" cy="234.55" r="3.38"/>
          <circle class="cls-1" cx="431.93" cy="223.27" r="3.38"/>
          <circle class="cls-1" cx="431.93" cy="212" r="3.38"/>
          <circle class="cls-1" cx="431.93" cy="200.73" r="3.38"/>
        </g>
        <g>
          <circle class="cls-1" cx="449.93" cy="245.82" r="3.38"/>
          <circle class="cls-1" cx="449.93" cy="234.55" r="3.38"/>
          <circle class="cls-1" cx="449.93" cy="223.27" r="3.38"/>
          <circle class="cls-1" cx="449.93" cy="212" r="3.38"/>
          <circle class="cls-1" cx="449.93" cy="200.73" r="3.38"/>
        </g>
      </g>
      <g>
        <g>
          <circle class="cls-1" cx="431.93" cy="186.57" r="3.38"/>
          <circle class="cls-1" cx="431.93" cy="175.3" r="3.38"/>
          <circle class="cls-1" cx="431.93" cy="164.02" r="3.38"/>
          <circle class="cls-1" cx="431.93" cy="152.75" r="3.38"/>
          <circle class="cls-1" cx="431.93" cy="141.48" r="3.38"/>
        </g>
        <g>
          <circle class="cls-1" cx="449.93" cy="186.57" r="3.38"/>
          <circle class="cls-1" cx="449.93" cy="175.3" r="3.38"/>
          <circle class="cls-1" cx="449.93" cy="164.02" r="3.38"/>
          <circle class="cls-1" cx="449.93" cy="152.75" r="3.38"/>
          <circle class="cls-1" cx="449.93" cy="141.48" r="3.38"/>
        </g>
      </g>
      <g>
        <g>
          <circle class="cls-1" cx="431.93" cy="127.32" r="3.38"/>
          <circle class="cls-1" cx="431.93" cy="116.05" r="3.38"/>
          <circle class="cls-1" cx="431.93" cy="104.77" r="3.38"/>
          <circle class="cls-1" cx="431.93" cy="93.5" r="3.38"/>
          <circle class="cls-1" cx="431.93" cy="82.23" r="3.38"/>
        </g>
        <g>
          <circle class="cls-1" cx="449.93" cy="127.32" r="3.38"/>
          <circle class="cls-1" cx="449.93" cy="116.05" r="3.38"/>
          <circle class="cls-1" cx="449.93" cy="104.77" r="3.38"/>
          <circle class="cls-1" cx="449.93" cy="93.5" r="3.38"/>
          <circle class="cls-1" cx="449.93" cy="82.23" r="3.38"/>
        </g>
      </g>
    </g>
  </g>
</svg>