<?xml version="1.0" encoding="UTF-8"?><svg xmlns="http://www.w3.org/2000/svg" viewBox="0 0 575.17 564.2"><defs><style>.cls-1{fill:none;stroke:#231f20;stroke-miterlimit:10;}.cls-2{fill:#231f20;font-family:SourceSansPro-Black, 'Source Sans Pro';font-size:130px;}</style></defs><g id="Coaster_Edits"><g><path class="cls-1" d="M469.25,497.8c7.41-6.34,14.85-12.62,21.49-19.81,2.48-2.68,3.9-5.47,1.1-8.29-2.9-2.91-5.8-1.23-8.26,1.26-1.04,1.06-2.17,2.03-3.22,3.08-35.45,35.5-77.58,59.88-126.28,71.05-95.99,22.03-181.2,.04-254.44-66.4-2.63-2.38-5.45-4.84-8.77-1.65-3.74,3.59-.98,6.42,1.79,9.04,13.42,12.7,27.89,24.04,43.5,33.92,103.67,65.66,239.72,56.6,333.09-22.2Z"/><path class="cls-1" d="M448.5,481.29c2.76-2.31,5.64-4.5,8.24-6.98,2.19-2.08,1.99-4.69,.08-6.82-1.72-1.91-4.03-2.31-6.3-.76-1.39,.95-2.66,2.1-3.97,3.16-58.11,46.98-124.24,64.82-197.92,53.34-40.02-6.24-76.22-22.18-108.36-47.03-3-2.32-6.41-4.52-9.32-.46-2.89,4.02,.28,6.4,3.33,8.72,10.64,8.08,21.82,15.26,33.53,21.68,88.82,48.67,202.07,38.7,280.69-24.84Z"/><path class="cls-1" d="M419.22,468.03c2.1-1.3,3.83-4.08,1.58-7.32-2.22-3.19-5.4-2.63-8.32-.41-.84,.64-1.79,1.12-2.68,1.69-56.7,36.58-117.64,45.05-182.44,27.32-19.32-5.29-37.23-13.9-54.22-24.43-3.09-1.92-6.01-2.79-8.25,.69-2.25,3.51-.14,5.94,2.84,7.82,1.08,.68,2.14,1.37,3.23,2.02,45.73,27.56,95.13,37.91,148.04,31.27,36.15-4.54,69.14-17.55,100.22-38.66Z"/><path class="cls-1" d="M384.71,456.16c2.59-2.1,3.95-4.27,2.42-6.95-1.61-2.81-4.17-3.36-7.1-1.96-1.91,.92-3.81,1.85-5.7,2.79-44.92,22.23-91.44,26.24-139.53,12.23-10.81-3.15-21.16-7.45-31.22-12.49-2.88-1.44-5.82-2.05-7.72,1.39-2.04,3.71,.08,5.96,3.2,7.64,.93,.5,1.88,.97,2.84,1.43,46.3,22.13,94.16,26.14,143.5,12.22,13.9-3.92,27.11-9.63,39.32-16.3Z"/><path class="cls-1" d="M350.83,440.75c2.57-1.59,3.6-3.61,2.82-6.14-.9-2.93-3.26-3.72-6.06-3.3-1.24,.19-2.46,.65-3.65,1.07-38.33,13.67-76.43,12.57-114.32-1.8-1.39-.53-2.73-1.23-4.16-1.56-2.89-.67-5.1,.51-6.09,3.24-.91,2.49,.21,4.58,2.39,5.95,1.06,.67,2.31,1.04,3.49,1.52,31.11,12.44,63.17,15.42,96.08,9.42,10.22-1.86,20.25-4.48,29.51-8.4Z"/><path class="cls-1" d="M458.88,429.49c8.88-10.41,17.16-21.08,23.75-32.96,1.5-2.7,.51-4.94-2.02-6.46-2.67-1.6-5.18-.81-6.62,1.59-6.56,10.9-14.15,21.04-22.28,30.79-2.1,2.52-2.04,5.13,.33,7.34,2.29,2.13,4.69,1.08,6.84-.3Z"/><path class="cls-1" d="M412.17,422.2l-.12-.13c-2.91,2.44-5.77,4.96-8.75,7.31-2.88,2.26-4.36,5.05-1.89,8.12,2.24,2.79,5.13,1.99,7.88,.02,8.47-6.06,15.71-13.45,23.01-20.8,2.34-2.36,3.05-5.3,.38-7.83-2.74-2.59-5.39-1.35-7.76,.97-4.22,4.13-8.49,8.22-12.73,12.33Z"/><path class="cls-1" d="M543.71,402.4c4.22-8.76,8.85-18.47,11.45-28.96,.54-2.17-1.31-4.02-3.51-4.69-2.55-.78-4.78,.2-5.8,2.59-3.82,8.92-7.51,17.91-11.14,26.91-1.03,2.55,.09,4.61,2.39,5.84,2.06,1.1,4.09,.78,6.61-1.69Z"/><path class="cls-1" d="M476.3,453.15c4.22-5.17,9.44-11.51,14.58-17.9,1.89-2.35,1.6-4.8-.58-6.76-2.54-2.27-5.22-1.61-7.24,.71-5.26,6.02-10.35,12.2-15.48,18.34-1.91,2.29-1.92,4.63,.2,6.76,2.44,2.46,4.91,1.76,8.53-1.15Z"/><path class="cls-1" d="M503.56,416.38c4.86-7.43,10.01-15.41,13.31-24.36,.78-2.11-.73-4.05-2.91-5.04-2.53-1.16-4.75-.42-6.04,1.79-4.26,7.27-8.37,14.64-12.38,22.05-1.26,2.33-.52,4.58,1.67,6.11,1.93,1.35,3.93,1.36,6.35-.55Z"/><path class="cls-1" d="M385.56,420.24c2.7-2.17,4.88-4.58,2.59-8.06-2.26-3.45-5.21-2.58-8.22-.65-5.13,3.3-10.37,6.41-15.55,9.62-2.77,1.71-4.63,3.86-2.68,7.25,1.9,3.3,4.71,3.19,7.6,1.52,5.46-3.16,10.84-6.45,16.26-9.68Z"/><path class="cls-1" d="M441.46,447.38c2.42-2.37,4.95-4.64,7.22-7.14,1.94-2.13,2.16-4.64,.07-6.85-2.03-2.16-4.47-2.44-6.75-.4-4.26,3.81-8.47,7.67-12.56,11.65-2.13,2.07-2.1,4.59-.15,6.82,1.79,2.03,4.14,2.22,6.3,.77,2.09-1.41,3.92-3.21,5.86-4.85Z"/><path class="cls-1" d="M469.25,497.79c-93.37,78.8-229.42,87.87-333.09,22.2-15.61-9.89-30.08-21.23-43.5-33.92-2.77-2.62-5.53-5.44-1.79-9.04,3.33-3.19,6.15-.74,8.77,1.65,73.25,66.45,158.45,88.43,254.44,66.4,48.69-11.17,90.83-35.56,126.28-71.05,1.05-1.05,2.17-2.02,3.22-3.08,2.46-2.49,5.36-4.17,8.26-1.26,2.81,2.82,1.38,5.6-1.1,8.29-6.64,7.19-14.08,13.47-21.49,19.81Z"/><path class="cls-1" d="M448.5,481.29c-78.62,63.53-191.87,73.51-280.69,24.84-11.72-6.42-22.9-13.6-33.53-21.68-3.05-2.32-6.22-4.7-3.33-8.72,2.92-4.05,6.32-1.86,9.32,.46,32.14,24.85,68.34,40.79,108.36,47.03,73.69,11.49,139.82-6.36,197.92-53.34,1.32-1.06,2.58-2.21,3.97-3.16,2.27-1.55,4.59-1.15,6.3,.76,1.91,2.13,2.1,4.74-.08,6.82-2.6,2.48-5.48,4.67-8.24,6.98Z"/><path class="cls-1" d="M419.22,468.03c-31.08,21.11-64.07,34.12-100.22,38.66-52.92,6.64-102.31-3.71-148.04-31.27-1.09-.66-2.15-1.35-3.23-2.02-2.98-1.87-5.09-4.31-2.84-7.82,2.23-3.48,5.16-2.61,8.25-.69,16.99,10.53,34.9,19.15,54.22,24.43,64.8,17.73,125.74,9.26,182.44-27.32,.89-.57,1.84-1.05,2.68-1.69,2.92-2.23,6.1-2.79,8.32,.41,2.25,3.23,.53,6.02-1.58,7.32Z"/><path class="cls-1" d="M384.71,456.16c-12.21,6.67-25.41,12.38-39.32,16.3-49.35,13.92-97.21,9.91-143.5-12.22-.96-.46-1.91-.92-2.84-1.43-3.12-1.69-5.25-3.94-3.2-7.64,1.89-3.43,4.83-2.83,7.72-1.39,10.06,5.03,20.42,9.34,31.22,12.49,48.09,14.01,94.61,10,139.53-12.23,1.9-.94,3.8-1.88,5.7-2.79,2.93-1.41,5.5-.86,7.1,1.96,1.53,2.68,.17,4.86-2.42,6.95Z"/><path class="cls-1" d="M350.83,440.75c-9.26,3.92-19.29,6.53-29.51,8.4-32.9,6.01-64.96,3.03-96.08-9.42-1.18-.47-2.43-.85-3.49-1.52-2.18-1.37-3.3-3.46-2.39-5.95,.99-2.73,3.2-3.91,6.09-3.24,1.43,.33,2.77,1.04,4.16,1.56,37.89,14.37,75.99,15.47,114.32,1.8,1.19-.43,2.41-.88,3.65-1.07,2.8-.42,5.15,.37,6.06,3.3,.78,2.53-.25,4.55-2.82,6.14Z"/><path class="cls-1" d="M239.56,415.07c-1.97-2.34-2.21-4.36-1.1-6.41,1.49-2.74,3.96-2.88,6.59-2.07,8.09,2.49,16.29,4.53,24.69,5.61,16.3,2.09,32.46,1.3,48.41-2.81,.82-.21,1.64-.38,2.46-.58,3.39-.81,6.64-.71,7.58,3.35,.9,3.91-1.71,5.76-5.14,6.63-16.32,4.12-32.85,5.64-49.65,3.98-9.92-.99-19.65-2.82-29.15-5.86-1.79-.57-3.5-1.36-4.7-1.83Z"/><path class="cls-1" d="M509.19,457.44c-3.14,3.01-5.78,3.52-8.14,1.26-2.05-1.96-2.17-4.61-.37-6.9,7.95-10.12,15.46-20.54,22.09-31.58,1.53-2.55,4.02-3.92,7.01-2.22,2.58,1.47,3.39,3.88,1.97,6.5-6.59,12.07-14.81,23.03-22.55,32.94Z"/><path class="cls-1" d="M458.88,429.49c-2.15,1.38-4.55,2.42-6.84,.3-2.37-2.2-2.43-4.81-.33-7.34,8.13-9.75,15.72-19.89,22.28-30.79,1.44-2.39,3.95-3.19,6.62-1.59,2.53,1.52,3.51,3.76,2.02,6.46-6.59,11.87-14.87,22.55-23.75,32.96Z"/><path class="cls-1" d="M412.17,422.2c4.25-4.11,8.51-8.2,12.73-12.33,2.37-2.33,5.03-3.56,7.76-.97,2.67,2.53,1.96,5.47-.38,7.83-7.29,7.34-14.54,14.74-23.01,20.8-2.75,1.97-5.64,2.76-7.88-.02-2.46-3.07-.99-5.85,1.89-8.12,2.99-2.35,5.84-4.87,8.75-7.31l.12,.13Z"/><path class="cls-1" d="M543.71,402.4c-2.52,2.47-4.55,2.78-6.61,1.69-2.31-1.23-3.42-3.29-2.39-5.84,3.63-9,7.32-17.99,11.14-26.91,1.03-2.39,3.25-3.37,5.8-2.59,2.21,.67,4.05,2.53,3.51,4.69-2.6,10.49-7.23,20.21-11.45,28.96Z"/><path class="cls-1" d="M476.3,453.15c-3.62,2.91-6.09,3.6-8.53,1.15-2.12-2.13-2.11-4.48-.2-6.76,5.13-6.14,10.22-12.32,15.48-18.34,2.02-2.31,4.71-2.98,7.24-.71,2.18,1.95,2.47,4.41,.58,6.76-5.14,6.4-10.36,12.73-14.58,17.9Z"/><path class="cls-1" d="M503.56,416.38c-2.42,1.91-4.43,1.89-6.35,.55-2.19-1.53-2.93-3.78-1.67-6.11,4.01-7.42,8.12-14.78,12.38-22.05,1.29-2.2,3.51-2.95,6.04-1.79,2.18,1,3.69,2.93,2.91,5.04-3.29,8.95-8.44,16.93-13.31,24.36Z"/><path class="cls-1" d="M385.56,420.24c-5.42,3.23-10.8,6.52-16.26,9.68-2.89,1.67-5.7,1.78-7.6-1.52-1.95-3.39-.09-5.54,2.68-7.25,5.18-3.21,10.43-6.32,15.55-9.62,3.01-1.94,5.96-2.8,8.22,.65,2.29,3.49,.11,5.89-2.59,8.06Z"/><path class="cls-1" d="M441.47,447.38c-1.94,1.63-3.77,3.44-5.86,4.85-2.16,1.45-4.52,1.27-6.3-.77-1.96-2.23-1.98-4.74,.15-6.82,4.09-3.99,8.31-7.84,12.56-11.65,2.28-2.04,4.72-1.76,6.75,.4,2.08,2.21,1.87,4.71-.07,6.85-2.27,2.5-4.8,4.77-7.22,7.14Z"/></g></g><g id="Coaster_OPML_design"><text class="cls-2" transform="translate(159.06 233.82) rotate(-41.7)"><tspan x="0" y="0">O</tspan></text><text class="cls-2" transform="translate(215.92 180.81) rotate(-15)"><tspan x="0" y="0">P</tspan></text><text class="cls-2" transform="translate(280.87 157.6) rotate(13.38)"><tspan x="0" y="0">M</tspan></text><text class="cls-2" transform="translate(366.39 178.76) rotate(39.86)"><tspan x="0" y="0">L</tspan></text></g></svg>