<?xml version="1.0" encoding="UTF-8"?><svg xmlns="http://www.w3.org/2000/svg" viewBox="0 0 575.17 564.2"><defs><style>.cls-1{stroke:#231f20;}.cls-1,.cls-2,.cls-3,.cls-4,.cls-5,.cls-6{stroke-miterlimit:10;}.cls-1,.cls-2,.cls-7,.cls-4,.cls-5{fill:none;}.cls-8{fill:#291015;}.cls-2{stroke:#401311;}.cls-2,.cls-3,.cls-5{stroke-width:2.19px;}.cls-3{fill:#fad309;stroke:#33141d;}.cls-9{fill:#321415;}.cls-10{fill:#2f1313;}.cls-11,.cls-12{fill:#280f11;}.cls-13{fill:#fade00;}.cls-14{fill:#451813;}.cls-15{fill:#3c1312;}.cls-16{fill:#fbd407;}.cls-17{fill:#461611;}.cls-12{stroke-linecap:round;stroke-linejoin:round;}.cls-12,.cls-4,.cls-5{stroke:#451813;}.cls-12,.cls-6{stroke-width:1.46px;}.cls-4{stroke-width:3.65px;}.cls-18{fill:#231f20;}.cls-19{fill:#fbd20d;}.cls-6{fill:#764422;stroke:#4b221e;}</style></defs><g id="Coaster_Edits"><g><path class="cls-1" d="M469.25,497.8c7.41-6.34,14.85-12.62,21.49-19.81,2.48-2.68,3.9-5.47,1.1-8.29-2.9-2.91-5.8-1.23-8.26,1.26-1.04,1.06-2.17,2.03-3.22,3.08-35.45,35.5-77.58,59.88-126.28,71.05-95.99,22.03-181.2,.04-254.44-66.4-2.63-2.38-5.45-4.84-8.77-1.65-3.74,3.59-.98,6.42,1.79,9.04,13.42,12.7,27.89,24.04,43.5,33.92,103.67,65.66,239.72,56.6,333.09-22.2Z"/><path class="cls-1" d="M448.5,481.29c2.76-2.31,5.64-4.5,8.24-6.98,2.19-2.08,1.99-4.69,.08-6.82-1.72-1.91-4.03-2.31-6.3-.76-1.39,.95-2.66,2.1-3.97,3.16-58.11,46.98-124.24,64.82-197.92,53.34-40.02-6.24-76.22-22.18-108.36-47.03-3-2.32-6.41-4.52-9.32-.46-2.89,4.02,.28,6.4,3.33,8.72,10.64,8.08,21.82,15.26,33.53,21.68,88.82,48.67,202.07,38.7,280.69-24.84Z"/><path class="cls-1" d="M419.22,468.03c2.1-1.3,3.83-4.08,1.58-7.32-2.22-3.19-5.4-2.63-8.32-.41-.84,.64-1.79,1.12-2.68,1.69-56.7,36.58-117.64,45.05-182.44,27.32-19.32-5.29-37.23-13.9-54.22-24.43-3.09-1.92-6.01-2.79-8.25,.69-2.25,3.51-.14,5.94,2.84,7.82,1.08,.68,2.14,1.37,3.23,2.02,45.73,27.56,95.13,37.91,148.04,31.27,36.15-4.54,69.14-17.55,100.22-38.66Z"/><path class="cls-1" d="M384.71,456.16c2.59-2.1,3.95-4.27,2.42-6.95-1.61-2.81-4.17-3.36-7.1-1.96-1.91,.92-3.81,1.85-5.7,2.79-44.92,22.23-91.44,26.24-139.53,12.23-10.81-3.15-21.16-7.45-31.22-12.49-2.88-1.44-5.82-2.05-7.72,1.39-2.04,3.71,.08,5.96,3.2,7.64,.93,.5,1.88,.97,2.84,1.43,46.3,22.13,94.16,26.14,143.5,12.22,13.9-3.92,27.11-9.63,39.32-16.3Z"/><path class="cls-1" d="M350.83,440.75c2.57-1.59,3.6-3.61,2.82-6.14-.9-2.93-3.26-3.72-6.06-3.3-1.24,.19-2.46,.65-3.65,1.07-38.33,13.67-76.43,12.57-114.32-1.8-1.39-.53-2.73-1.23-4.16-1.56-2.89-.67-5.1,.51-6.09,3.24-.91,2.49,.21,4.58,2.39,5.95,1.06,.67,2.31,1.04,3.49,1.52,31.11,12.44,63.17,15.42,96.08,9.42,10.22-1.86,20.25-4.48,29.51-8.4Z"/><path class="cls-1" d="M458.88,429.49c8.88-10.41,17.16-21.08,23.75-32.96,1.5-2.7,.51-4.94-2.02-6.46-2.67-1.6-5.18-.81-6.62,1.59-6.56,10.9-14.15,21.04-22.28,30.79-2.1,2.52-2.04,5.13,.33,7.34,2.29,2.13,4.69,1.08,6.84-.3Z"/><path class="cls-1" d="M412.17,422.2l-.12-.13c-2.91,2.44-5.77,4.96-8.75,7.31-2.88,2.26-4.36,5.05-1.89,8.12,2.24,2.79,5.13,1.99,7.88,.02,8.47-6.06,15.71-13.45,23.01-20.8,2.34-2.36,3.05-5.3,.38-7.83-2.74-2.59-5.39-1.35-7.76,.97-4.22,4.13-8.49,8.22-12.73,12.33Z"/><path class="cls-1" d="M543.71,402.4c4.22-8.76,8.85-18.47,11.45-28.96,.54-2.17-1.31-4.02-3.51-4.69-2.55-.78-4.78,.2-5.8,2.59-3.82,8.92-7.51,17.91-11.14,26.91-1.03,2.55,.09,4.61,2.39,5.84,2.06,1.1,4.09,.78,6.61-1.69Z"/><path class="cls-1" d="M476.3,453.15c4.22-5.17,9.44-11.51,14.58-17.9,1.89-2.35,1.6-4.8-.58-6.76-2.54-2.27-5.22-1.61-7.24,.71-5.26,6.02-10.35,12.2-15.48,18.34-1.91,2.29-1.92,4.63,.2,6.76,2.44,2.46,4.91,1.76,8.53-1.15Z"/><path class="cls-1" d="M503.56,416.38c4.86-7.43,10.01-15.41,13.31-24.36,.78-2.11-.73-4.05-2.91-5.04-2.53-1.16-4.75-.42-6.04,1.79-4.26,7.27-8.37,14.64-12.38,22.05-1.26,2.33-.52,4.58,1.67,6.11,1.93,1.35,3.93,1.36,6.35-.55Z"/><path class="cls-1" d="M385.56,420.24c2.7-2.17,4.88-4.58,2.59-8.06-2.26-3.45-5.21-2.58-8.22-.65-5.13,3.3-10.37,6.41-15.55,9.62-2.77,1.71-4.63,3.86-2.68,7.25,1.9,3.3,4.71,3.19,7.6,1.52,5.46-3.16,10.84-6.45,16.26-9.68Z"/><path class="cls-1" d="M441.46,447.38c2.42-2.37,4.95-4.64,7.22-7.14,1.94-2.13,2.16-4.64,.07-6.85-2.03-2.16-4.47-2.44-6.75-.4-4.26,3.81-8.47,7.67-12.56,11.65-2.13,2.07-2.1,4.59-.15,6.82,1.79,2.03,4.14,2.22,6.3,.77,2.09-1.41,3.92-3.21,5.86-4.85Z"/><path class="cls-1" d="M469.25,497.79c-93.37,78.8-229.42,87.87-333.09,22.2-15.61-9.89-30.08-21.23-43.5-33.92-2.77-2.62-5.53-5.44-1.79-9.04,3.33-3.19,6.15-.74,8.77,1.65,73.25,66.45,158.45,88.43,254.44,66.4,48.69-11.17,90.83-35.56,126.28-71.05,1.05-1.05,2.17-2.02,3.22-3.08,2.46-2.49,5.36-4.17,8.26-1.26,2.81,2.82,1.38,5.6-1.1,8.29-6.64,7.19-14.08,13.47-21.49,19.81Z"/><path class="cls-1" d="M448.5,481.29c-78.62,63.53-191.87,73.51-280.69,24.84-11.72-6.42-22.9-13.6-33.53-21.68-3.05-2.32-6.22-4.7-3.33-8.72,2.92-4.05,6.32-1.86,9.32,.46,32.14,24.85,68.34,40.79,108.36,47.03,73.69,11.49,139.82-6.36,197.92-53.34,1.32-1.06,2.58-2.21,3.97-3.16,2.27-1.55,4.59-1.15,6.3,.76,1.91,2.13,2.1,4.74-.08,6.82-2.6,2.48-5.48,4.67-8.24,6.98Z"/><path class="cls-1" d="M419.22,468.03c-31.08,21.11-64.07,34.12-100.22,38.66-52.92,6.64-102.31-3.71-148.04-31.27-1.09-.66-2.15-1.35-3.23-2.02-2.98-1.87-5.09-4.31-2.84-7.82,2.23-3.48,5.16-2.61,8.25-.69,16.99,10.53,34.9,19.15,54.22,24.43,64.8,17.73,125.74,9.26,182.44-27.32,.89-.57,1.84-1.05,2.68-1.69,2.92-2.23,6.1-2.79,8.32,.41,2.25,3.23,.53,6.02-1.58,7.32Z"/><path class="cls-1" d="M384.71,456.16c-12.21,6.67-25.41,12.38-39.32,16.3-49.35,13.92-97.21,9.91-143.5-12.22-.96-.46-1.91-.92-2.84-1.43-3.12-1.69-5.25-3.94-3.2-7.64,1.89-3.43,4.83-2.83,7.72-1.39,10.06,5.03,20.42,9.34,31.22,12.49,48.09,14.01,94.61,10,139.53-12.23,1.9-.94,3.8-1.88,5.7-2.79,2.93-1.41,5.5-.86,7.1,1.96,1.53,2.68,.17,4.86-2.42,6.95Z"/><path class="cls-1" d="M350.83,440.75c-9.26,3.92-19.29,6.53-29.51,8.4-32.9,6.01-64.96,3.03-96.08-9.42-1.18-.47-2.43-.85-3.49-1.52-2.18-1.37-3.3-3.46-2.39-5.95,.99-2.73,3.2-3.91,6.09-3.24,1.43,.33,2.77,1.04,4.16,1.56,37.89,14.37,75.99,15.47,114.32,1.8,1.19-.43,2.41-.88,3.65-1.07,2.8-.42,5.15,.37,6.06,3.3,.78,2.53-.25,4.55-2.82,6.14Z"/><path class="cls-1" d="M239.56,415.07c-1.97-2.34-2.21-4.36-1.1-6.41,1.49-2.74,3.96-2.88,6.59-2.07,8.09,2.49,16.29,4.53,24.69,5.61,16.3,2.09,32.46,1.3,48.41-2.81,.82-.21,1.64-.38,2.46-.58,3.39-.81,6.64-.71,7.58,3.35,.9,3.91-1.71,5.76-5.14,6.63-16.32,4.12-32.85,5.64-49.65,3.98-9.92-.99-19.65-2.82-29.15-5.86-1.79-.57-3.5-1.36-4.7-1.83Z"/><path class="cls-1" d="M509.19,457.44c-3.14,3.01-5.78,3.52-8.14,1.26-2.05-1.96-2.17-4.61-.37-6.9,7.95-10.12,15.46-20.54,22.09-31.58,1.53-2.55,4.02-3.92,7.01-2.22,2.58,1.47,3.39,3.88,1.97,6.5-6.59,12.07-14.81,23.03-22.55,32.94Z"/><path class="cls-1" d="M458.88,429.49c-2.15,1.38-4.55,2.42-6.84,.3-2.37-2.2-2.43-4.81-.33-7.34,8.13-9.75,15.72-19.89,22.28-30.79,1.44-2.39,3.95-3.19,6.62-1.59,2.53,1.52,3.51,3.76,2.02,6.46-6.59,11.87-14.87,22.55-23.75,32.96Z"/><path class="cls-1" d="M412.17,422.2c4.25-4.11,8.51-8.2,12.73-12.33,2.37-2.33,5.03-3.56,7.76-.97,2.67,2.53,1.96,5.47-.38,7.83-7.29,7.34-14.54,14.74-23.01,20.8-2.75,1.97-5.64,2.76-7.88-.02-2.46-3.07-.99-5.85,1.89-8.12,2.99-2.35,5.84-4.87,8.75-7.31l.12,.13Z"/><path class="cls-1" d="M543.71,402.4c-2.52,2.47-4.55,2.78-6.61,1.69-2.31-1.23-3.42-3.29-2.39-5.84,3.63-9,7.32-17.99,11.14-26.91,1.03-2.39,3.25-3.37,5.8-2.59,2.21,.67,4.05,2.53,3.51,4.69-2.6,10.49-7.23,20.21-11.45,28.96Z"/><path class="cls-1" d="M476.3,453.15c-3.62,2.91-6.09,3.6-8.53,1.15-2.12-2.13-2.11-4.48-.2-6.76,5.13-6.14,10.22-12.32,15.48-18.34,2.02-2.31,4.71-2.98,7.24-.71,2.18,1.95,2.47,4.41,.58,6.76-5.14,6.4-10.36,12.73-14.58,17.9Z"/><path class="cls-1" d="M503.56,416.38c-2.42,1.91-4.43,1.89-6.35,.55-2.19-1.53-2.93-3.78-1.67-6.11,4.01-7.42,8.12-14.78,12.38-22.05,1.29-2.2,3.51-2.95,6.04-1.79,2.18,1,3.69,2.93,2.91,5.04-3.29,8.95-8.44,16.93-13.31,24.36Z"/><path class="cls-1" d="M385.56,420.24c-5.42,3.23-10.8,6.52-16.26,9.68-2.89,1.67-5.7,1.78-7.6-1.52-1.95-3.39-.09-5.54,2.68-7.25,5.18-3.21,10.43-6.32,15.55-9.62,3.01-1.94,5.96-2.8,8.22,.65,2.29,3.49,.11,5.89-2.59,8.06Z"/><path class="cls-1" d="M441.47,447.38c-1.94,1.63-3.77,3.44-5.86,4.85-2.16,1.45-4.52,1.27-6.3-.77-1.96-2.23-1.98-4.74,.15-6.82,4.09-3.99,8.31-7.84,12.56-11.65,2.28-2.04,4.72-1.76,6.75,.4,2.08,2.21,1.87,4.71-.07,6.85-2.27,2.5-4.8,4.77-7.22,7.14Z"/></g></g><g id="Coaster_OPML_design"><g><path class="cls-2" d="M535.94,344.62c1.44-3.71,5.92-31.52,5.92-31.52,.55-6.85,.83-13.78,.83-20.77,0-140.71-114.07-254.78-254.78-254.78S33.13,151.61,33.13,292.33c0,6.99,.28,13.92,.83,20.77,0,0,7.26,31.08,8.25,31.63"/><path class="cls-2" d="M542.48,343.51c2.77-3.33,7.67-30.41,7.67-30.41,.57-7.07,.86-14.21,.86-21.42,0-145.13-117.65-262.79-262.79-262.79S25.44,146.54,25.44,291.67c0,7.21,.29,14.36,.86,21.42,0,0,4.62,27.2,6.89,30.97"/><path class="cls-7" d="M412.36,312.93c.87-6.14,1.32-12.42,1.32-18.8,0-71.37-56.39-129.23-125.95-129.23s-125.95,57.86-125.95,129.23c0,6.39,.45,12.66,1.32,18.8l-120.05,.05c-.45-6.1-.68-12.26-.68-18.47,0-136.44,110.61-247.04,247.04-247.04s247.04,110.61,247.04,247.04c0,6.2-.23,12.34-.68,18.42"/><path class="cls-4" d="M161.5,312.91c-.87-6.13-1.32-12.4-1.32-18.78,0-71.29,56.39-129.07,125.95-129.07s125.95,57.79,125.95,129.07c0,6.38-.45,12.65-1.32,18.78"/><path class="cls-2" d="M557,344.2c1.91-1.86,7.79-31.18,7.79-31.18l.17,.07c.6-7.47,.91-15.03,.91-22.66,0-153.53-124.46-277.99-277.99-277.99S9.9,136.91,9.9,290.43c0,7.63,.31,15.19,.91,22.66,0,0,3.26,28.75,4.97,30.58"/><path class="cls-2" d="M551.02,343.89c1.77-3.88,6.88-30.8,6.88-30.8,.59-7.26,.88-14.6,.88-22.01,0-149.11-120.88-269.99-269.99-269.99S18.8,141.97,18.8,291.09c0,7.41,.3,14.75,.88,22.01,0,0,4.03,29.52,4.75,31.63"/><g><path class="cls-11" d="M544.2,345.2c-.03-1.03-.18-2.08,.24-3.05"/><path class="cls-14" d="M545.11,345.2c-.02-.72-.1-1.44,0-2.15l-.03,.24c.04-.31,.12-.61,.24-.9,.08-.2,.01-.52-.09-.7-.11-.19-.33-.37-.55-.42-.23-.05-.5-.04-.7,.09s-.32,.31-.42,.55c-.44,1.04-.3,2.19-.27,3.29,.01,.48,.41,.93,.91,.91s.93-.4,.91-.91h0Z"/></g><g><path class="cls-11" d="M558.19,345.27c-5.38-1.32-10.76-2.63-16.14-3.95-.35-.09-.71-.17-1.08-.08-.54,.14-.95,.63-1.29,1.11-.57,.81-1.04,1.7-1.4,2.62"/><path class="cls-14" d="M558.43,344.39c-4.23-1.03-8.46-2.07-12.68-3.1-1.03-.25-2.05-.5-3.08-.75-.81-.19-1.65-.4-2.42,.01-1.45,.76-2.26,2.74-2.85,4.18-.44,1.09,1.32,1.56,1.76,.48,.3-.74,.67-1.46,1.12-2.13,.17-.25,.35-.59,.61-.77,.52-.37,1.13-.06,1.68,.08l5,1.22c3.46,.85,6.92,1.69,10.38,2.54,1.14,.28,1.63-1.48,.48-1.76h0Z"/></g><path class="cls-6" d="M313.47,167.36c.55,.33,12.53,3.04,14.74,5.1l37.8-111.18s-18.89-8.36-31.34-8.47l-21.2,114.55Z"/><path class="cls-6" d="M345.26,180s12.36,6.87,13.28,8.76,63.78-101.65,63.78-101.65c0,0-20.17-13.08-27.27-14.96l-49.79,107.86Z"/><path class="cls-6" d="M382.14,210.68l87.51-82.44s-18.73-19.29-21.39-20.17l-76.37,92.34s8.73,6.83,9.78,9.8l.48,.48Z"/><path class="cls-6" d="M393.33,224.57s7.15,14.05,6.9,14.72l106.08-57.36s-8.65-16.29-16.96-27.02l-96.02,69.67Z"/><path class="cls-6" d="M408.35,256.6s3.1,12.64,2.66,14.3l117.61-26.38s-3.55-21.73-9.42-29.71l-110.85,41.79Z"/><path class="cls-6" d="M229.33,178.77s-12.24,6.79-13.15,8.66-63.16-100.49-63.16-100.49c0,0,19.98-12.93,27-14.79l49.31,106.63Z"/><path class="cls-6" d="M192.45,209.35L104.94,126.91s18.73-19.29,21.39-20.17l76.37,92.34s-8.73,6.83-9.78,9.8l-.48,.48Z"/><path class="cls-6" d="M173.86,237.68l-105.58-57.09s8.65-16.29,16.96-27.02l96.02,69.67s-5.34,10.5-6.63,13.78l-.77,.67Z"/><path class="cls-6" d="M166.24,255.27s-3.1,12.64-2.66,14.3l-117.61-26.38s3.55-21.73,9.42-29.71l110.85,41.79Z"/><path class="cls-6" d="M279.19,165.71s13.38-.98,16.54,0l7.07-117.21s-21.53-1.97-31.26,0l7.65,117.21Z"/><path class="cls-6" d="M246.68,172.47s12.97-4.35,15.8-4.52l-22.78-116.14s-13.3,3.02-30.93,8.98l37.91,111.68Z"/><g><path class="cls-19" d="M253.09,189.27c.63-2.83,3.21-4.92,6-5.7s5.77-.45,8.61,.12c.98,.2,1.98,.43,2.78,1.02s1.36,1.63,1.09,2.59c-.16,.59-.59,1.06-1.04,1.46-.97,.88-2.1,1.59-3.33,2.07"/><path class="cls-8" d="M254.85,189.76c.94-3.84,5.23-4.95,8.69-4.79,1.12,.05,2.22,.21,3.32,.42,.81,.16,1.86,.26,2.53,.79,.7,.56,.28,.91-.27,1.4-.7,.62-1.54,1.14-2.41,1.5-.91,.37-1.56,1.21-1.27,2.24,.24,.86,1.33,1.65,2.24,1.27,2.65-1.08,6.57-3.38,5.63-6.83s-4.79-3.87-7.69-4.25c-3.12-.41-6.33-.27-9.19,1.15-2.45,1.22-4.45,3.43-5.1,6.12-.56,2.28,2.96,3.25,3.52,.97h0Z"/></g><g><path class="cls-9" d="M269.63,199.5l7.39,15.35c.98,2.04,1.98,4.11,3.44,5.84s3.47,3.12,5.73,3.37c2.19,.25,4.39-.6,6.2-1.84s3.33-2.87,4.9-4.41c3.91-3.85,8.24-7.25,12.58-10.6,2.81-2.17,5.86-4.41,9.4-4.64,3.17-.2,6.28,1.31,8.55,3.53s3.76,5.1,4.93,8.05c2.13,5.38,3.25,11.28,2.34,16.99s-4.01,11.22-8.93,14.29c.22-3.33,2.17-6.28,3.03-9.5,1.44-5.41-.51-11.57-4.8-15.17l-.67-1.54c-.64,1.31-1.3,2.71-1.16,4.16,.12,1.3,.87,2.45,1.43,3.64,1.21,2.57,1.58,5.47,1.53,8.31-.03,1.5-.18,3.02-.79,4.39s-1.74,2.57-3.2,2.95l-.05-3.88-.49-.1-3.26,3.93c-.97,1.16-1.94,2.35-2.56,3.72-.69,1.53-.92,3.27-1.84,4.68-1.1,1.69-3.03,2.65-4.36,4.16-.99,1.12-1.69,2.56-2.98,3.32-1.2,.71-2.69,.68-4.08,.52s-2.8-.42-4.17-.13c-.3,.07-.61,.17-.8,.4-.16,.2-.22,.45-.28,.7-.62,2.82-1.25,5.65-1.87,8.47l.3,.22c-1.89,2.03-2.27,5.29-.9,7.7-1.14,.52-2.31,.97-3.51,1.36-.26,.08-.56,.16-.81,.04-.31-.15-.41-.54-.46-.89-.34-2.01-.67-4.1-.1-6.05,.27-.91,.72-1.75,.94-2.67s.17-1.98-.47-2.68c-.36-.39-.97-.62-1.41-.33-.28,.18-.4,.51-.52,.82-1.24,3.42-2.49,6.88-2.94,10.48-.06,.5-.14,1.05-.52,1.38-.37,.31-.91,.32-1.39,.27-1.18-.1-2.34-.36-3.45-.76,2.03-2.62,3.59-5.6,4.6-8.76,.27-.84,.5-1.71,.44-2.59-.09-1.41-.91-2.66-1.7-3.84-1.85-2.75-3.69-5.5-5.54-8.25l1.26-.5c-5.97-1.48-12.15-3.87-15.7-8.87-2.43-3.42-3.35-7.71-3.59-11.9s.13-8.39-.02-12.58c-.11-3.08-.48-6.26,.54-9.17,.8-2.28,2.38-4.19,3.43-6.37s1.49-4.95,.03-6.88c.33,1.41,.69,2.89,1.69,3.93s2.87,1.4,3.87,.35c.7-.74,.74-1.91,.43-2.88s-.92-1.81-1.4-2.71c-1.24-2.31-1.64-4.98-2.81-7.32s-3.59-4.45-6.16-3.94c-1.4,.28-2.53,1.26-3.55,2.24s-2.05,2.04-3.38,2.54-3.08,.24-3.8-.97c.53,1.48,1.61,2.76,2.99,3.54-1.09,2.08-2.18,4.15-3.27,6.23l5.14-.67c-.52,2.19-1.04,4.42-.86,6.66s1.16,4.54,3.07,5.75c-1.15-.76-1.39-2.4-.96-3.7s1.39-2.35,2.28-3.39,1.77-2.19,1.98-3.54c.21-1.27-.19-2.63,.3-3.81,.51-1.23,1.93-2.44,1.26-3.6-.35-.6-1.11-.78-1.76-1.04s-1.33-.84-1.15-1.51c.17-.67,1.02-.85,1.71-.91,2.06-.18,4.11-.35,6.17-.53"/><path class="cls-10" d="M268.84,199.96c1.97,4.09,3.94,8.19,5.91,12.28,1.69,3.5,3.18,7.51,6.12,10.19,2.62,2.38,6.04,3.23,9.39,1.94,3.75-1.45,6.34-4.71,9.2-7.38,3.21-3,6.65-5.73,10.12-8.42,3.08-2.39,6.54-5.28,10.67-5.1,8.5,.39,12.34,10.99,13.69,17.94,1.65,8.53-.54,18.31-8.25,23.23l1.37,.79c.26-3,1.86-5.63,2.76-8.46,.75-2.35,.91-4.81,.53-7.24s-1.32-4.76-2.73-6.75c-.69-.98-1.58-1.72-2.32-2.63-.36-.44-.56-1.04-.8-1.59-.27-.62-1.3-.58-1.58,0-.86,1.78-1.65,3.63-1.11,5.63,.51,1.88,1.69,3.49,2.2,5.4,.91,3.43,1.69,10.62-2.73,12.01l1.15,.88-.05-3.88c0-.38-.28-.8-.67-.88l-.49-.1c-.3-.06-.68-.02-.89,.23-2.37,2.86-5.29,5.65-6.51,9.24-.63,1.86-1.15,3.42-2.67,4.76-1.21,1.06-2.48,1.97-3.47,3.26-1.27,1.67-2.24,2.92-4.53,2.89-1.89-.02-3.8-.66-5.68-.18-1.74,.44-1.8,2.11-2.13,3.62-.48,2.2-.97,4.39-1.45,6.59-.1,.43,.07,.78,.42,1.03l.3,.22-.18-1.43c-2.15,2.46-2.58,5.91-1.05,8.8l.33-1.25c-.93,.42-1.88,.77-2.84,1.12-.29,.1-.44,.22-.57,.07-.18-.2-.16-.93-.2-1.21-.25-1.71-.33-3.41,.27-5.06,.67-1.87,1.91-5.76-1.19-6.34-1.17-.22-1.84,.6-2.22,1.58-.63,1.62-1.19,3.28-1.7,4.94s-.93,3.35-1.18,5.07c-.04,.25-.02,.83-.16,1.08-.35,.57-1.06,.38-1.57,.3-.88-.13-1.73-.37-2.57-.66l.55,1.34c1.4-1.84,2.59-3.82,3.53-5.93,.82-1.85,1.81-4.02,1.61-6.09-.21-2.17-1.73-3.99-2.91-5.74-1.48-2.2-2.95-4.4-4.43-6.6l-.55,1.34,1.26-.5c.78-.31,.95-1.52,0-1.76-3.91-.98-7.82-2.27-11.16-4.59-3.59-2.48-5.8-6.11-6.78-10.33-1.09-4.72-.72-9.61-.67-14.41s-1.01-9.56,1.26-13.79c1.96-3.64,5.47-8.07,2.59-12.23-.58-.84-1.91-.34-1.67,.7,.42,1.8,.98,3.84,2.63,4.9,1.34,.86,3.28,.99,4.46-.22,1.28-1.31,.96-3.29,.24-4.79-.54-1.11-1.24-2.11-1.7-3.27-.4-1.02-.7-2.07-1.05-3.1-1.13-3.39-3.51-7.65-7.72-7.29-1.98,.17-3.48,1.52-4.84,2.84-1.19,1.14-3.96,3.63-5.47,1.49-.55-.78-2.07-.33-1.67,.7,.68,1.74,1.8,3.11,3.41,4.08l-.33-1.25c-1.09,2.08-2.18,4.15-3.27,6.23-.28,.54,.05,1.47,.79,1.37l5.14-.67-.88-1.15c-1.09,4.62-1.91,10.35,2.62,13.44,.99,.68,1.83-.88,.92-1.58-2.36-1.8,1.09-5.08,2.17-6.48,.77-1,1.41-2.09,1.58-3.36,.19-1.44-.2-2.82,.59-4.12,1.03-1.69,1.91-3.7-.41-4.8-.26-.12-1.57-.47-1.45-.88,.08-.27,1.95-.27,2.14-.29,1.58-.14,3.16-.27,4.75-.41,1.16-.1,1.17-1.92,0-1.82-1.9,.16-3.8,.31-5.7,.49-1.12,.1-2.47,.21-2.97,1.4s.44,2.27,1.48,2.76c.83,.39,1.75,.47,1.24,1.56-.3,.64-.79,1.18-1.07,1.83-.68,1.56-.03,3.26-.6,4.82s-2.02,2.77-3,4.14c-1.5,2.1-1.95,5.01,.32,6.74l.92-1.58c-3.73-2.55-2.65-7.7-1.78-11.38,.12-.51-.26-1.24-.88-1.15l-5.14,.67,.79,1.37c1.09-2.08,2.18-4.15,3.27-6.23,.23-.44,.11-.98-.33-1.25-1.17-.71-2.07-1.71-2.57-2.99l-1.67,.7c1.72,2.44,4.83,1.83,6.89,.19,1.34-1.06,2.42-2.59,4-3.31,1.76-.79,3.51,.09,4.73,1.39,2.46,2.63,2.65,6.68,4.41,9.74,.6,1.05,2.33,4.46-.33,4.26-2.02-.15-2.55-2.66-2.92-4.23l-1.67,.7c2.78,4.04-2.02,8.54-3.41,12.14-.83,2.13-.92,4.45-.85,6.71,.08,2.49,.19,4.96,.15,7.46-.15,8.84-.25,18.51,7.46,24.43,3.65,2.8,8.09,4.34,12.51,5.44v-1.76l-1.26,.5c-.51,.2-.9,.8-.55,1.34,1.29,1.92,2.59,3.85,3.88,5.77,1.11,1.65,2.85,3.55,3.18,5.56s-.88,4.32-1.7,6.04c-.87,1.83-1.94,3.54-3.17,5.15-.38,.5,.05,1.17,.55,1.34,1.37,.47,3.21,1.06,4.67,.76s1.69-1.5,1.88-2.76c.27-1.8,.72-3.56,1.26-5.3,.28-.91,.59-1.81,.9-2.71,.16-.45,.32-.9,.48-1.34,.18-.49,.33-1.05,.81-.46,.85,1.04-.74,3.51-.98,4.58-.36,1.59-.23,3.22,0,4.82,.17,1.16,.24,2.73,1.71,2.88s3.32-.97,4.62-1.55c.46-.21,.54-.85,.33-1.25-1.13-2.13-.83-4.77,.76-6.59,.41-.47,.31-1.08-.18-1.43l-.3-.22,.42,1.03c.45-2.04,.9-4.08,1.35-6.12,.17-.78,.19-2.42,.96-2.82s2.39-.03,3.23,.07c1.62,.2,3.34,.36,4.87-.37s2.28-2.13,3.29-3.36,2.37-2.07,3.51-3.16,1.83-2.45,2.34-3.97c.63-1.92,1.36-3.49,2.64-5.07s2.52-3.05,3.79-4.57l-.89,.23,.49,.1-.67-.88,.05,3.88c0,.57,.58,1.06,1.15,.88,4.41-1.39,4.88-6.55,4.6-10.47-.16-2.26-.64-4.47-1.6-6.52-.46-.98-1.11-1.94-1.28-3.03-.21-1.36,.44-2.66,1.01-3.85h-1.58c.21,.48,.36,1.07,.65,1.5,.59,.89,1.6,1.55,2.26,2.42,1.46,1.94,2.42,4.27,2.76,6.67,.37,2.55-.05,5.01-.95,7.4-.97,2.57-2.16,4.99-2.41,7.76-.06,.69,.82,1.14,1.37,.79,6.32-4.04,9.57-11.36,9.69-18.71,.07-4.35-.85-8.69-2.36-12.75-1.34-3.61-3.13-7.26-6.08-9.84s-6.53-3.83-10.25-3.03-7.03,3.61-10.07,5.97c-3.59,2.79-7.13,5.65-10.4,8.81-2.92,2.83-6.27,6.96-10.82,6.49-4.86-.51-7.11-5.82-8.95-9.64l-6.97-14.47c-.51-1.06-2.08-.13-1.58,.92h0Z"/></g><path class="cls-16" d="M327.12,218.51l.8,2.57c.14,.45,.29,.92,.65,1.23,.59,.5,1.56,.34,2.09-.21s.71-1.38,.65-2.16c-.1-1.29-.75-2.47-1.55-3.48-2.01-2.54-4.97-4.15-8-5.27-3.22-1.19-6.72-1.89-10.09-1.28-.34,.28-.35,.83-.12,1.21s.62,.63,1,.84c2.46,1.36,5.23,2.02,7.91,2.85s5.39,1.92,7.35,3.93"/><path class="cls-16" d="M302.89,215.13c-.91,1.02-1.49,2.32-1.65,3.67,3.54-.59,7.18-.32,10.67,.51,1.32,.31,2.66,.72,3.72,1.56,1.27,1.01,2.08,2.59,3.52,3.33,.26-.8,.88-1.43,1.39-2.1s.96-1.5,.78-2.33c-.12-.55-.49-1.01-.86-1.43-2.18-2.43-4.98-4.41-8.16-5.13s-6.77-.02-9.14,2.23l-.27-.32Z"/><path class="cls-16" d="M263.75,232.63c-.42,0-.8-.27-1.03-.61s-.36-.75-.46-1.15c-.33-1.31-.5-2.7-.19-4.02s1.18-2.56,2.44-3.05c.47-.18,1-.28,1.33-.66,.31-.36,.34-.88,.36-1.36,.07-2.57,.05-5.15-.05-7.72,.92-.05,1.84-.09,2.77-.14,.12,0,.25,0,.35,.06,.12,.09,.15,.25,.16,.39,.11,.89,.22,1.78,.33,2.67,.11-.84,.44-1.65,.95-2.32,.9,1.09,1.97,2.04,3.16,2.8,.52,.33,1.07,.63,1.5,1.07s.76,1.03,.69,1.65c-.07,.63-.52,1.14-.95,1.6-.65,.69-1.3,1.39-1.95,2.08-.26,.28-.55,.57-.93,.62-.49,.06-.96-.31-1.45-.25-.49,.06-.82,.52-1.08,.93-1.72,2.71-3.45,5.42-5.17,8.13l-.78-.73Z"/><path class="cls-16" d="M269.4,234.01c-.36,.36-.45,.89-.49,1.4-.3,3.69,1.48,7.47,4.5,9.61s7.18,2.54,10.56,1.03c-2.72-1.63-5.45-3.28-7.89-5.32s-4.57-4.51-5.8-7.44l-.88,.72Z"/><path class="cls-16" d="M286.19,236.94c-.76,.15-1.54-.05-2.3,.01s-1.62,.54-1.65,1.31c-.01,.36,.16,.69,.33,1.01,.48,.88,.95,1.76,1.43,2.65,.32,.59,.65,1.2,1.16,1.63,.65,.55,1.52,.76,2.37,.91,2.44,.43,4.97,.5,7.38-.09s4.68-1.89,6.19-3.86c.31-.41,.61-.92,.45-1.41-.14-.43-.6-.69-1.05-.73s-.9,.08-1.33,.2c-2.03,.55-4.12,.93-6.23,.92s-4.23-.43-6.09-1.4l-.65-1.15Z"/><path class="cls-16" d="M251.49,193.72c.62-.48,.76-1.44,1.42-1.86l.56-.52c.07-.11,.24-.05,.34,.02,.43,.32,.74,.78,.94,1.28s.29,1.04,.33,1.57c.04,.55,.03,1.12-.14,1.64-.19,.58-.58,1.11-1.12,1.4s-1.22,.32-1.76,.03-.88-.93-.78-1.53l.22-2.03Z"/><path class="cls-16" d="M279.32,252.21c.22,.95,.36,1.93,.67,2.85s.83,1.82,1.63,2.37c.63,.43,1.47,.61,2.15,.28,.4-.19,.7-.54,.95-.9,.2-.3,.39-.63,.42-.98,.05-.54-.25-1.05-.54-1.51-.48-.76-.96-1.53-1.43-2.29-.17-.28-.36-.57-.66-.69-.3-.12-.63-.06-.95,.02-.55,.14-1.09,.31-1.62,.52l-.62,.35Z"/><path class="cls-16" d="M286.87,254.88c-.45-.48-.88-.98-1.2-1.56s-.51-1.23-.48-1.89,.32-1.31,.84-1.72c.41-.32,.94-.47,1.46-.51s1.04,.03,1.56,.11c.51,.07,1.05,.16,1.42,.52,.32,.31,.46,.76,.53,1.2,.12,.8,.07,1.62,.01,2.42-.02,.29-.05,.6-.23,.83-.15,.18-.36,.27-.58,.34-.82,.26-1.74,.25-2.5,.66"/><path class="cls-16" d="M286.26,255.47c-.28,.38-.26,.9-.22,1.37,.04,.5,.08,1.02,.3,1.47,.21,.43,.58,.78,.97,1.06,.3,.21,.62,.39,.98,.47s.75,.05,1.06-.15c.28-.17,.48-.46,.62-.76,.16-.33,.29-.69,.27-1.06-.03-.67-.51-1.26-1.09-1.6s-1.26-.47-1.92-.59l-.96-.21Z"/><path class="cls-16" d="M300.68,251.98c-.1,.38-.25,.74-.44,1.08"/><path class="cls-16" d="M299.71,253.92c-.21,.37-.59,.61-.93,.87s-.67,.6-.7,1.03c-.04,.41,.22,.8,.57,1.03s.76,.31,1.17,.35c1.85,.2,3.77-.35,5.24-1.51,.52-.41,1.02-.97,1.05-1.63,.02-.45-.18-.87-.29-1.31-.27-1.05-.04-2.16,.19-3.23,.22-1.04,.47-2.13,1.16-2.95,.39-.46,.89-.8,1.37-1.17s.94-.79,1.2-1.33,.26-1.24-.13-1.7c-.38-.44-1.02-.56-1.59-.49s-1.12,.28-1.69,.39c-1,.19-2.05,.04-3.01,.39-1.57,.57-2.46,2.32-4,2.99-.65,.29-1.45,.4-1.86,.98-.38,.53-.29,1.28-.03,1.89,.4,.96,1.17,1.75,2.12,2.19l.19,3.2Z"/><path class="cls-16" d="M293.76,246.19c-.74,.2-1.37,.76-1.67,1.47-.04,.1-.07,.2-.07,.3,0,.09,.04,.17,.07,.25,.13,.34,.28,.7,.56,.94,.23,.2,.54,.29,.83,.38,.35,.1,.72,.19,1.07,.07,.25-.09,.45-.29,.63-.49,.2-.23,.38-.49,.53-.75,.08-.14,.15-.28,.18-.43,.03-.18,0-.36-.05-.53-.13-.4-.44-.74-.82-.93-.2-.1-.4-.11-.61-.18-.25-.08-.38-.17-.66-.09Z"/><path class="cls-16" d="M309.98,236.78c-.18-.11-.41-.1-.61-.03s-.38,.19-.55,.31c-.09,.06-.19,.13-.25,.22-.07,.1-.1,.23-.12,.36-.03,.22-.05,.45-.01,.67,.08,.43,.4,.8,.79,1s.84,.25,1.28,.21c.77-.08,1.48-.44,2.18-.77,1.31-.63,2.7-1.21,4.16-1.21,.12,0,.25,0,.35-.07,.08-.05,.13-.15,.17-.23,.14-.28,.29-.59,.22-.9-.1-.44-.58-.65-1-.8-.3-.1-.6-.21-.92-.24-.75-.09-1.49,.17-2.22,.34-.63,.14-1.27,.21-1.89,.37-.4,.1-.78,.24-1.17,.37-.24,.08-.48,.17-.72,.25"/><path class="cls-16" d="M314.48,226.96c-.42-.17-.91-.12-1.34,.05s-.8,.45-1.15,.73c-.27,.22-.55,.45-.72,.75-.24,.43-.24,.97-.09,1.44s.44,.88,.75,1.27c.27,.34,.57,.66,.95,.88,.49,.28,1.07,.36,1.63,.41,.43,.03,.88,.05,1.28-.1,1.12-.41,1.5-1.84,2.51-2.47,.34,1.17,.69,2.34,1.03,3.51,.03,.1,.06,.2,.13,.27,.08,.08,.21,.11,.33,.13,.86,.17,1.79,.32,2.56-.08,.43-.23,.76-.6,1.08-.97,.23-.27,.48-.58,.44-.94-.04-.33-.33-.57-.54-.84-.25-.31-.39-.7-.55-1.06-.48-1.12-1.09-2.21-2.01-3.02s-2.17-1.29-3.37-1.07c-1,.19-1.9,.85-2.92,.89-.09,0-.18,0-.27,0"/><path class="cls-16" d="M293.91,227.81c-.09,.42-.16,.88,.05,1.26,.25,.44,.81,.59,1.32,.59,1.18-.01,2.25-.67,3.19-1.39,.4-.31,.85-.66,1.36-.63,.49,.03,.88,.41,1.33,.62,.66,.3,1.43,.2,2.14,.05,.85-.18,1.74-.45,2.29-1.13,.12-.15,.22-.32,.22-.51,0-.1-.03-.2-.07-.29-.27-.63-.89-1.02-1.39-1.48-.68-.63-1.19-1.44-1.95-1.97-.26-.18-.55-.32-.86-.36-.25-.03-.5,.02-.75,.07-1.19,.25-2.36,.6-3.48,1.05-.52,.21-1.04,.44-1.49,.78-1.06,.77-1.64,2.09-1.9,3.34Z"/><path class="cls-16" d="M307.48,219.42c-.5-.36-1.17-.37-1.79-.36-.18,0-.36,0-.52,.08-.17,.08-.29,.23-.4,.39-.3,.45-.48,.96-.54,1.5-.01,.11-.02,.22,.02,.33,.04,.12,.13,.22,.22,.31,.19,.18,.39,.34,.61,.48,.69,.42,1.58,.58,2.33,.25,.35-.15,.71-.41,1.08-.3,.37,.11,.54,.53,.65,.9,.1,.33,.2,.65,.3,.98,.03,.1,.07,.21,.14,.29,.09,.09,.23,.12,.35,.13,.37,.03,.74-.09,1.09-.21,.52-.18,1.04-.4,1.47-.76,.31-.25,.57-.66,.43-1.03-.08-.21-.27-.35-.45-.49-.85-.65-1.62-1.41-2.58-1.88-.88-.44-1.87-.61-2.84-.78"/><path class="cls-15" d="M501.5,276.29c10.55,0,19.1,8.55,19.1,19.1s-8.55,19.1-19.1,19.1H73.51c-10.55,0-19.1-8.55-19.1-19.1s8.55-19.1,19.1-19.1H501.5Z"/><g><path class="cls-13" d="M117.05,304.71c0,.26-.13,.38-.38,.38-.18,0-.46-.02-.83-.05-.37-.03-.65-.05-.84-.05s-.47,.01-.84,.05c-.38,.03-.66,.05-.84,.05-.26,0-.38-.17-.38-.51,0-1.3,.04-3.24,.12-5.84,.08-2.59,.12-4.54,.12-5.84,0-.19-.04-.29-.12-.29-.09,0-.16,.06-.21,.17-.52,1.11-1.75,4.09-3.69,8.92-.32,.93-.77,2.09-1.36,3.48-.07,.13-.44,.2-1.1,.2-.96,0-1.49-.09-1.59-.26-.35-.83-.84-1.99-1.49-3.48-.85-2.02-2.15-5.04-3.91-9.04-.03-.07-.1-.14-.2-.22-.08,.06-.12,.17-.12,.34,0,1.32,.02,3.29,.07,5.93,.05,2.64,.07,4.61,.07,5.93,0,.34-.13,.51-.38,.51-.17,0-.44-.02-.8-.05-.36-.03-.62-.05-.8-.05-.18,0-.46,.01-.82,.05-.36,.03-.64,.05-.82,.05-.26,0-.38-.1-.38-.29,0-1.13,.05-2.83,.16-5.09,.11-2.26,.16-3.96,.16-5.09s-.05-2.94-.16-5.29c-.11-2.35-.16-4.12-.16-5.29,0-.19,.12-.31,.35-.34,1.39-.18,2.44-.28,3.14-.28,.1,0,.25,.21,.43,.63,2.47,5.43,4.6,10.29,6.37,14.56,.42,1,.67,1.5,.75,1.5,.1,0,.32-.41,.66-1.23,1.39-3.31,3.31-8.22,5.78-14.74,.15-.4,.32-.6,.51-.6,.35,0,.87,.02,1.57,.06,.7,.04,1.22,.06,1.57,.06,.26,0,.38,.12,.38,.37,0,1.17-.04,2.94-.11,5.29-.08,2.35-.12,4.12-.12,5.29s.04,2.81,.13,5.06c.09,2.25,.13,3.93,.13,5.04Z"/><path class="cls-13" d="M150.66,283.94c0,1.19-.05,2.96-.15,5.32-.1,2.36-.15,4.14-.15,5.32,0,.39,0,.97,.02,1.74,0,.77,.02,1.35,.02,1.72,0,2.14-.2,3.62-.6,4.44-.61,1.27-1.8,2.12-3.57,2.57-1.08,.28-2.61,.41-4.58,.41-3.58,0-5.92-.59-7.03-1.78-.86-.92-1.29-2.76-1.29-5.52,0-.34,0-.91,.02-1.71,0-.8,.02-1.43,.02-1.89,0-1.21-.05-3.43-.15-6.67,0-.84-.05-2.09-.14-3.75-.01-.12-.02-.2-.02-.25,0-.21,.13-.32,.4-.32,.42,0,.99,0,1.7,.01,.83,0,1.39,.01,1.69,.01,.23,0,.35,.09,.35,.28,0,1.55-.03,3.89-.1,7-.07,3.12-.1,5.45-.1,7,0,1.76,.39,2.95,1.18,3.57,.67,.55,1.92,.83,3.72,.83,1.64,0,2.81-.22,3.51-.67,.88-.56,1.32-1.61,1.32-3.16s-.03-4.04-.08-7.27c-.05-3.23-.08-5.66-.08-7.27,0-.16,.15-.27,.44-.31,.21-.03,.52-.03,.92,0,.47,.04,.69,.06,.67,.06,.18,0,.46-.01,.84-.05,.37-.03,.65-.05,.83-.05,.26,0,.38,.11,.38,.34Z"/><path class="cls-13" d="M178.35,285.15c-.2,.34-.49,.85-.84,1.53-.11,.32-.31,.77-.6,1.35-.06,.09-.14,.14-.25,.14,0,0-.48-.18-1.48-.54-1-.36-1.82-.54-2.46-.54-1.88,0-2.82,.83-2.82,2.48,0,.92,.66,1.72,1.98,2.41,2.22,1.15,3.44,1.82,3.68,1.99,1.32,1.05,1.98,2.47,1.98,4.26,0,2.29-.9,4.09-2.71,5.41-1.62,1.19-3.62,1.78-5.99,1.78-1.1,0-1.7-.12-1.78-.37-.04-.39-.13-.95-.28-1.7-.08-.31-.21-.77-.38-1.38-.03-.09-.05-.18-.05-.26,0-.14,.08-.21,.23-.21,.25,0,.62,.03,1.13,.08,.51,.05,.89,.08,1.14,.08,3.17,0,4.75-1.02,4.75-3.06,0-1-.64-1.87-1.92-2.6-2.33-1.33-3.52-2.02-3.57-2.07-1.29-1.04-1.93-2.44-1.93-4.2,0-1.9,.62-3.42,1.87-4.57,1.22-1.1,2.79-1.65,4.72-1.65,.82,0,1.76,.13,2.82,.4,1.15,.3,2.02,.65,2.6,1.07,.05,.04,.1,.11,.15,.2Z"/><path class="cls-13" d="M197.75,304.78c0,.22-.15,.32-.44,.32-.18,0-.47-.02-.84-.05-.38-.03-.66-.05-.84-.05-.19,0-.48,.01-.86,.05-.38,.03-.66,.05-.84,.05-.26,0-.38-.12-.38-.35,0-1.16,.05-2.92,.16-5.26,.11-2.34,.16-4.1,.16-5.28s-.05-2.84-.16-5.11c-.11-2.27-.16-3.98-.16-5.11,0-.26,.12-.38,.35-.38,.19,0,.49,.01,.89,.05s.7,.05,.9,.05c.18,0,.46-.01,.83-.05s.64-.05,.83-.05c.27,0,.4,.1,.4,.31,0,1.14-.04,2.86-.12,5.15-.08,2.29-.12,4-.12,5.15s.04,2.94,.13,5.29c.09,2.35,.13,4.11,.13,5.29Z"/><path class="cls-13" d="M230.67,301.56c0,.12-.1,.3-.29,.52-1.99,2.31-4.46,3.46-7.4,3.46s-5.52-1.12-7.35-3.36c-1.72-2.08-2.57-4.69-2.57-7.81s.87-5.74,2.62-7.84c1.86-2.27,4.32-3.4,7.37-3.4s5.49,1.05,7.19,3.14c.16,.22,.25,.39,.25,.54,0,.17-.27,.69-.81,1.54-.54,.85-.87,1.28-.98,1.28-.13,0-.44-.25-.93-.75-.6-.61-1.17-1.07-1.7-1.38-.88-.5-1.85-.75-2.91-.75-2.02,0-3.6,.77-4.72,2.31-1,1.38-1.5,3.11-1.5,5.21s.5,3.85,1.49,5.26c1.12,1.58,2.69,2.37,4.7,2.37,1,0,1.97-.25,2.9-.75,.61-.33,1.24-.79,1.87-1.39,.53-.5,.82-.75,.87-.75,.06,0,.4,.41,1.01,1.22,.61,.81,.92,1.26,.92,1.34Z"/></g><g><path class="cls-13" d="M350.72,301.77c0,1.43-.08,2.45-.23,3.05-.07,.3-.25,.44-.54,.44-.76,0-1.89-.04-3.4-.13-1.51-.09-2.65-.13-3.4-.13-.72,0-1.78,.01-3.2,.05-1.42,.03-2.49,.05-3.2,.05-.26,0-.38-.13-.38-.38,0-1.11,.04-2.79,.11-5.04,.08-2.25,.12-3.93,.12-5.06,0-1.19-.05-2.96-.16-5.32-.11-2.36-.16-4.14-.16-5.32,0-.23,.13-.34,.38-.34,.18,0,.46,.02,.84,.05s.66,.05,.86,.05c.18,0,.47-.02,.86-.05s.67-.05,.86-.05c.25,0,.37,.1,.37,.29,0,1.08-.04,2.71-.12,4.89-.08,2.18-.12,3.81-.12,4.9v2.42c0,1.08-.02,1.89-.02,2.42,0,2.27,.09,3.4,.28,3.4,3.77,0,6.61-.09,8.53-.28,.09-.01,.33-.05,.7-.11,.31-.06,.54-.09,.7-.09,.21,0,.32,.1,.32,.29Z"/><path class="cls-13" d="M376.79,302.02c0,.16-.04,.4-.12,.71-.09,.39-.15,.62-.17,.7-.03,.37-.1,.9-.21,1.61-.05,.18-.18,.28-.4,.28-.1,0-.3-.02-.58-.06-1.26-.18-3.2-.28-5.84-.28-.75,0-1.87,.02-3.37,.06-1.5,.04-2.63,.06-3.37,.06-.34,0-.51-.15-.51-.44,0-1.14,.06-2.86,.19-5.16,.13-2.29,.19-4.01,.19-5.16s-.06-3.34-.18-6.51c-.02-.82-.08-2.04-.17-3.66v-.21c-.03-.24,.11-.35,.38-.35,.72,0,1.79,.02,3.22,.06,1.43,.04,2.5,.06,3.22,.06s1.71-.02,3.07-.06c1.36-.04,2.39-.06,3.07-.06,.48,0,.74,.15,.78,.44,.22,1.35,.32,2.19,.32,2.51,0,.24-.11,.35-.34,.35-.87,0-2.18-.05-3.95-.15-1.76-.1-3.09-.15-3.98-.15-.84,0-1.37,.11-1.59,.34s-.33,.78-.33,1.67v2.28c0,.62,.02,.99,.05,1.09,.09,.32,.36,.47,.8,.47,.12,0,.3,0,.52-.02h.52c2,0,3.8-.04,5.39-.11,.62-.02,1.36-.07,2.21-.15,.22-.02,.32,.07,.32,.28,0,.33-.04,.83-.11,1.5-.08,.67-.11,1.18-.11,1.52,0,.18-.15,.28-.46,.28-.12,0-.58-.04-1.36-.11-.57-.06-1.86-.09-3.86-.09-1.69,0-2.75,.02-3.2,.06-.41,.03-.64,.25-.71,.64,.01-.07,.02,.32,.02,1.18v2.27c0,1.06,.16,1.73,.49,1.99,.26,.22,.89,.32,1.92,.32l1.68-.02c.72,0,2.72-.12,6.02-.37h.23c.2-.04,.31,.09,.31,.37Z"/><path class="cls-13" d="M407.91,303.96c0,.12-.12,.18-.37,.18-.19,0-.48-.01-.85-.04-.37-.03-.66-.04-.85-.04s-.49,.01-.87,.04c-.39,.03-.68,.04-.87,.04-.29,0-.65-.74-1.1-2.22-.44-1.48-.9-2.23-1.36-2.25-.38-.02-1.36-.03-2.96-.03h-2.42c-1.69,0-2.65,0-2.88,.03-.37,.03-.76,.78-1.17,2.26-.41,1.47-.73,2.21-.96,2.21h-3.45c-.2,0-.31-.07-.31-.21,0-.1,.07-.32,.21-.66l3.75-9.81c.32-.79,1.28-3.07,2.88-6.84,.29-.62,.67-1.57,1.16-2.83,.12-.37,.26-.56,.4-.56,.19,0,.48,.02,.86,.07s.66,.07,.86,.07c.18,0,.46-.03,.84-.08,.37-.05,.65-.08,.82-.08,.09,0,.22,.18,.38,.54,.25,.55,1.46,3.49,3.63,8.83,3.07,7.51,4.61,11.3,4.61,11.37Zm-7.14-8.09c0-.28-.46-1.55-1.38-3.81-.89-2.19-1.52-3.62-1.88-4.31-2.11,5.16-3.17,7.86-3.17,8.1,0,.33,.39,.53,1.16,.59,.04,.01,.54,.01,1.5,.01h1.58c1.46,0,2.19-.2,2.19-.59Z"/><path class="cls-13" d="M436.59,304.35c.02,.23-.11,.34-.38,.34-.15,0-.52-.15-1.11-.44-.59-.29-.96-.5-1.13-.62-1.88,1.28-4.11,1.92-6.68,1.92-3,0-5.48-1.12-7.42-3.37-1.84-2.13-2.76-4.71-2.76-7.77s.9-5.75,2.71-7.88c1.91-2.25,4.4-3.37,7.46-3.37,1.57,0,3.09,.37,4.54,1.11,1.46,.74,2.62,1.75,3.49,3.04,.13,.19,.2,.34,.2,.44,0,.14-.37,.62-1.1,1.42-.73,.8-1.15,1.2-1.26,1.2-.08,0-.39-.31-.93-.93-.65-.76-1.28-1.33-1.87-1.73-.93-.62-1.9-.93-2.91-.93-1.93,0-3.51,.81-4.75,2.42-1.12,1.47-1.69,3.21-1.69,5.21s.58,3.68,1.73,5.18c1.26,1.62,2.83,2.44,4.73,2.44s3.58-.51,5.15-1.53c-.02-.28-.11-1.25-.26-2.91-.12-1.19-.18-2.15-.18-2.9,0-.17,.11-.26,.34-.26,.19,0,.49,.01,.87,.04,.39,.03,.68,.04,.87,.04s.49,0,.89-.03,.69-.03,.89-.03c.21,0,.32,.16,.32,.49,0,.36-.01,.9-.04,1.62-.03,.72-.04,1.26-.04,1.62,0,1.47,.1,3.46,.29,5.98l.02,.21Z"/><path class="cls-13" d="M466.36,283.94c0,1.19-.05,2.96-.15,5.32-.1,2.36-.15,4.14-.15,5.32,0,.39,0,.97,.02,1.74,0,.77,.02,1.35,.02,1.72,0,2.14-.2,3.62-.6,4.44-.61,1.27-1.8,2.12-3.57,2.57-1.08,.28-2.61,.41-4.58,.41-3.58,0-5.92-.59-7.03-1.78-.86-.92-1.29-2.76-1.29-5.52,0-.34,0-.91,.02-1.71,0-.8,.02-1.43,.02-1.89,0-1.21-.05-3.43-.15-6.67,0-.84-.05-2.09-.14-3.75,0-.12-.01-.2-.01-.25,0-.21,.13-.32,.4-.32,.42,0,.99,0,1.7,.01,.83,0,1.39,.01,1.69,.01,.24,0,.35,.09,.35,.28,0,1.55-.03,3.89-.1,7-.07,3.12-.1,5.45-.1,7,0,1.76,.39,2.95,1.18,3.57,.67,.55,1.92,.83,3.72,.83,1.64,0,2.81-.22,3.51-.67,.88-.56,1.32-1.61,1.32-3.16s-.03-4.04-.08-7.27c-.05-3.23-.08-5.66-.08-7.27,0-.16,.15-.27,.44-.31,.21-.03,.52-.03,.92,0,.47,.04,.69,.06,.67,.06,.18,0,.46-.01,.84-.05,.37-.03,.65-.05,.84-.05,.26,0,.38,.11,.38,.34Z"/><path class="cls-13" d="M493.82,302.02c0,.16-.04,.4-.12,.71-.09,.39-.15,.62-.17,.7-.03,.37-.1,.9-.21,1.61-.05,.18-.18,.28-.4,.28-.1,0-.3-.02-.58-.06-1.26-.18-3.2-.28-5.84-.28-.75,0-1.87,.02-3.37,.06-1.5,.04-2.63,.06-3.37,.06-.34,0-.51-.15-.51-.44,0-1.14,.06-2.86,.19-5.16,.13-2.29,.19-4.01,.19-5.16s-.06-3.34-.18-6.51c-.02-.82-.08-2.04-.17-3.66v-.21c-.03-.24,.11-.35,.38-.35,.72,0,1.79,.02,3.22,.06,1.43,.04,2.5,.06,3.22,.06s1.71-.02,3.07-.06c1.36-.04,2.39-.06,3.07-.06,.48,0,.74,.15,.78,.44,.22,1.35,.32,2.19,.32,2.51,0,.24-.11,.35-.34,.35-.87,0-2.18-.05-3.95-.15-1.76-.1-3.09-.15-3.98-.15-.84,0-1.37,.11-1.59,.34s-.33,.78-.33,1.67v2.28c0,.62,.02,.99,.05,1.09,.09,.32,.36,.47,.8,.47,.12,0,.3,0,.52-.02h.52c2,0,3.8-.04,5.39-.11,.62-.02,1.36-.07,2.21-.15,.22-.02,.32,.07,.32,.28,0,.33-.04,.83-.11,1.5-.08,.67-.11,1.18-.11,1.52,0,.18-.15,.28-.46,.28-.12,0-.58-.04-1.36-.11-.57-.06-1.86-.09-3.86-.09-1.69,0-2.75,.02-3.2,.06-.41,.03-.64,.25-.71,.64,.01-.07,.02,.32,.02,1.18v2.27c0,1.06,.16,1.73,.49,1.99,.26,.22,.89,.32,1.92,.32l1.68-.02c.72,0,2.72-.12,6.02-.37h.23c.2-.04,.31,.09,.31,.37Z"/></g><g><path class="cls-18" d="M115.09,323.92c0,1.71-.55,3.18-1.64,4.41-1.14,1.28-2.55,1.91-4.24,1.91s-3.11-.63-4.24-1.91c-1.09-1.22-1.64-2.7-1.64-4.42s.55-3.17,1.66-4.41c1.14-1.28,2.55-1.92,4.23-1.92s3.1,.64,4.23,1.92c1.1,1.23,1.65,2.7,1.65,4.41Zm-2.08-.03c0-1.13-.35-2.11-1.05-2.94-.74-.89-1.66-1.33-2.77-1.33s-2.01,.45-2.74,1.35c-.69,.84-1.03,1.82-1.03,2.95s.34,2.1,1.03,2.94c.73,.9,1.64,1.34,2.74,1.34s2.04-.45,2.78-1.34c.7-.84,1.04-1.83,1.04-2.97Z"/><path class="cls-18" d="M133.81,329.87c0,.07-.07,.1-.21,.1-.11,0-.27,0-.48-.03-.21-.02-.37-.03-.48-.03s-.27,0-.49,.03c-.22,.02-.38,.03-.49,.03-.16,0-.37-.44-.62-1.31-.25-.87-.5-1.31-.76-1.32-.21-.01-.77-.02-1.66-.02h-1.36c-.95,0-1.49,0-1.62,.02-.21,.02-.43,.46-.66,1.33-.23,.87-.41,1.3-.54,1.3h-1.94c-.12,0-.17-.04-.17-.12,0-.06,.04-.19,.12-.39l2.11-5.78c.18-.47,.72-1.81,1.62-4.03,.16-.37,.38-.92,.66-1.66,.07-.22,.14-.33,.22-.33,.11,0,.27,.01,.48,.04,.21,.03,.37,.04,.48,.04,.1,0,.26-.02,.47-.05s.36-.05,.46-.05c.05,0,.12,.11,.22,.32,.14,.32,.82,2.06,2.04,5.2,1.73,4.42,2.6,6.65,2.6,6.69Zm-4.02-4.76c0-.17-.26-.91-.78-2.24-.5-1.29-.85-2.13-1.06-2.54-1.19,3.04-1.78,4.63-1.78,4.77,0,.2,.22,.31,.66,.34,.02,0,.3,0,.85,0h.89c.82,0,1.23-.11,1.23-.34Z"/><path class="cls-18" d="M150.97,329.57c0,.27-.08,.41-.25,.41h-1.98c-.17,0-.6-.61-1.3-1.84-.59-1.04-.99-1.78-1.18-2.24-.2-.44-.31-.69-.34-.74-.17-.29-.37-.44-.6-.46-.07,0-.26,0-.58,0-.72,0-1.09,.09-1.09,.27,0,.53,.02,1.32,.06,2.37s.06,1.84,.06,2.36c0,.19-.07,.28-.22,.28-.11,0-.27,0-.49-.03-.22-.02-.38-.03-.49-.03s-.26,0-.46,.03c-.2,.02-.36,.03-.46,.03-.14,0-.22-.07-.22-.2,0-.63,.03-1.58,.09-2.85,.06-1.27,.09-2.22,.09-2.85,0-.67-.03-1.67-.09-3.01s-.09-2.34-.09-3.01c0-.13,.07-.19,.22-.19,.1,0,.26,0,.47,.03s.37,.03,.48,.03,.26,0,.47-.03,.36-.03,.47-.03c.13,0,.2,.05,.2,.16,0,.49-.02,1.22-.05,2.21-.03,.98-.05,1.72-.05,2.22,0,.22,.01,.37,.04,.42,.05,.1,.16,.16,.35,.16,1.12,0,1.93-.21,2.45-.62,.44-.37,.86-1.04,1.26-2.03,.29-.77,.57-1.54,.86-2.31,.04-.1,.13-.16,.27-.2,.09-.02,.4-.03,.91-.03,.63,0,.95,.09,.95,.27,0,.1-.13,.57-.4,1.4-.31,.97-.71,1.82-1.21,2.55-.33,.5-.76,1-1.3,1.51-.14,.12-.21,.23-.21,.33,0,.1,.23,.62,.7,1.54,.4,.8,.77,1.44,1.09,1.92,.36,.44,.87,1.12,1.52,2.04,.03,.05,.04,.11,.04,.16Z"/><path class="cls-18" d="M179.42,322.34c0,1.35-.37,2.43-1.1,3.24-.75,.83-1.8,1.25-3.13,1.25-.33,0-.82-.01-1.49-.04-.66-.03-1.16-.04-1.5-.04-.18,0-.28,.12-.28,.35,0,.3,.02,.76,.06,1.37,.04,.61,.06,1.07,.06,1.37,0,.1-.05,.15-.16,.15-.12,0-.3-.01-.55-.04s-.43-.04-.55-.04c-.1,0-.26,0-.46,.03-.2,.02-.35,.03-.45,.03-.14,0-.22-.09-.22-.27,0-.63,.03-1.57,.08-2.84s.08-2.21,.08-2.85c0-1.79-.07-3.72-.2-5.78v-.13c-.01-.13,.06-.19,.22-.19,.31,0,.78,0,1.4,0,.62,0,1.09,0,1.41,0,.27,0,.68-.01,1.22-.03,.54-.02,.95-.03,1.22-.03,1.27,0,2.31,.43,3.13,1.29,.8,.85,1.2,1.9,1.2,3.17Zm-2.17,.13c0-.86-.23-1.55-.7-2.07-.48-.54-1.15-.81-2-.81-.26,0-.74,.02-1.41,.07-.78,.05-1.18,.09-1.2,.14-.04,.07-.06,1.06-.06,2.97,0,.24,0,.6,.02,1.09,.01,.48,.02,.84,.02,1.09,0,.05,.06,.09,.19,.12,.32,.06,1.19,.09,2.63,.09,.8,0,1.43-.25,1.88-.75,.42-.48,.63-1.12,.63-1.93Z"/><path class="cls-18" d="M197.98,329.87c0,.07-.07,.1-.21,.1-.11,0-.27,0-.48-.03-.21-.02-.37-.03-.48-.03s-.27,0-.49,.03c-.22,.02-.38,.03-.49,.03-.16,0-.37-.44-.62-1.31-.25-.87-.5-1.31-.76-1.32-.21-.01-.77-.02-1.66-.02h-1.36c-.95,0-1.49,0-1.62,.02-.21,.02-.43,.46-.66,1.33-.23,.87-.41,1.3-.54,1.3h-1.94c-.12,0-.17-.04-.17-.12,0-.06,.04-.19,.12-.39l2.11-5.78c.18-.47,.72-1.81,1.62-4.03,.16-.37,.38-.92,.66-1.66,.07-.22,.14-.33,.22-.33,.11,0,.27,.01,.48,.04,.21,.03,.37,.04,.48,.04,.1,0,.26-.02,.47-.05s.36-.05,.46-.05c.05,0,.12,.11,.22,.32,.14,.32,.82,2.06,2.04,5.2,1.73,4.42,2.6,6.65,2.6,6.69Zm-4.02-4.76c0-.17-.26-.91-.78-2.24-.5-1.29-.85-2.13-1.06-2.54-1.19,3.04-1.78,4.63-1.78,4.77,0,.2,.22,.31,.66,.34,.02,0,.3,0,.85,0h.89c.82,0,1.23-.11,1.23-.34Z"/><path class="cls-18" d="M214.91,329.9s-.05,.07-.14,.07c-.11,0-.28,0-.5-.03-.22-.02-.39-.03-.5-.03-.12,0-.3,0-.54,.03-.24,.02-.42,.03-.54,.03-.13,0-.23-.07-.3-.22-.18-.39-.71-1.6-1.57-3.63-.09-.21-.3-.33-.63-.38-.07,0-.34,0-.78,0-.79,0-1.26,.01-1.41,.03-.12,.02-.18,.16-.18,.44,0,.4,.02,1,.06,1.81,.04,.8,.06,1.4,.06,1.8,0,.12-.06,.18-.17,.18s-.29-.01-.52-.04c-.23-.03-.41-.04-.53-.04-.1,0-.25,0-.45,.03-.2,.02-.35,.03-.45,.03-.14,0-.22-.07-.22-.2,0-.64,.03-1.6,.09-2.88s.09-2.24,.09-2.88c0-1.82-.07-3.75-.2-5.81v-.14c-.01-.11,.11-.17,.35-.17,.49,0,1.23-.01,2.22-.04,.99-.03,1.72-.04,2.21-.04,1.28,0,2.3,.31,3.07,.91,.85,.67,1.28,1.63,1.28,2.86,0,.85-.12,1.52-.34,2.01-.24,.52-.69,1.01-1.35,1.47-.11,.07-.16,.15-.16,.22,0,.08,.34,.85,1.03,2.29,.69,1.45,1.03,2.22,1.03,2.31Zm-2.36-7.82c0-1.04-.3-1.74-.9-2.09-.44-.26-1.24-.39-2.39-.39-.93,0-1.41,.07-1.42,.22-.04,.31-.06,1.14-.06,2.49v1.65s.05,.02,.11,.03c.1,.01,.27,.03,.51,.04,.55,.03,1.14,.04,1.77,.04,1.59,0,2.38-.67,2.38-2.01Z"/><path class="cls-18" d="M232.27,329.57c0,.27-.08,.41-.25,.41h-1.98c-.17,0-.6-.61-1.3-1.84-.59-1.04-.99-1.78-1.18-2.24-.2-.44-.31-.69-.34-.74-.17-.29-.37-.44-.6-.46-.07,0-.26,0-.58,0-.72,0-1.09,.09-1.09,.27,0,.53,.02,1.32,.06,2.37s.06,1.84,.06,2.36c0,.19-.07,.28-.22,.28-.11,0-.27,0-.49-.03-.22-.02-.38-.03-.49-.03s-.26,0-.46,.03c-.2,.02-.36,.03-.46,.03-.14,0-.22-.07-.22-.2,0-.63,.03-1.58,.09-2.85,.06-1.27,.09-2.22,.09-2.85,0-.67-.03-1.67-.09-3.01s-.09-2.34-.09-3.01c0-.13,.07-.19,.22-.19,.1,0,.26,0,.47,.03s.37,.03,.48,.03,.26,0,.47-.03,.36-.03,.47-.03c.13,0,.2,.05,.2,.16,0,.49-.02,1.22-.05,2.21-.03,.98-.05,1.72-.05,2.22,0,.22,.01,.37,.04,.42,.05,.1,.16,.16,.35,.16,1.12,0,1.93-.21,2.45-.62,.44-.37,.86-1.04,1.26-2.03,.29-.77,.57-1.54,.86-2.31,.04-.1,.13-.16,.27-.2,.09-.02,.4-.03,.91-.03,.63,0,.95,.09,.95,.27,0,.1-.13,.57-.4,1.4-.31,.97-.71,1.82-1.21,2.55-.33,.5-.76,1-1.3,1.51-.14,.12-.21,.23-.21,.33,0,.1,.23,.62,.7,1.54,.4,.8,.77,1.44,1.09,1.92,.36,.44,.87,1.12,1.52,2.04,.03,.05,.04,.11,.04,.16Z"/><path class="cls-18" d="M242.27,327.92c0,.59-.1,1.11-.3,1.56-.13,.29-.47,.74-1.03,1.36-.6,.68-1.02,1.02-1.24,1.02-.05,0-.19-.13-.41-.4-.22-.26-.34-.43-.34-.5,0,.01,.15-.19,.45-.6,.3-.41,.46-.75,.49-1.03,0,.04,0-.26,0-.91,0-.22,.31-.42,.94-.58,.5-.13,.92-.19,1.26-.19,.13,0,.19,.09,.19,.26Z"/></g><g><path class="cls-18" d="M344.57,329.79c0,.12-.08,.18-.25,.18-.1,0-.26,0-.47-.03-.21-.02-.37-.03-.47-.03s-.27,0-.48,.03c-.21,.02-.37,.03-.47,.03-.14,0-.22-.07-.22-.2,0-.66,.03-1.64,.09-2.96,.06-1.32,.09-2.31,.09-2.97s-.03-1.6-.09-2.88c-.06-1.28-.09-2.24-.09-2.88,0-.14,.07-.22,.2-.22,.11,0,.28,0,.5,.03,.22,.02,.39,.03,.51,.03,.1,0,.26,0,.47-.03,.21-.02,.36-.03,.47-.03,.15,0,.22,.06,.22,.17,0,.64-.02,1.61-.07,2.9-.05,1.29-.07,2.25-.07,2.9s.02,1.65,.07,2.98c.05,1.32,.07,2.31,.07,2.98Z"/><path class="cls-18" d="M362.8,328.1c0,.81-.04,1.38-.13,1.72-.04,.17-.14,.25-.3,.25-.43,0-1.06-.02-1.91-.07-.85-.05-1.49-.07-1.91-.07-.4,0-1,0-1.8,.03-.8,.02-1.4,.03-1.8,.03-.14,0-.22-.07-.22-.22,0-.63,.02-1.57,.06-2.84,.04-1.26,.06-2.21,.06-2.85,0-.67-.03-1.67-.09-3-.06-1.33-.09-2.33-.09-3,0-.13,.07-.19,.22-.19,.1,0,.26,0,.47,.03,.21,.02,.37,.03,.48,.03,.1,0,.26,0,.48-.03,.22-.02,.38-.03,.48-.03,.14,0,.21,.05,.21,.16,0,.61-.02,1.53-.07,2.75-.05,1.22-.07,2.14-.07,2.76v1.36c0,.61,0,1.06,0,1.36,0,1.28,.05,1.91,.16,1.91,2.12,0,3.72-.05,4.8-.15,.05,0,.18-.03,.4-.06,.17-.03,.31-.05,.4-.05,.12,0,.18,.05,.18,.16Z"/><path class="cls-18" d="M380.22,328.1c0,.81-.04,1.38-.13,1.72-.04,.17-.14,.25-.3,.25-.43,0-1.06-.02-1.91-.07-.85-.05-1.49-.07-1.91-.07-.4,0-1,0-1.8,.03-.8,.02-1.4,.03-1.8,.03-.14,0-.22-.07-.22-.22,0-.63,.02-1.57,.06-2.84,.04-1.26,.06-2.21,.06-2.85,0-.67-.03-1.67-.09-3-.06-1.33-.09-2.33-.09-3,0-.13,.07-.19,.22-.19,.1,0,.26,0,.47,.03,.21,.02,.37,.03,.48,.03s.26,0,.48-.03,.38-.03,.48-.03c.14,0,.21,.05,.21,.16,0,.61-.02,1.53-.07,2.75-.05,1.22-.07,2.14-.07,2.76v1.36c0,.61,0,1.06,0,1.36,0,1.28,.05,1.91,.16,1.91,2.12,0,3.72-.05,4.8-.15,.05,0,.18-.03,.4-.06,.17-.03,.3-.05,.4-.05,.12,0,.18,.05,.18,.16Z"/><path class="cls-18" d="M391.87,329.79c0,.12-.08,.18-.25,.18-.1,0-.26,0-.47-.03-.21-.02-.37-.03-.47-.03-.11,0-.27,0-.48,.03-.21,.02-.37,.03-.47,.03-.14,0-.22-.07-.22-.2,0-.66,.03-1.64,.09-2.96,.06-1.32,.09-2.31,.09-2.97s-.03-1.6-.09-2.88c-.06-1.28-.09-2.24-.09-2.88,0-.14,.07-.22,.2-.22,.11,0,.28,0,.5,.03,.22,.02,.39,.03,.51,.03,.1,0,.26,0,.47-.03,.21-.02,.36-.03,.47-.03,.15,0,.22,.06,.22,.17,0,.64-.02,1.61-.07,2.9-.05,1.29-.07,2.25-.07,2.9s.02,1.65,.07,2.98c.05,1.32,.07,2.31,.07,2.98Z"/><path class="cls-18" d="M412.81,318.06c0,.66-.02,1.66-.07,2.99-.05,1.33-.07,2.33-.07,3,0,.63,0,1.56,.02,2.82,.01,1.25,.02,2.19,.02,2.82,0,.19-.07,.28-.22,.28-.09,0-.22,0-.39-.03-.17-.02-.3-.03-.39-.03-.09,0-.23,0-.42,.03-.19,.02-.33,.03-.42,.03-.1,0-.23-.09-.37-.28-1.24-1.67-3.12-4.17-5.65-7.49-.39-.51-.62-.79-.68-.85-.06,0-.09,.12-.09,.35,0,.89,.01,2.21,.04,3.99,.03,1.77,.04,3.1,.04,3.99,0,.19-.06,.28-.17,.28-.1,0-.25,0-.45-.03-.2-.02-.35-.03-.45-.03-.1,0-.26,0-.46,.03-.2,.02-.36,.03-.46,.03-.14,0-.22-.06-.22-.17,0-.63,.03-1.58,.09-2.86,.06-1.27,.09-2.23,.09-2.87,0-.7-.03-1.95-.08-3.76-.01-.47-.04-1.18-.09-2.12v-.11c-.01-.09,.05-.13,.2-.14,.37,0,.67-.02,.88-.03,.08,0,.23-.03,.46-.07,.19-.03,.34-.05,.45-.05,.05,0,.14,.08,.27,.25,1.32,1.82,3.35,4.52,6.07,8.11,.12,.15,.23,.28,.34,.39,.04-.24,.06-.79,.06-1.66,0-.75-.03-1.87-.08-3.36-.05-1.49-.08-2.61-.08-3.35,0-.19,.06-.28,.17-.28,.1,0,.26,0,.47,.03,.21,.02,.37,.03,.47,.03,.11,0,.27,0,.49-.03,.22-.02,.38-.03,.49-.03,.12,0,.18,.06,.18,.19Z"/><path class="cls-18" d="M434.32,323.92c0,1.71-.55,3.18-1.64,4.41-1.14,1.28-2.55,1.91-4.24,1.91s-3.11-.63-4.24-1.91c-1.09-1.22-1.64-2.7-1.64-4.42s.55-3.17,1.66-4.41c1.14-1.28,2.55-1.92,4.23-1.92s3.1,.64,4.23,1.92c1.1,1.23,1.65,2.7,1.65,4.41Zm-2.08-.03c0-1.13-.35-2.11-1.05-2.94-.74-.89-1.66-1.33-2.77-1.33s-2.01,.45-2.74,1.35c-.69,.84-1.03,1.82-1.03,2.95s.34,2.1,1.03,2.94c.73,.9,1.64,1.34,2.74,1.34s2.04-.45,2.78-1.34c.7-.84,1.04-1.83,1.04-2.97Z"/><path class="cls-18" d="M446.38,329.79c0,.12-.08,.18-.25,.18-.1,0-.26,0-.47-.03-.21-.02-.37-.03-.47-.03s-.27,0-.48,.03c-.21,.02-.37,.03-.47,.03-.14,0-.22-.07-.22-.2,0-.66,.03-1.64,.09-2.96,.06-1.32,.09-2.31,.09-2.97s-.03-1.6-.09-2.88c-.06-1.28-.09-2.24-.09-2.88,0-.14,.07-.22,.2-.22,.11,0,.28,0,.5,.03,.22,.02,.39,.03,.51,.03,.1,0,.26,0,.47-.03,.21-.02,.36-.03,.47-.03,.15,0,.22,.06,.22,.17,0,.64-.02,1.61-.07,2.9-.05,1.29-.07,2.25-.07,2.9s.02,1.65,.07,2.98c.05,1.32,.07,2.31,.07,2.98Z"/><path class="cls-18" d="M463.39,318.74c-.11,.19-.27,.48-.47,.86-.06,.18-.18,.43-.34,.76-.03,.05-.08,.08-.14,.08,0,0-.27-.1-.83-.31-.56-.2-1.02-.31-1.38-.31-1.06,0-1.59,.47-1.59,1.4,0,.52,.37,.97,1.11,1.35,1.25,.65,1.94,1.02,2.07,1.12,.74,.59,1.11,1.39,1.11,2.4,0,1.29-.51,2.3-1.53,3.04-.91,.67-2.04,1-3.37,1-.62,0-.95-.07-1-.21-.02-.22-.07-.54-.16-.96-.05-.17-.12-.43-.22-.78-.02-.05-.03-.1-.03-.15,0-.08,.04-.12,.13-.12,.14,0,.35,.01,.63,.04,.29,.03,.5,.04,.64,.04,1.78,0,2.67-.57,2.67-1.72,0-.56-.36-1.05-1.08-1.47-1.31-.75-1.98-1.14-2.01-1.16-.72-.59-1.09-1.37-1.09-2.36,0-1.07,.35-1.93,1.05-2.57,.68-.62,1.57-.93,2.66-.93,.46,0,.99,.07,1.59,.22,.65,.17,1.14,.37,1.47,.6,.03,.02,.06,.06,.09,.11Z"/></g><circle class="cls-15" cx="289.9" cy="308.56" r="25.97"/><path class="cls-5" d="M46.76,345.23c-3.56-16.71-5.43-34.05-5.43-51.83,0-136.46,110.35-247.08,246.47-247.08s246.47,110.62,246.47,247.08c0,17.65-1.85,34.87-5.35,51.47"/><path class="cls-17" d="M231.5,44.94l-2.15-9.58c-.34-1.5-1-3.24-.87-4.8s1.54-2.33,2.77-2.97c1.13-.58,2.86-1.98,4.17-1.34,1.13,.55,2.08,2.35,1.94,3.58-.16,1.37-1.66,2.13-2.75,2.7-1.44,.76-2.96,1.3-4.53,1.69-1.14,.28-.66,2.04,.48,1.76,2.6-.65,5.98-1.75,7.73-3.92s.66-5.4-1.37-6.99c-1.05-.83-2.35-.99-3.6-.54-1.37,.49-2.8,1.3-4.02,2.06-1.11,.69-2.08,1.64-2.47,2.91-.42,1.39-.02,2.87,.29,4.24l2.62,11.68c.26,1.15,2.02,.66,1.76-.48h0Z"/><path class="cls-17" d="M255.51,39.67c-.49-3.17-.92-6.35-1.3-9.53-.18-1.52-.37-3.05-.5-4.58-.06-.74-.06-1.12,.71-1.3s1.59-.29,2.38-.37c1.28-.12,2.88-.17,3.97,.65s.87,2.26,.37,3.34c-1.15,2.46-4.12,3.52-6.58,2.37-1.06-.5-1.98,1.08-.92,1.58,2.5,1.17,5.41,.88,7.51-.97,1.8-1.59,3.13-4.78,1.55-6.94-1.76-2.41-5.33-2-7.88-1.57-1.29,.22-2.59,.53-2.91,1.99-.15,.67-.01,1.38,.06,2.04,.08,.82,.17,1.63,.27,2.45,.43,3.78,.93,7.56,1.51,11.32,.18,1.16,1.94,.67,1.76-.48h0Z"/><path class="cls-17" d="M299.24,45.77c.65-2.39,1.31-4.79,1.67-7.25s.51-4.91,.72-7.36c.1-1.17-1.73-1.16-1.82,0-.2,2.38-.33,4.78-.69,7.14s-1,4.68-1.63,6.98c-.31,1.13,1.45,1.62,1.76,.48h0Z"/><g><path class="cls-11" d="M300.99,30.6c.31,.59,.9,1,1.53,1.22s1.3,.3,1.96,.38c1.1,.15,2.2,.34,3.31,.38,.67,.02,1.4-.04,1.92-.46,.32-.26,.52-.63,.68-1.01,.16-.38,.29-.77,.31-1.18,.05-.99-.55-1.92-1.35-2.49s-1.79-.83-2.76-1.01c-1.43-.25-2.91-.33-4.33-.03-.25,.05-.52,.13-.69,.33-.19,.21-.22,.51-.31,.77-.13,.39-.4,.71-.54,1.1-.22,.61-.07,1.33,.37,1.8l-.1,.2Z"/><path class="cls-14" d="M300.21,31.06c1.15,2.03,3.89,2.02,5.93,2.29,1.06,.14,2.25,.31,3.29-.05s1.63-1.26,1.98-2.27c.74-2.11-.64-4.08-2.55-4.9-.98-.42-2.04-.61-3.1-.74-1.18-.14-2.37-.13-3.54,.09-.6,.12-1.18,.35-1.5,.89-.25,.42-.34,.91-.57,1.34-.6,1.13-.52,2.33,.32,3.32l-.14-1.11-.1,.2c-.55,1.04,1.03,1.96,1.58,.92l.1-.2c.2-.39,.13-.78-.14-1.11-.41-.49-.09-.98,.15-1.44,.16-.32,.24-.64,.37-.97,0-.03,.05-.07-.02,0-.09,.09,.08,0,.11-.01,.21-.04,.41-.09,.62-.12,1.54-.23,3.26-.04,4.74,.44,1.08,.35,2.34,1.27,2.03,2.57-.14,.58-.4,1.24-1.03,1.4-.69,.18-1.5,.05-2.2-.03-.93-.11-1.87-.23-2.79-.39-.75-.13-1.55-.34-1.95-1.05-.58-1.02-2.15-.1-1.58,.92Z"/></g><g><path class="cls-11" d="M319.43,48.17c1.41-5.74,2.82-11.49,4.22-17.23,.09-.37,.19-.76,.44-1.05,.37-.43,.97-.57,1.54-.63,2.29-.26,4.66,.22,6.67,1.36,.69,.39,1.38,.91,1.62,1.67,.21,.66,.03,1.41-.37,1.98s-.99,.97-1.63,1.26c-1.77,.8-3.92,.69-5.6-.28-1.02-.59-1.92-1.49-3.09-1.62"/><path class="cls-14" d="M320.31,48.41c.87-3.54,1.74-7.09,2.61-10.63l1.26-5.13c.16-.65,.23-1.93,.81-2.32,.54-.36,1.68-.25,2.29-.23,1.59,.06,3.19,.5,4.56,1.3,.56,.32,1.23,.75,1.26,1.47,.03,.81-.72,1.4-1.37,1.74-1.32,.68-2.98,.71-4.34,.15s-2.38-1.76-3.92-2.02c-1.15-.19-1.64,1.56-.48,1.76,1.42,.24,2.46,1.43,3.77,1.96s2.83,.64,4.24,.33,2.79-1.06,3.49-2.32c.66-1.19,.51-2.6-.39-3.61s-2.38-1.64-3.67-2.04c-1.48-.47-3.09-.65-4.64-.49-1.42,.14-2.51,.65-2.95,2.09-.54,1.77-.89,3.62-1.33,5.41l-2.97,12.1c-.28,1.14,1.48,1.63,1.76,.48h0Z"/></g><path class="cls-17" d="M346.14,46.48c.78-2.31,1.57-4.62,2.08-7s.79-4.8,1.14-7.2c.07-.49-.12-.97-.64-1.12-.43-.12-1.05,.15-1.12,.64-.35,2.4-.63,4.82-1.14,7.2s-1.29,4.7-2.08,7c-.38,1.11,1.38,1.59,1.76,.48h0Z"/><g><path class="cls-11" d="M348.79,31.5c.27,.61,.84,1.05,1.45,1.31s1.28,.37,1.93,.5c1.09,.21,2.17,.48,3.28,.58,.67,.06,1.4,.05,1.95-.35,.33-.24,.56-.6,.74-.96,.18-.36,.34-.75,.38-1.16,.11-.98-.43-1.95-1.2-2.57s-1.73-.94-2.69-1.17c-1.41-.34-2.88-.51-4.32-.29-.26,.04-.53,.1-.71,.28-.2,.2-.25,.49-.36,.75-.16,.38-.44,.69-.6,1.06-.25,.59-.15,1.32,.26,1.82l-.12,.19Z"/><path class="cls-14" d="M348.01,31.96c.97,1.99,3.56,2.17,5.47,2.55,1.07,.21,2.23,.46,3.32,.25s1.77-.93,2.21-1.88c.48-1.02,.59-2.08,.13-3.13-.42-.95-1.19-1.7-2.1-2.18s-1.96-.76-2.99-.95c-1.17-.22-2.36-.32-3.54-.17-.62,.08-1.2,.19-1.63,.68-.34,.39-.44,.93-.71,1.36-.64,1.01-.8,2.26-.04,3.27v-.92l-.12,.19c-.61,1.01,.97,1.92,1.58,.92l.12-.19c.15-.25,.19-.67,0-.92-.41-.56-.26-.95,.08-1.49,.18-.29,.26-.67,.45-.95,.1-.15,.43-.15,.66-.17,1.58-.13,3.3,.12,4.78,.7,1.18,.46,2.36,1.55,1.82,2.92-.23,.58-.54,1.07-1.2,1.14-.73,.08-1.51-.1-2.22-.24-.93-.18-1.88-.34-2.79-.58-.7-.18-1.35-.47-1.68-1.15-.21-.44-.85-.56-1.25-.33-.45,.26-.54,.8-.33,1.25Z"/></g><g><path class="cls-11" d="M367.62,52.65c1.75-5.65,3.51-11.3,5.26-16.94,.11-.37,.24-.75,.5-1.03,.39-.41,1.01-.51,1.57-.54,2.3-.12,4.64,.51,6.57,1.76,.67,.43,1.32,1,1.52,1.77,.17,.67-.06,1.41-.49,1.95s-1.05,.91-1.7,1.16c-1.82,.69-3.96,.45-5.58-.62-.98-.65-1.83-1.6-2.98-1.81"/><path class="cls-14" d="M368.5,52.89l3.29-10.59,1.54-4.94c.25-.82,.34-2.07,1.3-2.28,.71-.15,1.58-.05,2.28,.05,1.54,.21,3.13,.78,4.38,1.71,.58,.43,1.08,.98,.82,1.75s-1.07,1.17-1.77,1.4c-1.43,.48-3.06,.3-4.35-.47-1.18-.7-2.06-1.74-3.45-2.05-1.14-.26-1.63,1.5-.48,1.76,1.36,.31,2.29,1.55,3.53,2.14s2.71,.83,4.11,.63,2.82-.78,3.66-1.93,.88-2.63,.01-3.76c-1.73-2.25-5.39-3.18-8.09-3.11-1.49,.04-2.64,.49-3.18,1.97-.62,1.71-1.09,3.48-1.62,5.22l-3.73,12c-.35,1.12,1.41,1.6,1.76,.48h0Z"/></g><g><path class="cls-11" d="M455.98,111.66c3.83-3.56,7.65-7.12,11.48-10.67,.25-.23,.51-.47,.86-.56,.51-.13,1.09,.08,1.6,.33,2.08,1,3.88,2.6,5.07,4.5,.41,.65,.76,1.4,.62,2.09-.12,.6-.62,1.07-1.22,1.28s-1.29,.21-1.96,.09c-1.88-.32-3.66-1.53-4.65-3.13-.6-.97-.96-2.12-1.89-2.82"/><path class="cls-14" d="M456.62,112.31c2.49-2.31,4.97-4.62,7.46-6.94,1.24-1.16,2.48-2.32,3.73-3.47,.2-.19,.5-.56,.81-.6,.41-.05,.9,.28,1.25,.46,.62,.33,1.23,.71,1.78,1.15,1.06,.84,2.07,1.89,2.71,3.09,.33,.63,.58,1.34-.19,1.74-.69,.35-1.7,.12-2.39-.11-1.31-.43-2.49-1.33-3.23-2.5-.66-1.05-1.06-2.19-2.04-3.01-.9-.75-2.19,.54-1.29,1.29,1.02,.85,1.37,2.19,2.16,3.22,.84,1.1,1.96,1.95,3.23,2.49,2.05,.87,6.03,.93,5.92-2.23-.05-1.33-1-2.55-1.81-3.53-.91-1.1-2.03-2.04-3.25-2.79-1.08-.66-2.48-1.46-3.76-.88-.57,.26-1.02,.77-1.48,1.19l-2.01,1.87c-2.96,2.76-5.93,5.51-8.89,8.27-.86,.8,.43,2.09,1.29,1.29h0Z"/></g><g><path class="cls-11" d="M526.32,211.53c4.97-2.06,9.94-4.12,14.91-6.18,.32-.13,.66-.27,1.02-.24,.53,.05,1,.46,1.39,.87,1.59,1.67,2.69,3.81,3.1,6.03,.14,.76,.19,1.6-.2,2.21-.34,.53-.99,.8-1.64,.8s-1.3-.25-1.9-.59c-1.66-.96-2.89-2.72-3.23-4.59-.2-1.13-.11-2.34-.73-3.34"/><path class="cls-14" d="M526.56,212.41c3.17-1.31,6.33-2.62,9.5-3.94l4.66-1.93c.44-.18,.89-.47,1.37-.43s.7,.3,1.01,.64c.51,.55,.95,1.15,1.34,1.79,.71,1.19,1.27,2.55,1.45,3.93,.27,2.17-1.71,1.75-2.94,.84-1.11-.82-1.94-2.07-2.24-3.42s-.2-2.62-.88-3.85c-.57-1.03-2.14-.11-1.58,.92,.66,1.21,.43,2.7,.86,4s1.16,2.42,2.14,3.31c1.63,1.48,5.25,2.82,6.3-.08,.46-1.26,.06-2.76-.35-3.98-.46-1.36-1.13-2.63-2-3.77-.77-1-1.75-2.25-3.14-2.22-.77,.02-1.51,.43-2.21,.72l-2.61,1.08c-3.73,1.54-7.45,3.09-11.18,4.63-1.07,.44-.6,2.21,.48,1.76h0Z"/></g><g><path class="cls-11" d="M476.77,124.79c3.95-3.76,7.9-7.52,11.84-11.28,.26-.24,.53-.5,.88-.6,.52-.15,1.1,.06,1.61,.31,2.08,.99,3.87,2.61,5.04,4.54,.4,.67,.74,1.43,.58,2.15-.14,.63-.65,1.12-1.26,1.35s-1.31,.24-1.99,.14c-1.89-.3-3.68-1.5-4.65-3.14-.59-.99-.93-2.17-1.86-2.88"/><path class="cls-14" d="M477.42,125.44l7.51-7.15,3.76-3.58c.26-.25,.68-.82,1.05-.91s.88,.2,1.19,.35c.62,.31,1.21,.69,1.76,1.11,1.1,.84,2.07,1.91,2.75,3.12,.39,.7,.69,1.54-.18,2-.68,.35-1.59,.19-2.28,0-1.33-.38-2.55-1.25-3.28-2.43-.69-1.1-1.06-2.33-2.08-3.19-.89-.75-2.19,.53-1.29,1.29,1.06,.9,1.39,2.35,2.23,3.44s1.89,1.85,3.11,2.36c2.16,.9,6.26,.75,6-2.53-.11-1.34-1.04-2.57-1.86-3.56-.91-1.1-2.04-2.05-3.27-2.78-1.08-.65-2.51-1.41-3.75-.73-.59,.32-1.06,.87-1.54,1.33l-2.17,2.06c-2.98,2.84-5.97,5.68-8.95,8.53-.85,.81,.44,2.1,1.29,1.29h0Z"/></g><g><path class="cls-11" d="M497.34,138.1c4.4-3.43,8.81-6.87,13.21-10.3,.29-.22,.59-.45,.95-.52,.54-.1,1.1,.17,1.58,.46,1.97,1.2,3.57,3,4.52,5.07,.32,.71,.57,1.52,.33,2.23-.21,.62-.78,1.07-1.42,1.25s-1.35,.12-2.01-.05c-1.86-.48-3.51-1.87-4.29-3.62-.47-1.06-.67-2.28-1.52-3.09"/><path class="cls-14" d="M497.98,138.74l8.38-6.53c1.4-1.09,2.79-2.18,4.19-3.27,.76-.59,1.17-.93,2.07-.42,.65,.37,1.24,.85,1.77,1.36,1.01,.96,1.87,2.11,2.42,3.39,.33,.76,.54,1.68-.39,2.08-.7,.3-1.58,.1-2.26-.17-1.3-.5-2.41-1.5-3.03-2.74s-.82-2.51-1.8-3.55c-.81-.86-2.09,.44-1.29,1.29,.98,1.04,1.1,2.65,1.9,3.83,.74,1.1,1.76,2.02,2.96,2.6,2.13,1.03,6.04,1.04,6.05-2.2,0-1.38-.84-2.81-1.61-3.9-.82-1.16-1.81-2.17-2.97-3.02-1.07-.78-2.4-1.55-3.71-.87-1.43,.74-2.71,2.05-3.97,3.04l-9.99,7.79c-.92,.72,.37,2,1.29,1.29h0Z"/></g><g><path class="cls-11" d="M415.42,45.37c-3.04,4.29-6.07,8.57-9.11,12.86-.2,.28-.4,.57-.44,.93-.07,.53,.22,1.07,.54,1.54,1.27,1.92,3.1,3.49,5.14,4.42,.7,.32,1.5,.56,2.17,.33,.58-.2,.98-.76,1.12-1.39s.04-1.31-.17-1.96c-.57-1.82-2-3.43-3.73-4.19-1.04-.46-2.23-.66-3.06-1.49"/><path class="cls-14" d="M414.63,44.91c-2.01,2.84-4.02,5.68-6.04,8.52-1.02,1.44-2.09,2.87-3.07,4.34-.82,1.22-.61,2.34,.18,3.53,1.47,2.19,3.89,4.4,6.53,5.04,1.23,.3,2.47-.06,3.13-1.18s.47-2.55,.02-3.72c-.53-1.38-1.44-2.58-2.61-3.47-1.28-.98-3.08-1.12-4.26-2.19-.87-.79-2.16,.5-1.29,1.29,1.04,.94,2.3,1.16,3.51,1.76s2.23,1.66,2.8,2.89c.28,.62,.57,1.42,.41,2.1-.25,1.05-1.15,.85-1.94,.51-1.27-.54-2.43-1.39-3.4-2.36-.52-.53-1.02-1.1-1.42-1.73-.5-.8-.36-1.16,.14-1.87,.98-1.39,1.97-2.79,2.96-4.18l5.92-8.36c.68-.96-.9-1.87-1.58-.92h0Z"/></g><g><path class="cls-11" d="M430.35,63.08c-3.04,4.29-6.07,8.57-9.11,12.86-.2,.28-.4,.57-.44,.93-.07,.53,.22,1.07,.54,1.54,1.27,1.92,3.1,3.49,5.14,4.42,.7,.32,1.5,.56,2.17,.33,.58-.2,.98-.76,1.12-1.39s.04-1.31-.17-1.96c-.57-1.82-2-3.43-3.73-4.19-1.04-.46-2.23-.66-3.06-1.49"/><path class="cls-14" d="M429.56,62.62c-2.01,2.84-4.02,5.68-6.04,8.52-1.02,1.44-2.09,2.87-3.07,4.34-.82,1.22-.61,2.34,.18,3.53,1.47,2.19,3.89,4.4,6.53,5.04,1.23,.3,2.47-.06,3.13-1.18s.47-2.55,.02-3.72c-.53-1.38-1.44-2.58-2.61-3.47-1.28-.98-3.08-1.12-4.26-2.19-.87-.79-2.16,.5-1.29,1.29,1.04,.94,2.3,1.16,3.51,1.76s2.23,1.66,2.8,2.89c.28,.62,.57,1.42,.41,2.1-.25,1.05-1.15,.85-1.94,.51-1.27-.54-2.43-1.39-3.4-2.36-.52-.53-1.02-1.1-1.42-1.73-.5-.8-.36-1.16,.14-1.87,.98-1.39,1.97-2.79,2.96-4.18l5.92-8.36c.68-.96-.9-1.87-1.58-.92h0Z"/></g><path class="cls-14" d="M423.39,74.47c2.58-3.64,5.16-7.29,7.75-10.93,.25-.35,.1-.81-.14-1.11-4.34-5.15-8.69-10.3-13.03-15.45-.63-.75-1.26-1.5-1.9-2.25-.41-.49-1.12-.25-1.43,.18-2.57,3.63-5.14,7.25-7.71,10.88-.68,.96,.9,1.87,1.58,.92,2.57-3.63,5.14-7.25,7.71-10.88l-1.43,.18c4.34,5.15,8.69,10.3,13.03,15.45,.63,.75,1.26,1.5,1.9,2.25l-.14-1.11c-2.58,3.64-5.16,7.29-7.75,10.93-.68,.96,.9,1.87,1.58,.92h0Z"/><path class="cls-14" d="M407.71,57.17c1.17,0,1.18-1.82,0-1.82s-1.18,1.82,0,1.82h0Z"/><path class="cls-14" d="M431.64,61.79c-4.36-5.16-8.71-10.33-13.07-15.49-.62-.74-1.24-1.47-1.86-2.21s-1.92-.66-2.58,0c-.75,.75-.64,1.82,0,2.58,4.36,5.16,8.71,10.33,13.07,15.49,.62,.74,1.24,1.47,1.86,2.21s1.92,.66,2.58,0c.75-.75,.64-1.82,0-2.58h0Z"/><path class="cls-14" d="M453.8,113.24c6.14,3.83,12.28,7.65,18.42,11.48,4.95,3.08,9.82,6.3,14.71,9.47,2.89,1.88,5.79,3.76,8.68,5.63,1.98,1.28,3.81-1.88,1.84-3.15-6.04-3.92-12.09-7.84-18.13-11.76-4.93-3.2-9.95-6.27-14.95-9.38-2.91-1.82-5.83-3.63-8.74-5.45-2-1.25-3.83,1.91-1.84,3.15h0Z"/><g><path class="cls-11" d="M97.56,135.13c-4.88-4.35-9.76-8.69-14.64-13.04-.32-.28-.64-.58-.81-.95-.24-.56-.08-1.16,.14-1.68,.87-2.14,2.49-3.95,4.58-5.08,.72-.39,1.56-.71,2.41-.51,.74,.18,1.38,.74,1.73,1.39s.46,1.4,.43,2.1c-.09,1.98-1.24,3.8-3.01,4.74-1.07,.57-2.38,.87-3.08,1.81"/><path class="cls-14" d="M98.21,134.48c-2.91-2.59-5.81-5.18-8.72-7.77l-4.36-3.88c-.59-.53-1.59-1.15-2.02-1.83-.48-.75,.24-1.83,.64-2.5,.8-1.32,1.93-2.42,3.26-3.19,.77-.45,1.73-.9,2.55-.32,.75,.52,.97,1.5,.93,2.37-.08,1.55-.96,2.98-2.28,3.8-1.2,.74-2.6,.99-3.54,2.11-.75,.9,.54,2.19,1.29,1.29,.95-1.14,2.62-1.36,3.78-2.25s1.98-2.1,2.35-3.48c.74-2.71-.65-6.4-3.99-5.87-2.88,.45-5.47,3.34-6.57,5.89-.66,1.54-.49,2.75,.75,3.89,1.43,1.32,2.91,2.59,4.36,3.88,3.43,3.05,6.85,6.1,10.28,9.15,.87,.78,2.17-.51,1.29-1.29h0Z"/></g><g><path class="cls-11" d="M109.43,115.96c-3.5-4.15-7.01-8.3-10.51-12.45-.23-.27-.46-.55-.54-.91-.12-.53,.13-1.1,.4-1.59,1.11-2.02,2.83-3.71,4.83-4.77,.69-.36,1.47-.66,2.18-.46,.62,.17,1.07,.71,1.27,1.33s.16,1.32,.02,1.99c-.41,1.87-1.72,3.58-3.41,4.46-1.02,.53-2.21,.8-2.98,1.69"/><path class="cls-14" d="M110.08,115.31l-6.67-7.89-3.33-3.95c-.26-.31-.79-.74-.82-1.19-.02-.35,.3-.8,.46-1.08,.36-.61,.77-1.19,1.24-1.72,.91-1.02,2.01-1.93,3.25-2.52,.75-.36,1.61-.54,1.96,.4,.26,.7,.05,1.56-.19,2.24-.47,1.31-1.43,2.44-2.65,3.11-1.14,.63-2.37,.93-3.29,1.91-.81,.85,.48,2.14,1.29,1.29,.96-1.01,2.45-1.23,3.56-2.02s1.97-1.81,2.53-3.02,.91-2.67,.51-3.99c-.37-1.22-1.47-2.12-2.77-2.06-2.64,.13-5.21,2.76-6.6,4.8-.71,1.05-1.53,2.43-.89,3.7,.3,.59,.81,1.1,1.24,1.6l1.92,2.28c2.65,3.14,5.3,6.27,7.95,9.41,.76,.9,2.04-.4,1.29-1.29h0Z"/></g><g><path class="cls-11" d="M128.97,97.93c-2.83-4.58-5.66-9.16-8.5-13.75-.18-.3-.37-.61-.4-.97-.04-.54,.29-1.06,.63-1.51,1.39-1.83,3.34-3.27,5.46-4.03,.73-.26,1.55-.44,2.21-.15,.58,.26,.95,.85,1.05,1.49s-.04,1.33-.28,1.97c-.68,1.79-2.22,3.29-4.02,3.92-1.08,.38-2.3,.48-3.18,1.25"/><path class="cls-14" d="M129.75,97.47l-5.52-8.93c-.92-1.49-1.84-2.98-2.76-4.47-.14-.23-.44-.56-.47-.83-.05-.4,.33-.86,.55-1.15,.44-.56,.95-1.07,1.48-1.54,1.05-.92,2.34-1.7,3.69-2.1,.79-.23,1.61-.27,1.79,.72,.14,.73-.19,1.55-.54,2.18-.68,1.21-1.78,2.19-3.09,2.67s-2.48,.63-3.59,1.48c-.93,.72,.37,2,1.29,1.29,1.1-.86,2.73-.86,3.96-1.54,1.12-.62,2.07-1.53,2.76-2.6,1.26-1.93,1.78-5.87-1.42-6.17-1.32-.12-2.69,.52-3.82,1.13-1.26,.69-2.43,1.61-3.39,2.68-.87,.97-1.85,2.17-1.4,3.55,.19,.6,.6,1.13,.93,1.66l1.49,2.41c2.16,3.49,4.32,6.99,6.48,10.48,.62,1,2.19,.08,1.58-.92h0Z"/></g><g><path class="cls-11" d="M15.6,234.31c5.26,1.75,10.51,3.49,15.77,5.24,.34,.11,.7,.23,1.07,.17,.55-.09,1-.55,1.37-1,1.52-1.84,2.51-4.14,2.78-6.46,.09-.8,.09-1.66-.36-2.26-.39-.52-1.07-.75-1.74-.7s-1.33,.36-1.91,.75c-1.64,1.12-2.8,3.03-3.01,4.99-.13,1.18,.05,2.43-.52,3.5"/><path class="cls-14" d="M15.36,235.19c3.48,1.16,6.97,2.32,10.45,3.47,1.71,.57,3.41,1.15,5.13,1.7,1.38,.45,2.46,.22,3.43-.89,1.86-2.12,3.38-5.37,3.19-8.26-.08-1.23-.73-2.35-1.97-2.72-1.31-.38-2.66,.17-3.71,.94-1.22,.89-2.15,2.13-2.7,3.53-.26,.66-.43,1.35-.5,2.06-.11,1.01,.04,2.09-.4,3.04-.48,1.06,1.09,1.99,1.58,.92,.65-1.43,.41-2.85,.71-4.34,.26-1.29,.96-2.5,1.94-3.38,.56-.5,1.32-1.04,2.1-1.07,1.05-.04,1.18,.86,1.13,1.7-.11,1.53-.65,3.08-1.39,4.42-.38,.68-.82,1.4-1.36,1.97-.7,.72-1.31,.39-2.15,.11l-4.93-1.64c-3.35-1.11-6.7-2.23-10.05-3.34-1.12-.37-1.6,1.39-.48,1.76h0Z"/></g><g><path class="cls-11" d="M28.57,214.07c5.26,1.75,10.51,3.49,15.77,5.24,.34,.11,.7,.23,1.07,.17,.55-.09,1-.55,1.37-1,1.52-1.84,2.51-4.14,2.78-6.46,.09-.8,.09-1.66-.36-2.26-.39-.52-1.07-.75-1.74-.7s-1.33,.36-1.91,.75c-1.64,1.12-2.8,3.03-3.01,4.99-.13,1.18,.05,2.43-.52,3.5"/><path class="cls-14" d="M28.33,214.95l10.45,3.47c1.71,.57,3.41,1.15,5.13,1.7,1.38,.45,2.46,.22,3.43-.89,1.86-2.12,3.38-5.37,3.19-8.26-.08-1.23-.73-2.35-1.97-2.72-1.31-.38-2.66,.17-3.71,.94-1.22,.89-2.15,2.13-2.7,3.53-.26,.66-.43,1.35-.5,2.06-.11,1.01,.04,2.09-.4,3.04-.48,1.06,1.09,1.99,1.58,.92,.65-1.43,.41-2.85,.71-4.34,.26-1.29,.96-2.5,1.94-3.38,.56-.5,1.32-1.04,2.1-1.07,1.05-.04,1.18,.86,1.13,1.7-.11,1.53-.65,3.08-1.39,4.42-.38,.68-.82,1.4-1.36,1.97-.7,.72-1.31,.39-2.15,.11l-4.93-1.64-10.05-3.34c-1.12-.37-1.6,1.39-.48,1.76h0Z"/></g><path class="cls-14" d="M42.35,217.21c-4.47-1.49-8.94-2.97-13.41-4.46-.59-.2-1.23,.14-1.55,.63-3.78,5.9-7.57,11.81-11.35,17.71l-1.62,2.52c-.5,.78,.02,1.74,.82,2.01,4.45,1.48,8.9,2.96,13.35,4.44,1.68,.56,2.39-2.09,.73-2.64-4.45-1.48-8.9-2.96-13.35-4.44l.82,2.01c3.78-5.9,7.57-11.81,11.35-17.71l1.62-2.52-1.55,.63c4.47,1.49,8.94,2.97,13.41,4.46,1.68,.56,2.39-2.09,.73-2.64h0Z"/><path class="cls-14" d="M42.35,217.21c-4.47-1.49-8.94-2.97-13.41-4.46-.59-.2-1.23,.14-1.55,.63-3.78,5.9-7.57,11.81-11.35,17.71l-1.62,2.52c-.5,.78,.02,1.74,.82,2.01,4.45,1.48,8.9,2.96,13.35,4.44,1.68,.56,2.39-2.09,.73-2.64-4.45-1.48-8.9-2.96-13.35-4.44l.82,2.01c3.78-5.9,7.57-11.81,11.35-17.71l1.62-2.52-1.55,.63c4.47,1.49,8.94,2.97,13.41,4.46,1.68,.56,2.39-2.09,.73-2.64h0Z"/><path class="cls-14" d="M27,213.15c-3.78,5.9-7.57,11.81-11.35,17.71-.54,.84-1.08,1.68-1.62,2.52-1.27,1.98,1.89,3.81,3.15,1.84,3.78-5.9,7.57-11.81,11.35-17.71,.54-.84,1.08-1.68,1.62-2.52,1.27-1.98-1.89-3.81-3.15-1.84h0Z"/><path class="cls-14" d="M62.81,196.94c1.14-6.91,2.28-13.81,3.42-20.72l.49-2.99c.16-.98-.26-1.95-1.27-2.24-.87-.25-2.08,.3-2.24,1.27-1.14,6.91-2.28,13.81-3.42,20.72l-.49,2.99c-.16,.98,.26,1.95,1.27,2.24,.87,.25,2.08-.3,2.24-1.27h0Z"/><g><path class="cls-11" d="M61.77,197.04c-4.87-2.33-9.75-4.67-14.62-7-.32-.15-.64-.31-.86-.61-.32-.44-.33-1.08-.29-1.66,.18-2.36,1.04-4.69,2.41-6.54,.47-.64,1.06-1.25,1.78-1.38,.63-.11,1.26,.19,1.7,.69s.69,1.16,.83,1.85c.4,1.92-.08,4.09-1.26,5.64-.71,.94-1.67,1.71-2,2.87"/><path class="cls-14" d="M62.23,196.25l-9.75-4.67c-1.62-.78-3.27-1.52-4.87-2.33-.81-.41-.76-.94-.67-1.78,.07-.75,.24-1.5,.46-2.23,.43-1.39,1.12-2.95,2.17-3.99,1.41-1.4,2.24,.69,2.36,1.92,.14,1.45-.25,2.97-1.09,4.16-.79,1.13-1.81,1.96-2.25,3.31-.37,1.12,1.4,1.6,1.76,.48,.42-1.3,1.68-2.16,2.35-3.32s1.05-2.58,1.08-3.96c.02-1.3-.25-2.74-1.08-3.77s-2.2-1.49-3.42-.87-2.05,2-2.65,3.16c-.7,1.34-1.18,2.79-1.41,4.28-.2,1.31-.37,2.86,.79,3.77,.56,.44,1.26,.69,1.9,.99l2.59,1.24c3.6,1.73,7.21,3.45,10.81,5.18,1.05,.5,1.98-1.07,.92-1.58h0Z"/></g><g><path class="cls-11" d="M65.47,171.86c-4.58-3.12-9.15-6.25-13.73-9.37-.3-.2-.6-.42-.78-.75-.26-.49-.17-1.13-.04-1.7,.55-2.33,1.77-4.51,3.45-6.13,.58-.56,1.27-1.08,2.02-1.08,.65,0,1.25,.4,1.61,.96s.52,1.27,.56,1.98c.11,1.98-.72,4.06-2.14,5.41-.86,.82-1.96,1.43-2.47,2.54"/><path class="cls-14" d="M65.93,171.07l-9.05-6.18c-1.46-.99-2.92-1.98-4.37-2.98-.25-.18-.65-.36-.77-.67-.15-.36,.05-.91,.14-1.26,.19-.73,.45-1.44,.77-2.12,.63-1.3,1.49-2.57,2.59-3.51,.64-.55,1.38-.91,1.98-.1,.43,.58,.46,1.42,.44,2.11-.06,1.45-.67,2.91-1.67,3.96s-2.16,1.66-2.82,2.93c-.54,1.04,1.03,1.96,1.58,.92,.64-1.23,1.96-1.85,2.83-2.89s1.54-2.39,1.78-3.78,.21-2.96-.56-4.17c-.72-1.13-2.05-1.69-3.32-1.24s-2.3,1.66-3.1,2.73c-.89,1.19-1.57,2.52-2.03,3.92-.4,1.22-.83,2.79,.13,3.87,.48,.53,1.16,.9,1.75,1.3l2.5,1.7,10.29,7.03c.97,.66,1.89-.92,.92-1.58h0Z"/></g><g><path class="cls-11" d="M37.44,268.94c-4.39-.54-8.78-1.07-13.17-1.61-.29-.03-.58-.07-.85-.28-.39-.3-.62-.9-.79-1.46-.69-2.28-.87-4.76-.51-6.97,.13-.76,.34-1.54,.83-1.9,.42-.32,.99-.25,1.48,.07s.91,.86,1.26,1.45c.96,1.67,1.36,3.87,1.04,5.73-.19,1.12-.63,2.18-.47,3.38"/><path class="cls-14" d="M37.44,268.03c-3.09-.38-6.18-.76-9.28-1.14l-2.39-.29c-.62-.08-1.6,.02-1.97-.54-.32-.48-.43-1.23-.56-1.78-.17-.73-.28-1.46-.34-2.21-.09-1.29-.11-2.72,.27-3.97,.06-.21,.15-.61,.39-.69s.61,.3,.75,.45c.46,.47,.78,1.11,1.02,1.71,.46,1.15,.67,2.43,.57,3.67-.11,1.39-.7,2.67-.55,4.09,.12,1.16,1.94,1.17,1.82,0-.14-1.36,.42-2.63,.54-3.97,.11-1.27-.06-2.6-.46-3.8s-1.01-2.49-2-3.3c-.94-.77-2.3-.96-3.17,.02s-.94,2.44-1.03,3.63c-.09,1.39,.02,2.8,.27,4.17,.22,1.18,.49,2.77,1.45,3.6,.47,.41,1.04,.49,1.64,.57,.8,.1,1.6,.2,2.39,.29,3.54,.43,7.08,.87,10.62,1.3,1.16,.14,1.15-1.68,0-1.82h0Z"/></g><line class="cls-12" x1="198.29" y1="28.25" x2="209.72" y2="58.38"/><line class="cls-12" x1="192.58" y1="30.73" x2="204.01" y2="60.85"/><line class="cls-12" x1="287.21" y1="13.3" x2="287.57" y2="45.52"/><line class="cls-12" x1="282.55" y1="13.07" x2="282.91" y2="45.29"/><line class="cls-12" x1="404.99" y1="40.47" x2="391.27" y2="69.63"/><line class="cls-12" x1="400.9" y1="38.23" x2="387.18" y2="67.39"/><line class="cls-12" x1="529.95" y1="154.32" x2="501.74" y2="172.66"/><line class="cls-12" x1="527.52" y1="150.32" x2="499.31" y2="168.65"/><line class="cls-12" x1="566.03" y1="297.86" x2="535.21" y2="297.76"/><line class="cls-12" x1="566.48" y1="293.24" x2="535.66" y2="293.13"/><line class="cls-12" x1="41.52" y1="288.56" x2="9.3" y2="288.55"/><line class="cls-12" x1="41.81" y1="283.91" x2="9.58" y2="283.89"/><line class="cls-12" x1="86.63" y1="150.24" x2="60.28" y2="131.69"/><line class="cls-12" x1="89.54" y1="146.6" x2="63.2" y2="128.04"/><g><path class="cls-11" d="M534.33,236.89c5.34-1.6,10.68-3.19,16.01-4.79,.35-.1,.71-.21,1.07-.14,.54,.1,.96,.55,1.31,1,1.4,1.83,2.24,4.09,2.37,6.36,.04,.78-.02,1.63-.5,2.2-.42,.5-1.11,.71-1.78,.65s-1.3-.37-1.86-.78c-1.56-1.12-2.59-3.01-2.69-4.93-.06-1.16,.2-2.37-.3-3.43"/><path class="cls-14" d="M534.57,237.77l9.76-2.92,5.08-1.52c.77-.23,1.6-.7,2.29-.16,.53,.41,.95,1.28,1.25,1.85,.7,1.31,1.15,2.81,1.22,4.3,.03,.59,.08,1.39-.47,1.77-.65,.46-1.6-.01-2.15-.39-1.18-.81-2.01-2.13-2.29-3.53-.3-1.47,.15-2.95-.42-4.38-.43-1.08-2.19-.61-1.76,.48,.57,1.43,.11,3.04,.46,4.54,.31,1.3,.99,2.52,1.91,3.48,1.66,1.73,5.31,2.91,6.34-.15,.86-2.55-.48-5.99-1.9-8.1-.71-1.06-1.58-2.13-2.98-2.02-.74,.06-1.49,.37-2.2,.58l-2.73,.82c-3.97,1.19-7.94,2.38-11.91,3.56-1.12,.34-.64,2.1,.48,1.76h0Z"/></g><g><path class="cls-11" d="M537.37,263.07c6.28-.5,12.56-1.01,18.85-1.51,.41-.03,.83-.06,1.21,.08,.55,.21,.87,.74,1.11,1.26,.96,2.1,1.17,4.52,.62,6.8-.19,.79-.52,1.61-1.22,2.08-.61,.41-1.43,.48-2.13,.28s-1.29-.64-1.78-1.15c-1.35-1.43-1.89-3.52-1.4-5.44,.3-1.16,.94-2.31,.73-3.47"/><path class="cls-14" d="M537.37,263.98l11.14-.89,5.57-.45c.8-.06,1.64-.21,2.45-.19,.98,.02,1.19,.74,1.48,1.59,.56,1.61,.69,3.36,.35,5.04-.15,.72-.34,1.59-1.03,1.98-.82,.47-1.77,.04-2.4-.54-1.11-1.01-1.68-2.58-1.54-4.07s1.07-2.85,.89-4.44c-.13-1.15-1.96-1.17-1.82,0,.18,1.56-.82,3.03-.89,4.6-.07,1.39,.32,2.84,1.08,4,1.45,2.21,4.95,3.72,6.73,.97,1.64-2.54,1.19-6.55-.04-9.14-.59-1.26-1.56-1.88-2.95-1.8-1.91,.1-3.82,.3-5.72,.46l-13.28,1.07c-1.16,.09-1.17,1.92,0,1.82h0Z"/></g><path class="cls-14" d="M538.46,263.33c1.07-2.48,1.92-5.04,2.51-7.68,.11-.48-.14-.99-.64-1.12-.46-.13-1.02,.15-1.12,.64-.55,2.48-1.32,4.91-2.32,7.24-.19,.45-.13,.98,.33,1.25,.38,.22,1.05,.13,1.25-.33h0Z"/><path class="cls-14" d="M542.67,263.08c1.33-2.26,2.08-4.81,2.24-7.42,.03-.49-.44-.91-.91-.91-.52,0-.88,.42-.91,.91-.14,2.29-.83,4.52-1.99,6.5-.59,1.02,.98,1.93,1.58,.92h0Z"/><g><path class="cls-11" d="M515.26,187.71c5.92-2.17,11.83-4.34,17.75-6.51,.38-.14,.79-.28,1.18-.25,.59,.05,1.04,.48,1.41,.92,1.48,1.77,2.34,4.04,2.42,6.39,.03,.81-.07,1.69-.61,2.33-.48,.56-1.25,.85-1.97,.84s-1.42-.27-2.02-.63c-1.68-1.02-2.76-2.88-2.81-4.86-.03-1.19,.29-2.48-.23-3.53"/><path class="cls-14" d="M515.5,188.59l10.57-3.87,5.07-1.86c.78-.29,1.69-.79,2.5-.91,1.07-.16,1.64,.92,2.12,1.72,.82,1.38,1.31,2.98,1.35,4.59,.02,.86-.08,1.77-.99,2.14-.75,.31-1.59,0-2.25-.38-1.19-.72-2.03-1.98-2.28-3.34-.27-1.51,.27-3.04-.34-4.51-.44-1.07-2.2-.6-1.76,.48,.58,1.42,.04,3.02,.34,4.51,.27,1.36,1,2.66,2.03,3.6,1.88,1.73,5.52,2.49,6.74-.43,1.14-2.7-.33-6.47-1.98-8.64-.89-1.16-1.94-1.93-3.46-1.51-1.85,.52-3.66,1.33-5.46,2l-12.68,4.65c-1.09,.4-.62,2.16,.48,1.76h0Z"/></g><path class="cls-14" d="M516.4,187.44c.32-2.72,.4-5.46,.23-8.19-.03-.49-.4-.91-.91-.91-.47,0-.94,.42-.91,.91,.17,2.73,.1,5.47-.23,8.19-.06,.49,.46,.91,.91,.91,.54,0,.85-.42,.91-.91h0Z"/><path class="cls-14" d="M520.37,186.31c.67-2.54,.72-5.19,.17-7.76-.1-.48-.67-.76-1.12-.64-.5,.14-.74,.64-.64,1.12,.48,2.24,.41,4.57-.17,6.79-.3,1.14,1.46,1.62,1.76,.48h0Z"/><path class="cls-14" d="M154.31,86c4.69-5.2,9.39-10.4,14.08-15.6,.67-.75,1.35-1.49,2.02-2.24,1.57-1.74-1-4.33-2.58-2.58-4.69,5.2-9.39,10.4-14.08,15.6-.67,.75-1.35,1.49-2.02,2.24-1.57,1.74,1,4.33,2.58,2.58h0Z"/><g><path class="cls-11" d="M153.31,85.59c-2.84-4.6-5.68-9.19-8.52-13.79-.18-.3-.37-.61-.4-.98-.03-.54,.3-1.09,.65-1.55,1.43-1.89,3.41-3.39,5.57-4.2,.74-.28,1.57-.48,2.25-.2,.59,.25,.96,.84,1.06,1.49s-.05,1.35-.3,2.01c-.7,1.83-2.28,3.39-4.1,4.06-1.1,.41-2.33,.54-3.24,1.34"/><path class="cls-14" d="M154.1,85.13c-1.81-2.93-3.62-5.86-5.43-8.79l-2.66-4.31c-.28-.46-.6-.8-.58-1.35,.02-.5,.28-.78,.59-1.16,.46-.57,.98-1.1,1.54-1.58,1.09-.93,2.42-1.76,3.8-2.16,2.19-.62,1.78,1.73,1.09,2.97s-1.83,2.29-3.16,2.8-2.53,.69-3.64,1.57c-.92,.73,.38,2.02,1.29,1.29,1.09-.87,2.67-.92,3.89-1.58s2.21-1.63,2.95-2.76c1.22-1.89,1.9-5.75-1.21-6.21-1.35-.2-2.76,.48-3.92,1.11-1.29,.71-2.49,1.65-3.48,2.74-.85,.93-1.94,2.16-1.61,3.53,.18,.75,.69,1.41,1.09,2.06l1.49,2.41c2.13,3.45,4.26,6.9,6.39,10.34,.62,1,2.19,.08,1.58-.92h0Z"/></g><g><path class="cls-11" d="M170.03,66.4c-2.16-5.1-4.33-10.2-6.49-15.3-.14-.33-.28-.68-.25-1.05,.05-.55,.46-1.04,.89-1.45,1.72-1.66,3.93-2.84,6.22-3.29,.79-.16,1.65-.22,2.28,.18,.55,.35,.84,1.01,.84,1.68s-.25,1.35-.6,1.97c-.98,1.72-2.8,3.03-4.73,3.4-1.17,.22-2.42,.15-3.45,.8"/><path class="cls-14" d="M170.82,65.94c-1.35-3.19-2.7-6.38-4.06-9.56-.7-1.66-1.41-3.31-2.11-4.97-.18-.43-.56-1.04-.36-1.53,.12-.3,.54-.65,.78-.87,.57-.53,1.2-.99,1.87-1.39,1.23-.74,2.7-1.38,4.15-1.51,2.25-.2,1.46,2.13,.59,3.24s-2.07,1.9-3.42,2.23-2.71,.24-3.97,.96c-1.02,.58-.1,2.15,.92,1.58,1.29-.73,2.9-.49,4.28-1.01,1.24-.46,2.37-1.2,3.25-2.19,1.52-1.71,2.9-5.59-.25-6.51-2.59-.75-5.97,1.1-7.92,2.64-1.07,.84-2.39,1.96-2.15,3.48,.11,.68,.48,1.35,.75,1.98l1.14,2.68c1.65,3.89,3.3,7.78,4.95,11.67,.46,1.08,2.03,.15,1.58-.92h0Z"/></g><g><path class="cls-11" d="M38.07,318.86c-4.42,.12-8.84,.23-13.26,.35-.29,0-.59,.01-.88-.15-.43-.24-.74-.8-1-1.33-1.02-2.16-1.57-4.58-1.53-6.82,.01-.77,.11-1.58,.54-2,.37-.37,.95-.39,1.48-.15s1.03,.71,1.46,1.25c1.2,1.51,1.92,3.63,1.88,5.51-.03,1.14-.3,2.25,.04,3.41"/><path class="cls-14" d="M38.07,317.95c-3.2,.08-6.41,.17-9.61,.25l-2.32,.06c-.56,.01-1.46,.23-1.9-.13s-.7-1.26-.89-1.75c-.25-.65-.46-1.32-.62-1.99-.31-1.28-.53-2.68-.38-4,.07-.62,.17-1.08,.85-.74,.58,.29,1.02,.92,1.37,1.46,.69,1.08,1.15,2.34,1.26,3.62,.13,1.5-.27,2.94,.09,4.44,.28,1.14,2.04,.66,1.76-.48-.35-1.42,.1-2.9-.07-4.35-.16-1.29-.56-2.54-1.19-3.68-.58-1.05-1.41-2.16-2.52-2.69-1.04-.5-2.29-.31-2.91,.73s-.53,2.48-.42,3.64c.12,1.4,.42,2.8,.89,4.12,.39,1.1,.86,2.57,1.86,3.27s2.66,.37,3.84,.34c3.65-.1,7.29-.19,10.94-.29,1.17-.03,1.18-1.86,0-1.82h0Z"/></g><g><path class="cls-11" d="M32.54,344.63c-4.42,.12-8.84,.23-13.26,.35-.29,0-.59,.01-.88-.15-.43-.24-.74-.8-1-1.33-1.02-2.16-1.57-4.58-1.53-6.82,.01-.77,.11-1.58,.54-2,.37-.37,.95-.39,1.48-.15s1.03,.71,1.46,1.25c1.2,1.51,1.92,3.63,1.88,5.51-.03,1.14-.3,2.25,.04,3.41"/><path class="cls-14" d="M32.54,343.72c-3.2,.08-6.41,.17-9.61,.25l-2.32,.06c-.56,.01-1.46,.23-1.9-.13s-.7-1.26-.89-1.75c-.25-.65-.46-1.32-.62-1.99-.31-1.28-.53-2.68-.38-4,.07-.62,.17-1.08,.85-.74,.58,.29,1.02,.92,1.37,1.46,.69,1.08,1.15,2.34,1.26,3.62,.13,1.5-.27,2.94,.09,4.44,.28,1.14,2.04,.66,1.76-.48-.35-1.42,.1-2.9-.07-4.35-.16-1.29-.56-2.54-1.19-3.68-.58-1.05-1.41-2.16-2.52-2.69-1.04-.5-2.29-.31-2.91,.73s-.53,2.48-.42,3.64c.12,1.4,.42,2.8,.89,4.12,.39,1.1,.86,2.57,1.86,3.27s2.66,.37,3.84,.34c3.65-.1,7.29-.19,10.94-.29,1.17-.03,1.18-1.86,0-1.82h0Z"/></g><g><path class="cls-11" d="M569.47,324.05c-5.38-1.32-10.76-2.63-16.14-3.95-.35-.09-.71-.17-1.08-.08-.54,.14-.95,.63-1.29,1.11-1.37,1.96-2.17,4.33-2.25,6.67-.03,.8,.05,1.67,.54,2.23,.43,.49,1.13,.66,1.79,.56s1.29-.46,1.85-.91c1.54-1.24,2.54-3.25,2.59-5.21,.03-1.19-.25-2.42,.24-3.53"/><path class="cls-14" d="M569.72,323.17c-3.54-.87-7.09-1.73-10.63-2.6-1.77-.43-3.54-.88-5.32-1.3-1.46-.35-2.51-.06-3.42,1.16-1.7,2.26-2.86,5.55-2.51,8.4,.16,1.24,.85,2.3,2.11,2.61,1.36,.33,2.7-.37,3.7-1.22,1.16-.99,2-2.36,2.43-3.82,.51-1.72-.09-3.57,.51-5.23,.4-1.11-1.36-1.58-1.76-.48-.53,1.47-.08,2.96-.33,4.47-.22,1.36-.91,2.64-1.91,3.57-.51,.47-1.39,1.15-2.16,.96s-.81-.92-.82-1.58c-.03-1.57,.4-3.23,1.06-4.65,.3-.64,.65-1.3,1.07-1.86,.69-.91,1.31-.62,2.32-.37l4.92,1.2c3.41,.83,6.83,1.67,10.24,2.5,1.14,.28,1.63-1.48,.48-1.76h0Z"/></g><path class="cls-14" d="M544.1,343.23c4.58,1.12,9.15,2.24,13.73,3.36,.57,.14,1.26-.09,1.55-.63,3.29-6.19,6.58-12.38,9.88-18.58,.47-.88,.94-1.76,1.41-2.64,.4-.76,.07-1.79-.82-2.01-4.55-1.11-9.11-2.23-13.66-3.34-1.71-.42-2.44,2.22-.73,2.64,4.55,1.11,9.11,2.23,13.66,3.34l-.82-2.01c-3.29,6.19-6.58,12.38-9.88,18.58-.47,.88-.94,1.76-1.41,2.64l1.55-.63c-4.58-1.12-9.15-2.24-13.73-3.36-1.71-.42-2.44,2.22-.73,2.64h0Z"/><polygon class="cls-3" points="446.4 129.75 428.87 113.04 368.76 176.1 386.3 192.82 404.58 210.24 421.3 192.69 403.39 175.62 446.4 129.75"/><polyline class="cls-3" points="285.63 148.73 308.86 155.63 320.6 116.11 323.5 158.14 348.54 124.53 348.69 124.35 348.63 124.56 336.85 163.94 336.86 163.94 360.09 170.84 385.98 87.7 365.85 81.43 361.74 80.15 336.9 112.51 333.74 71.83 329.61 70.66 309.31 64.93 285.63 148.73 308.86 155.63"/><path class="cls-3" d="M182.93,106.9s-11.22-14.57-38.83,4.4h.02c-27.06,19.72-17.06,35.15-17.06,35.15l31.26,44.16,.04,.06s11.22,14.57,38.83-4.4h-.02c27.06-19.72,17.06-35.15,17.06-35.15l-31.26-44.16-.04-.06Zm5.34,50.26s6.63,9.7-.29,14.96h0s0,0,0,0c-7.27,4.78-14.21-4.7-14.21-4.7l-.03-.04-19.99-28.24s-6.63-9.7,.29-14.96h0s0,0,0,0c0,0,0,0,0,0,7.27-4.78,14.21,4.7,14.21,4.7l.03,.04,19.99,28.24Z"/><circle class="cls-14" cx="450.36" cy="79.9" r=".84"/><circle class="cls-14" cx="458.39" cy="86.33" r=".84"/><circle class="cls-14" cx="444.69" cy="86.98" r=".84"/><circle class="cls-14" cx="452.72" cy="93.4" r=".84"/><path class="cls-3" d="M239.54,68.84l-1.4,.37h0s-23.44,6.15-23.44,6.15c-.05,.08,22.12,84.27,22.12,84.27l23.44-6.15-9.45-36v-.05s1.39-.39,1.39-.39c14.81-3.89,23.98-17.83,20.49-31.14-3.49-13.31-18.33-20.94-33.14-17.05Zm7.25,33.82l-5.28-20.12c6.85-1.8,13.58,1.25,15.04,6.81,1.46,5.56-2.91,11.52-9.76,13.32Z"/></g></g></svg>