<?xml version="1.0" encoding="UTF-8" standalone="no"?>
<!-- Created with Inkscape (http://www.inkscape.org/) -->

<svg
   width="210mm"
   height="297mm"
   viewBox="0 0 210 297"
   version="1.1"
   id="svg5"
   inkscape:version="1.2.2 (b0a8486, 2022-12-01)"
   sodipodi:docname="Charles Coasters.svg"
   xml:space="preserve"
   xmlns:inkscape="http://www.inkscape.org/namespaces/inkscape"
   xmlns:sodipodi="http://sodipodi.sourceforge.net/DTD/sodipodi-0.dtd"
   xmlns="http://www.w3.org/2000/svg"
   xmlns:svg="http://www.w3.org/2000/svg"><sodipodi:namedview
     id="namedview7"
     pagecolor="#ffffff"
     bordercolor="#000000"
     borderopacity="0.25"
     inkscape:showpageshadow="2"
     inkscape:pageopacity="0.0"
     inkscape:pagecheckerboard="0"
     inkscape:deskcolor="#d1d1d1"
     inkscape:document-units="mm"
     showgrid="false"
     inkscape:zoom="0.78239463"
     inkscape:cx="570.68388"
     inkscape:cy="535.53537"
     inkscape:window-width="1421"
     inkscape:window-height="764"
     inkscape:window-x="0"
     inkscape:window-y="25"
     inkscape:window-maximized="0"
     inkscape:current-layer="layer1" /><defs
     id="defs2"><inkscape:perspective
       sodipodi:type="inkscape:persp3d"
       inkscape:vp_x="0 : 148.5 : 1"
       inkscape:vp_y="0 : 1000 : 0"
       inkscape:vp_z="210 : 148.5 : 1"
       inkscape:persp3d-origin="105 : 99 : 1"
       id="perspective602" /><rect
       x="442.66477"
       y="247.2894"
       width="131.18061"
       height="56.937965"
       id="rect374" /><rect
       x="569.38936"
       y="340.9159"
       width="325.36535"
       height="57.417415"
       id="rect368" /></defs><g
     inkscape:label="Layer 1"
     inkscape:groupmode="layer"
     id="layer1"><text
       xml:space="preserve"
       style="font-size:3.175px;text-align:center;text-anchor:middle;fill:#000000;stroke-width:0.264583"
       x="85.136765"
       y="58.551311"
       id="text167"><tspan
         sodipodi:role="line"
         id="tspan165"
         style="stroke-width:0.264583"
         x="85.136765"
         y="58.551311"></tspan><tspan
         sodipodi:role="line"
         style="stroke-width:0.264583"
         id="tspan169"
         x="85.136765"
         y="62.520061" /></text><text
       xml:space="preserve"
       transform="scale(0.26458333)"
       id="text366"
       style="text-align:start;white-space:pre;shape-inside:url(#rect368);display:inline;fill:#000000" /><text
       xml:space="preserve"
       transform="scale(0.26458333)"
       id="text372"
       style="font-style:normal;font-variant:normal;font-weight:normal;font-stretch:normal;font-family:'ringbearer medium';-inkscape-font-specification:'ringbearer medium, ';text-align:center;white-space:pre;shape-inside:url(#rect374);display:inline;fill:#000000" /><circle
       style="fill:#cccccc;stroke-width:0.306127"
       id="path478"
       cx="84.83532"
       cy="90.77594"
       r="41.91" /><circle
       style="fill:#cccccc;stroke-width:0.306127"
       id="path478-1"
       cx="154.88235"
       cy="176.90666"
       r="41.91" /><text
       xml:space="preserve"
       style="font-style:normal;font-variant:normal;font-weight:normal;font-stretch:normal;font-size:3.52778px;font-family:Herculanum;-inkscape-font-specification:Herculanum;text-align:center;text-anchor:middle;white-space:pre;inline-size:153.107;display:inline;fill:#000000;stroke-width:0.264583"
       x="90.572372"
       y="38.295719"
       id="text113"
       transform="translate(-5.9559118,42.116248)"><tspan
         x="90.572372"
         y="38.295719"
         id="tspan834">“Still round the corner there may wait
</tspan><tspan
         x="90.572372"
         y="42.705443"
         id="tspan836">A new road or a secret gate
</tspan><tspan
         x="90.572372"
         y="47.115169"
         id="tspan838">And though I oft have passed them by
</tspan><tspan
         x="90.572372"
         y="51.524894"
         id="tspan840">A day will come at last when I
</tspan><tspan
         x="90.572372"
         y="55.934619"
         id="tspan842">Shall take the hidden paths that run
</tspan><tspan
         x="90.572372"
         y="60.344344"
         id="tspan844">West of the Moon, East of the Sun.”
</tspan><tspan
         x="90.572372"
         y="64.754069"
         id="tspan846">
</tspan><tspan
         x="90.572372"
         y="69.163795"
         id="tspan848">― J.R.R. Tolkien</tspan></text><path
       d="m 165.37679,184.60462 c -0.51728,0.0711 -1.04549,0.1071 -1.5834,0.1071 -5.97741,0 -10.82332,-4.51521 -10.82332,-10.08471 0,-3.72507 2.16734,-6.97714 5.39109,-8.72454 -0.0557,0 -0.11264,-0.002 -0.16839,-0.002 -0.41797,0 -0.83109,0.0226 -1.23814,0.0643 0.034,-0.0519 0.0533,-0.11182 0.0435,-0.17609 l -3.68167,-26.0539 c -0.0204,-0.14898 -0.17081,-0.25509 -0.32831,-0.23478 -0.1599,0.0192 -0.27257,0.15691 -0.25198,0.30591 l 3.68166,26.0539 c 0.008,0.0631 0.0423,0.11623 0.0873,0.15802 -0.82866,0.11626 -1.62702,0.31945 -2.38662,0.59488 0.0169,-0.0564 0.0194,-0.11853 -0.007,-0.17721 L 143.3187,142.15699 c -0.0618,-0.13886 -0.2326,-0.20544 -0.38283,-0.14788 -0.14901,0.0576 -0.22049,0.21673 -0.1587,0.35669 l 10.79304,24.2783 c 0.0255,0.0576 0.0704,0.10159 0.12477,0.12981 -0.75958,0.30929 -1.47558,0.69421 -2.13705,1.1446 0,-0.0564 -0.0157,-0.11397 -0.0558,-0.16255 l -17.16891,-20.84902 c -0.0982,-0.11966 -0.28226,-0.14221 -0.41068,-0.0508 -0.12842,0.0914 -0.15265,0.26299 -0.0545,0.38266 l 17.16904,20.84901 c 0.0399,0.0485 0.0958,0.0745 0.15506,0.0903 -0.64449,0.47635 -1.23086,1.01704 -1.74938,1.61192 -0.0181,-0.0485 -0.046,-0.095 -0.0934,-0.12869 l -22.37629,-15.99721 c -0.12842,-0.0915 -0.31256,-0.069 -0.4107,0.0508 -0.0982,0.11965 -0.0739,0.29123 0.0545,0.38267 l 22.37594,15.99735 c 0.0448,0.0326 0.0981,0.0474 0.15143,0.0519 -0.48338,0.60503 -0.89649,1.26201 -1.23205,1.95734 -0.0303,-0.035 -0.0655,-0.0655 -0.11264,-0.0836 l -26.0564,-10.05627 c -0.15023,-0.0576 -0.32104,0.008 -0.38283,0.14785 -0.0618,0.13886 0.008,0.29915 0.1587,0.35671 l 26.05641,10.05649 c 0.0365,0.0146 0.075,0.0204 0.11147,0.0204 0.008,0 0.0169,-0.002 0.0254,-0.003 -0.29439,0.69082 -0.51244,1.41553 -0.64329,2.16842 -0.034,-0.0192 -0.0715,-0.0315 -0.11262,-0.0371 l -27.96222,-3.43043 c -0.15749,-0.0192 -0.30772,0.0858 -0.32831,0.23478 -0.0206,0.14899 0.0921,0.28671 0.25198,0.30589 l 27.96206,3.43045 c 0.0134,9.6e-4 0.0255,0.002 0.0388,0.002 0.0266,0 0.0521,-0.006 0.0775,-0.0135 -0.0484,0.39284 -0.0751,0.79131 -0.0751,1.19654 0,0.3522 0.0194,0.701 0.0557,1.04528 -0.0314,-0.005 -0.063,-0.0101 -0.0969,-0.005 l -27.96205,3.43043 c -0.15992,0.0193 -0.27258,0.1569 -0.25199,0.3059 0.0194,0.13772 0.14538,0.23707 0.28954,0.23707 0.0121,0 0.0255,0 0.0388,-0.002 l 27.96206,-3.43045 c 0.0327,-0.003 0.0606,-0.0158 0.0884,-0.0281 0.11994,0.74953 0.32589,1.47309 0.60695,2.1628 -0.0254,0.003 -0.0521,0.005 -0.0775,0.0145 l -26.0564,10.05686 c -0.14901,0.0576 -0.22049,0.21674 -0.1587,0.3567 0.0472,0.1051 0.15506,0.16819 0.27016,0.16819 0.0375,0 0.0751,-0.007 0.11148,-0.0203 l 26.05638,-10.05725 c 0.0242,-0.009 0.0424,-0.0249 0.063,-0.0395 0.32347,0.68748 0.72327,1.33652 1.18968,1.93931 -0.0194,0.008 -0.0412,0.0135 -0.058,0.027 l -22.37595,15.99739 c -0.12842,0.0914 -0.15264,0.26301 -0.0545,0.38267 0.0582,0.07 0.14416,0.10709 0.2326,0.10709 0.0618,0 0.12477,-0.018 0.17808,-0.0565 l 22.37595,-15.99764 c 0.017,-0.0128 0.0277,-0.0293 0.0412,-0.0441 0.50033,0.58246 1.06365,1.11529 1.68393,1.5871 -0.0121,0.0101 -0.0266,0.018 -0.0375,0.0305 l -17.1691,20.84907 c -0.0982,0.1196 -0.0739,0.29123 0.0545,0.38268 0.0533,0.0384 0.1163,0.0564 0.17808,0.0564 0.0873,0 0.17445,-0.037 0.2326,-0.10709 l 17.16908,-20.84897 c 0.01,-0.0127 0.0133,-0.0259 0.0206,-0.0395 0.64088,0.44022 1.33385,0.81614 2.06679,1.12316 -0.006,0.0101 -0.0158,0.0169 -0.0206,0.0281 l -10.79306,24.2782 c -0.0618,0.13886 0.008,0.29916 0.1587,0.35671 0.0364,0.0146 0.0751,0.0202 0.11148,0.0202 0.11509,0 0.22412,-0.0632 0.27016,-0.16819 l 10.79305,-24.27829 c 0.005,-0.0101 0.003,-0.0202 0.006,-0.0305 0.73537,0.26639 1.50706,0.46508 2.30786,0.58359 -0.002,0.008 -0.007,0.0145 -0.008,0.0236 l -3.68168,26.05389 c -0.0204,0.149 0.0922,0.28671 0.25199,0.3059 0.0133,9.5e-4 0.0255,0.002 0.0389,0.002 0.14414,0 0.27014,-0.0994 0.28952,-0.23705 l 3.68169,-26.05389 c 0,-0.008 -0.002,-0.0158 -9.4e-4,-0.0248 0.39252,0.0384 0.7923,0.06 1.19572,0.06 0.40342,0 0.80201,-0.0204 1.19574,-0.06 0,0.008 -0.002,0.0158 -9.3e-4,0.0248 l 3.68165,26.05389 c 0.0194,0.13773 0.14539,0.23705 0.28956,0.23705 0.0133,0 0.0254,0 0.0389,-0.002 0.15993,-0.0193 0.2726,-0.1569 0.252,-0.3059 l -3.68167,-26.05389 c 0,-0.009 -0.006,-0.0146 -0.008,-0.0236 0.80077,-0.11744 1.57249,-0.31607 2.30786,-0.58359 0.003,0.0101 0.002,0.0202 0.006,0.0305 l 10.79304,24.27829 c 0.0471,0.10507 0.15506,0.16819 0.27015,0.16819 0.0375,0 0.0751,-0.007 0.11149,-0.0202 0.14898,-0.0576 0.22047,-0.21673 0.1587,-0.35671 l -10.79302,-24.27837 c -0.005,-0.0117 -0.0146,-0.0181 -0.0204,-0.0281 0.73415,-0.30705 2.58407,-1.37828 2.58407,-1.37828 z"
       id="path229"
       style="stroke-width:0.116939" /></g></svg>
