<?xml version="1.0" encoding="UTF-8"?>
<svg xmlns="http://www.w3.org/2000/svg" version="1.1" viewBox="0 0 216 216">
  <defs>
    <style>
      .cls-1 {
        fill: none;
        stroke: #000;
        stroke-miterlimit: 10;
      }
    </style>
  </defs>
  <!-- Generator: Adobe Illustrator 28.7.8, SVG Export Plug-In . SVG Version: 1.2.0 Build 200)  -->
  <g>
    <g id="Layer_1">
      <path class="cls-1" d="M85.58,68.45c1.28-1.86,4.61-1.65,6.28-.63,1.64,1,3.05,2.24,4.36,3.65,2.49,2.69,5.36,4.97,8.27,7.17,4.97,3.75,10.52,6.46,16.28,8.75,3.94,1.57,7.98,2.88,12.06,4.03,2.64.74,5.3,1.36,8,1.8,2.78.46,5.47.16,8.07-.79,3.29-1.21,6.55-2.53,9.8-3.85,2-.81,3.82-1.94,5.38-3.44,2.35-2.26,2.64-5,1.8-8-.63-2.25-1.91-4.1-3.46-5.79-2.3-2.5-4.71-4.91-6.54-7.8-1.87-2.97-3.07-6.17-3.34-9.72-.15-2.04-.18-4.06.17-6.07.19-1.11.57-2.2.73-3.31.49-3.25-.18-6.1-2.72-8.44-1.71-1.57-3.51-2.86-5.75-3.49-1.77-.49-3.59-.49-5.38-.26-3.49.45-6.9,1.27-10.21,2.47-3.51,1.28-7.14,2.14-10.76,3.04-3.03.75-5.02,2.68-5.85,5.71-.15.55-.26,1.18.19,1.72.52.63,1.2.54,1.86.41.92-.19,1.8-.52,2.76-.55,1.85-.06,2.63.93,3.24,2.21.74,1.54.68,3.2.6,4.83-.12,2.48-.62,4.89-1.42,7.25-.83,2.46-2.08,4.59-4.43,5.84-1.74.93-3.61.83-5.44.28-2.74-.82-4.5-2.61-5.1-5.44-.34-1.6-.11-3.19.22-4.76.4-1.91.88-3.8,1.26-5.72.55-2.78.02-5.34-1.06-7.87-1.16-2.7-2.62-5.23-4.16-7.71-1.22-1.98-2.27-4.05-3.52-6-1.27-1.97-2.71-3.83-4.67-5.18-2.68-1.85-4.96-1.7-7.37.42-1.32,1.16-2.57,2.39-3.87,3.58-1.6,1.45-3.43,2.57-5.24,3.74-3.4,2.2-6.77,4.44-10.15,6.68-3.12,2.07-6.47,3.79-9.6,5.85-3.06,2.02-5.64,4.5-7.5,7.67-1.15,1.97-1.44,4.15-1.19,6.41.3,2.64.69,5.27.69,7.93,0,2.34-.42,4.6-1.11,6.83-1.18,3.8-2.67,7.48-4.12,11.18-1.16,2.98-2.15,6.02-2.42,9.24-.22,2.66.05,5.29.75,7.86.8,2.92,2.23,5.54,3.85,8.07,1.78,2.77,3.51,5.58,5.33,8.34,1.24,1.88,2.65,3.62,4.61,4.84,2.38,1.49,4.91-.26,4.99-2.77.08-2.41-.69-4.58-1.54-6.76-1-2.54-2.58-4.76-3.93-7.1-1.08-1.87-2.12-3.76-2.69-5.86-.43-1.58-.28-3.14.35-4.62,1.18-2.76,2.84-5.24,4.68-7.59,1.15-1.47,2.34-2.9,3.51-4.35,1.36-1.68,3.12-2.82,5.11-3.57,2.75-1.04,5.23-2.54,7.51-4.36,2.02-1.62,4.19-3.01,6.48-4.22,1.08-.56,2.05-1.33,3.12-1.9,1.6-.86,3.27-1.64,5.1-1.78,1.2-.09,2.4.11,3.52.71,2.7,1.45,5.06,3.35,7.3,5.4,3.68,3.35,7.78,6.09,12.21,8.34,4.65,2.36,9.43,4.43,14.29,6.33,4.63,1.81,9.41,3.18,14.27,4.23,3.74.81,7.34.28,10.82-1.13,1.96-.8,3.89-1.66,5.68-2.85,3.42-2.27,4.52-6.28,3.51-10.02-.61-2.26-1.83-4.21-3.11-6.14-1.01-1.53-2.1-2.99-2.99-4.61-1.35-2.45-2.14-5.04-2.39-7.8-.29-3.17-.25-6.35.14-9.51.15-1.22.43-2.42.55-3.66.24-2.34-.46-4.34-2.16-5.92-2.29-2.12-5.04-3.41-8.06-4.06-1.82-.39-3.68-.26-5.52.05-3.1.53-5.99,1.69-8.83,2.97-2.5,1.13-3.57,3.21-3.73,5.85-.18,3.02-.24,6.05-.76,9.03-.49,2.81-.93,5.64-2.13,8.28-.86,1.88-1.93,3.63-3.6,4.88-1.95,1.45-4.17,1.63-6.47,1.05-2.56-.65-4.48-2.21-6.08-4.27-2.23-2.87-2.95-6.11-2.48-9.66.59-4.4.19-8.72-1.05-12.96-1.19-4.07-2.75-7.99-5.16-11.52-1.06-1.55-2.27-2.92-3.93-3.87-1.88-1.07-3.78-1.13-5.73-.2-1.73.82-3.27,1.91-4.76,3.1-1.74,1.38-3.73,2.39-5.58,3.6-5.14,3.36-10.05,7.05-14.84,10.88-1.95,1.56-3.88,3.14-5.71,4.85-1.75,1.63-3.24,3.46-3.88,5.85-.33,1.22-.29,2.43-.2,3.66.15,2.11.65,4.17.84,6.28.24,2.71-.21,5.29-1.24,7.8-1.85,4.51-3.9,8.95-5.45,13.58-1.27,3.79-1.41,7.67-.69,11.58.53,2.88,1.76,5.51,2.96,8.14,1.96,4.27,4.35,8.3,6.83,12.28.44.7.91,1.37,1.52,1.92.27.24.57.49.9.61.73.26,1.12.02,1.17-.74.04-.68-.16-1.31-.41-1.93-1.09-2.68-2.52-5.2-3.8-7.79-1.14-2.32-2.18-4.68-2.89-7.17-.82-2.88-.62-5.69.68-8.41,1.3-2.72,2.7-5.39,4.43-7.86,1.87-2.67,4.03-5.08,6.54-7.19,3.24-2.71,6.49-5.4,10.08-7.65.79-.49,1.6-.96,2.49-1.23.62-.18,1.29-.23,1.93-.14,1.22.17,2.36,0,3.45-.57,1.69-.87,3.42-1.69,5.18-2.4,1.86-.75,3.8-.62,5.64.02,1.43.49,2.66,1.44,3.94,2.24,2.18,1.38,4.19,3,6.34,4.42,2.24,1.48,4.58,2.8,6.9,4.14,2.34,1.35,4.74,2.61,7.18,3.78,3.05,1.46,6.18,2.72,9.31,4,4.17,1.7,8.4,3.26,12.83,4.13,2.44.48,4.91.71,7.38.15,2.35-.53,4.54-1.39,6.21-3.24,1.29-1.43,1.92-3.15,2.14-5.03.38-3.29-.56-6.31-1.93-9.24-1.28-2.73-1.89-5.61-2.02-8.62-.12-2.84.26-5.62.55-8.42.22-2.06.45-4.13.52-6.2.03-.97,0-1.94-.11-2.9-.21-2.06-1.38-3.51-3.08-4.63-1.86-1.23-3.96-1.83-6.08-2.31-2.49-.56-5.01-.57-7.52.1-4.1,1.1-6.84,3.5-7.74,7.8-.67,3.19-1.42,6.36-2.21,9.52-.79,3.16-1.86,6.24-3.45,9.1-.87,1.58-2,2.99-3.45,4.06-2.04,1.51-4.35,1.5-6.68.83-2.39-.69-4.45-1.97-6.36-3.56-1.97-1.63-3.38-3.61-4.19-6.02-.59-1.76-.48-3.57-.28-5.38.29-2.57.67-5.13.54-7.72-.2-3.87-.75-7.66-2.38-11.25-.88-1.95-1.85-3.82-3.26-5.45-1.07-1.23-2.32-2.19-3.81-2.81-2.18-.91-4.29-.4-6.19.71-2.87,1.67-5.81,3.21-8.64,4.94-3.56,2.17-6.89,4.67-10.01,7.44-2.02,1.8-3.92,3.73-5.65,5.8-1.7,2.04-3.26,4.18-4.22,6.68-.54,1.42-.75,2.91-.89,4.41-.28,3.03-.26,6.1-.84,9.1-.41,2.14-1.24,4.12-2.33,6-2.01,3.45-3.86,6.99-5.03,10.83-.84,2.78-1.3,5.64-1.17,8.55.06,1.32.2,2.66.86,3.87.29.52.53,1.03,1.19,1.09.71.06,1.16-.38,1.44-.96.5-1.02.96-2.07,1.46-3.1,1.51-3.13,3.22-6.15,5.17-9.04,2.13-3.16,4.61-6.02,7.25-8.76,1.78-1.85,3.59-3.68,5.53-5.37,2.1-1.82,4.29-3.52,6.76-4.83.18-.1.36-.2.55-.27,1.56-.59,2.47-.02,2.46,1.65,0,1.58.86,1.84,2.15,1.42,1.12-.37,2.17-.93,3.25-1.43,1.09-.5,2.16-1.07,3.38-1.17,1.75-.13,3.44.1,5.11.67,3.62,1.25,6.97,3.02,10.21,5.04,4.34,2.71,8.97,4.91,13.52,7.25,2.87,1.47,5.7,3.04,8.69,4.27,3.15,1.3,6.34,2.51,9.66,3.3,2.29.55,4.61.8,6.97.29,3.35-.72,5.27-2.84,6.06-6.08.61-2.48.54-4.99.3-7.52-.35-3.71-.38-7.41.43-11.11.73-3.36,1.29-6.76,1.55-10.2.13-1.67.3-3.35.02-5.04-.32-1.93-1.49-3.16-3.19-3.92-2.32-1.03-4.8-1.48-7.31-1.43-3.14.06-5.92,1.02-8.03,3.61-1.8,2.21-2.91,4.75-3.97,7.33-1.35,3.32-2.59,6.68-3.96,9.99-.94,2.27-2.07,4.47-3.37,6.55-.67,1.07-1.46,2.06-2.48,2.83-1.52,1.16-3.25,1.38-5.11,1.18-3.07-.33-5.65-1.79-8.13-3.47-2.06-1.39-3.81-3.11-5.04-5.3-.68-1.22-1-2.52-1.05-3.93-.07-2.01.32-3.96.59-5.93.44-3.27.59-6.55-.04-9.79-.8-4.09-2.34-7.88-5.36-10.89-1.31-1.3-2.86-2.18-4.75-2.44-1.38-.19-2.68.1-3.93.52-2.35.8-4.73,1.53-6.97,2.61-1.93.93-3.72,2.11-5.45,3.37-2.14,1.54-4.1,3.28-5.87,5.24-2.99,3.32-5.12,7.11-6.29,11.45-.9,3.34-1.56,6.74-2.49,10.07-.85,3.05-2.1,5.93-3.91,8.56-2.01,2.93-3.56,6.11-4.74,9.45-.83,2.36-1.25,4.85-1.33,7.37-.04,1.03-.34,2.05-.1,3.11.12.53.31.99.79,1.14.43.14.8-.18,1.1-.52.83-.96,1.43-2.09,2.06-3.18,1.59-2.78,3.34-5.47,5.11-8.13,1.32-1.98,2.55-4.03,3.99-5.94,2.46-3.27,5.07-6.4,8.23-9.01,2.12-1.75,4.49-3.1,7.24-3.58,1.62-.29,3.08-.02,3.94,1.64.12.23.34.4.47.63.68,1.14,1.73,1.13,2.62.81,1.14-.4,2.21-1,3.38-1.3.41-.1.82-.15,1.24-.14,1.15.01,2.31,0,3.45.21"/>
      <path class="cls-1" d="M89.86,68.04c1.36.42,2.33,1.35,3.1,2.49,2.18,3.2,4.74,6.02,7.78,8.43,1.73,1.37,3.29,2.96,4.78,4.6,2.46,2.71,5.16,5.11,8.56,6.62,1.89.84,3.86,1.45,5.87,1.92,2.77.65,5.59,1.1,8.42,1.45,2.27.28,4.56.44,6.83.71,1.49.17,2.97.41,4.41.82,3.73,1.08,7.24.41,10.63-1.32,2.57-1.31,5.29-1.66,8.14-1.47,2.34.15,4.68.39,7.04.17,2.43-.23,4.59-1.09,6.47-2.58,1.72-1.36,3.21-2.94,4.29-4.88,2-3.59,2.03-7.11-.2-10.63-.8-1.26-1.55-2.54-2.56-3.65-1.18-1.28-2.66-2.13-4.15-2.95-2.33-1.28-4.16-3.07-5.66-5.25-1.16-1.68-2.55-3.17-4.05-4.57-1.57-1.45-3.04-2.96-3.76-5.09-1.03-3.06-1.18-6.1-.18-9.18.45-1.38,1.03-2.72,1.38-4.14.71-2.88-.05-5.52-1.41-7.99-1.23-2.24-2.67-4.36-4.61-6.07-1.25-1.11-2.56-2.1-4.27-2.43-1.24-.24-2.45-.22-3.58.3-1.54.71-3.04,1.5-4.56,2.26-3.38,1.69-6.95,2.86-10.56,3.92-1.98.58-3.96,1.23-6,1.59-2.74.48-5.5.77-8.28.22-2.83-.56-5.26-1.88-7.38-3.8-2.68-2.44-5.14-5.11-7.73-7.65-1.53-1.5-3.16-2.85-5.1-3.8-1.03-.5-2.11-.84-3.24-.88-2.45-.08-4.21.99-5.33,3.22-.77,1.54-1.54,3.08-2.54,4.49-1.36,1.94-3.16,3.4-5.11,4.68-4.13,2.71-8.72,4.36-13.45,5.67-1.75.49-3.51.96-5.24,1.53-2.18.72-3.94,2.07-5.46,3.78-3.11,3.49-6.17,7.01-9.43,10.37-1.73,1.78-3.19,3.78-3.81,6.26-.31,1.23-.61,2.47-.82,3.72-.6,3.55-2.11,6.64-4.42,9.39-1.44,1.71-2.84,3.45-4.01,5.37-1.84,3.01-3.06,6.21-3.03,9.79.01,1.37.27,2.71.7,4,.88,2.63,1.81,5.25,2.76,7.86.72,1.97.94,4.01,1.09,6.07.19,2.69.06,5.38.34,8.07.33,3.15,1.63,5.76,3.93,7.94,2.2,2.08,4.88,3.25,7.6,4.41,3.55,1.52,7.11,3.03,10.77,4.25,2.73.91,5.56,1.54,8.48,1.4,3.42-.17,6.37-1.51,8.9-3.79,2.27-2.04,3.71-4.6,4.55-7.51.9-3.12,1.77-6.26,2.7-9.38.96-3.2,2.41-6.21,3.81-9.23,1.18-2.56,1.88-5.19,1.77-8.01-.07-1.84-.5-3.61-.96-5.38-.6-2.29-1.3-4.56-1.64-6.9-.25-1.77-.3-3.57.59-5.24.63-1.18,1.52-2.16,2.65-2.78.75-.42,1.57-.97,2.46-.97,1.06,0,2.14.19,2.97,1,.53.51.92,1.1,1.32,1.72,1.87,2.92,4.12,5.48,6.95,7.54,1.9,1.38,3.22,3.26,4.36,5.29,1.5,2.66,2.9,5.39,4.82,7.8,1.62,2.03,3.38,3.87,5.92,4.78,1.36.49,2.73.71,4.15.81,3.25.23,6.45-.16,9.66-.66,1.93-.3,3.84-.69,5.79-.87,1.58-.15,3.09-.04,4.48.78.1.06.19.05.28.06"/>
      <path class="cls-1" d="M89.65,67.83c.61-.39,1.1.08,1.58.29,1.4.61,2.37,1.73,3.32,2.88,2.38,2.87,4.8,5.72,7.79,8.01,3.37,2.58,6.78,5.08,10.48,7.18,2.94,1.67,6.04,2.93,9.25,3.91,3.36,1.03,6.77,1.84,10.21,2.57,2.68.57,5.38.98,8.07,1.45,2.55.44,5.05.36,7.52-.43,1.33-.43,2.61-.97,3.86-1.59,2.32-1.14,4.75-1.97,7.32-2.25,1.78-.2,3.57-.25,5.31-.72,2.96-.79,5.49-2.25,6.88-5.11.92-1.89,1.01-3.94.63-5.99-.51-2.75-1.83-5.1-3.78-7.11-1.69-1.74-3.63-3.21-5.33-4.95-2.62-2.69-5.25-5.37-7.16-8.63-1.43-2.44-2.22-5.09-2.06-7.93.15-2.73.76-5.39,1.58-8,.66-2.1.75-4.13-.49-6.07-.6-.93-1.21-1.85-1.93-2.69-1.46-1.72-3.07-3.25-5.11-4.27-2.16-1.07-4.41-1.23-6.69-.48-2.7.89-5.36,1.91-8.08,2.73-4.79,1.45-9.57,2.9-14.55,3.63-1.9.28-3.72,1.01-5.52,1.69-2.27.86-4.22.39-5.94-1.36-2.26-2.29-4.16-4.87-6.13-7.39-1.61-2.06-3.2-4.13-5.1-5.93-1.13-1.07-2.35-2.03-3.8-2.6-1.93-.77-3.82-.71-5.44.95-.91.93-1.67,1.97-2.42,3.03-1.77,2.49-4.08,4.41-6.61,6.08-3.59,2.37-7.2,4.71-11.11,6.55-1.98.93-4,1.8-6.07,2.47-2.72.88-4.96,2.43-6.9,4.5-2.36,2.53-4.59,5.17-6.48,8.07-.81,1.23-1.56,2.49-2.15,3.85-.41.94-.52,1.92-.6,2.9-.17,2.19-.21,4.38-.55,6.55-.38,2.48-1.02,4.9-1.72,7.31-1.09,3.73-2.56,7.33-3.75,11.03-1.01,3.11-1.72,6.24-1.87,9.52-.19,4.11.26,8.12,1.62,12,1.1,3.13,2.71,5.99,4.73,8.64,1.55,2.03,3.08,4.08,4.86,5.91,2.05,2.11,4.43,3.78,7.09,5.05.86.41,1.72.79,2.61,1.13,1.56.6,3.09.44,4.55-.12,1.61-.62,2.81-1.79,3.54-3.42,1.01-2.27,1.39-4.66,1.58-7.11.36-4.48.32-8.99.96-13.45.63-4.48,2.13-8.66,4.28-12.62,2.13-3.92,4.37-7.79,6.36-11.79.5-1.01.96-2.05,1.64-2.97,1.3-1.76,3.11-2.9,4.91-4.06.22-.14.46-.35.83-.1-.57.43-1.12.84-1.66,1.27-1.17.92-2.31,1.88-2.9,3.31-.56,1.35-.66,2.78-.76,4.21-.23,3.17-.47,6.35-1.27,9.44-.51,1.97-1.32,3.85-2.11,5.73-1.82,4.28-3.18,8.71-4.21,13.24-.76,3.33-1.26,6.72-1.95,10.07-.53,2.57-1.53,4.97-3.38,6.89-2.03,2.09-4.56,2.83-7.44,2.36-.49-.08-1-.07-1.45-.34"/>
      <path class="cls-1" d="M152.02,97.83c.06-.26.27-.31.48-.43,2.25-1.24,4.64-1.43,7.11-1.02,2.26.38,4.46,1.1,6.76,1.32,2.09.21,3.96-.27,5.58-1.54,2.7-2.11,4.74-4.82,6.63-7.65,1.25-1.88,2.4-3.82,3.03-6,.39-1.35.54-2.75.77-4.14.3-1.84.62-3.68,1.86-5.17.47-.56,1.01-1.06,1.51-1.59.22-.24.45-.49.62-.76.56-.9.24-1.6-.82-1.86-1.03-.25-1.85.27-2.69.7-.74.38-1.42.88-2.21,1.16-1.43.5-2.67,0-3.86-.75-.9-.58-1.55-1.41-2.2-2.22-1-1.24-2.34-1.94-3.81-2.31-2.43-.61-4.15-1.98-5.1-4.3-.94-2.29-2.44-4.11-4.48-5.53-1.26-.88-2.42-1.88-3.2-3.28-1.01-1.8-1.37-3.72-1.28-5.74.11-2.54,1.1-4.86,1.86-7.24.55-1.73.83-3.5.61-5.31-.15-1.21-.59-2.36-1.12-3.44-1.08-2.22-2.09-4.48-3.55-6.5-1.34-1.84-2.92-3.36-4.91-4.48-2.1-1.18-4.24-1.14-6.34-.12-2.29,1.12-4.5,2.4-6.77,3.56-2.04,1.05-4.15,1.97-6.27,2.84-2.44,1-4.9,1.96-7.46,2.61-2.33.59-4.67.6-6.96-.2-1.95-.69-3.62-1.85-5.25-3.09-3.73-2.84-7.16-6.04-10.69-9.11-1.62-1.41-3.34-2.69-5.38-3.45-2.62-.97-5.26-.95-7.86.08-1.64.65-2.59,1.94-3.05,3.64-.38,1.4-.59,2.84-1.1,4.21-.88,2.38-2.54,4.11-4.69,5.38-3.16,1.85-6.65,2.75-10.21,3.45-2.38.47-4.78.77-7.18,1.1-3.27.46-5.75,2.21-7.87,4.62-2.22,2.53-4.39,5.12-6.83,7.45-1.21,1.16-2.5,2.23-3.71,3.39-1.81,1.73-3.56,3.54-4.62,5.86-.64,1.41-.95,2.95-1.46,4.41-.71,2.05-1.49,4.05-2.82,5.8-.77,1.01-1.68,1.86-2.63,2.69-2.53,2.22-4.88,4.61-6.62,7.52-1.88,3.14-3.32,6.46-3.64,10.14-.27,3.09.37,6.04,1.77,8.83.99,1.97,2.17,3.84,3.17,5.79,1.78,3.46,2.74,7.18,3.26,11.03.24,1.81.47,3.62,1.02,5.38,1.39,4.43,4.27,7.47,8.49,9.31,5.07,2.2,10.31,3.93,15.6,5.51,2.68.8,5.42,1.34,8.21,1.59,4.4.4,8.53-.51,12.49-2.4,4.31-2.07,7.16-5.42,8.9-9.8,1.17-2.96,2.14-5.98,3.05-9.03.64-2.16,1.43-4.27,2.12-6.42.78-2.45,1.62-4.89,2.02-7.45.54-3.46-.18-6.69-1.51-9.87-1.17-2.82-2.73-5.45-3.89-8.27-.46-1.13-.9-2.25-.84-3.52.07-1.23.68-2.17,1.38-3.11.23-.3.6-.49.7-.89"/>
      <path class="cls-1" d="M73.16,136.59c-.63-.83-1.61-.76-2.49-.88-2.77-.4-5.56.02-8.35-.07-2.49-.08-4.84-.65-7.11-1.66-2.63-1.17-5.27-2.34-7.93-3.45-3.9-1.62-7.82-3.16-11.72-4.79-.69-.29-1.39-.34-2.08-.37-.72-.03-1.16-.37-1.44-.93-.42-.85-1.03-1.25-2.01-1.26-.87-.01-1.36-.68-1.73-1.42-.32-.65-.78-1.18-1.44-1.52-.77-.4-.99-1.19-1.16-1.93-.24-1.06-.37-2.15-.44-3.24-.08-1.33-.51-2.58-1.03-3.79-1.09-2.51-2.23-5-3.71-7.32-1.26-1.97-2.86-3.61-4.63-5.1-.42-.36-.85-.39-1.24,0-.43.45-1.01.6-1.51.44-.59-.19-.67-.86-.69-1.41-.07-1.54.03-3.09.21-4.62.33-2.89,1-5.7,1.82-8.49.32-1.09.26-2.29.38-3.44.06-.55.13-1.1.21-1.66.01-.09.01-.23.07-.27.96-.73.98-1.91,1.27-2.91.72-2.46,1.61-4.83,2.8-7.09,1.4-2.65,3.06-5.14,5.51-6.97,1.05-.78,2.26-1.32,3.37-2.02,2.06-1.3,3.49-3.19,4.62-5.31,1.25-2.34,2.21-4.82,3.58-7.11,1.05-1.74,2.29-3.27,3.8-4.62,1.97-1.76,4.1-3.34,5.87-5.3,2.16-2.39,4.41-4.7,6.63-7.03,1.95-2.04,4.39-3,7.17-3.33,4.05-.49,8.13-.9,12.08-2.05,1.63-.48,3.25-.95,4.84-1.56,2.49-.95,3.7-2.69,4.01-5.27.18-1.48.2-2.99.72-4.42.25-.69.61-1.39,1.04-1.87.45-.5,1.19-.89,1.87-1.23,2.06-1.02,4.16-1.92,6.34-2.63,1.01-.33,2-.35,2.97-.04,2.57.82,4.99,1.93,7.27,3.4.78.5,1.43,1.09,2.13,1.67,3.67,3.06,7.14,6.34,10.74,9.47,1.21,1.05,2.52,1.97,4.01,2.53,1.79.67,3.56.38,5.31-.32,3.3-1.32,6.48-2.91,9.72-4.37,3.4-1.53,6.77-3.12,10.21-4.56,2.4-1.01,4.67-.92,7.05-.05,3.51,1.27,5.89,3.72,7.51,6.98,1.48,2.99,2.97,5.97,4.17,9.09.69,1.8.81,3.53.28,5.4-.44,1.57-.76,3.19-1.01,4.82-.28,1.86-.64,3.71-.52,5.59.16,2.44,1.29,3.71,3.64,3.94.77.07,1.42.46,1.93,1.04.74.85,1.21,1.84,1.47,2.96.37,1.6.79,3.18,1.24,4.76.32,1.13,1.17,1.58,2.27,1.32,2.04-.48,3.76-.05,5.04,1.72.95,1.32,2.31,2.12,3.8,2.68,1.41.54,2.74-.03,3.88-1.36.96-1.13.67-2.51-.15-3.53-.81-1.01-2.01-1.41-3.12-1.91-.71-.32-1.31-.68-1.65-1.4-.29-.62-.76-1.12-.98-1.79-.29-.87.06-1.42.98-1.38.47.02.86.2,1.25.48.66.47,1.3,1.01,2.13,1.19.23.05.48.12.69.05,1.36-.44,2.4.19,3.3,1.06,1.04.99,1.96,2.09,3.05,3.02.95.81,1.4.83,2.34.07.32-.26.6-.56.96-.76.8-.46,1.24-.49,1.93.08,1.1.9,2.18,1.82,3.24,2.76.65.57.64,1.18.07,1.86-.76.9-1.69,1.63-2.57,2.4-2.32,2.04-4.61,4.13-6.88,6.23-1.54,1.43-2.26,3.28-2.63,5.3-.28,1.51-.33,3.05-.67,4.56-.45,2.02-1.28,3.87-2.3,5.65-1.93,3.36-4.37,6.38-6.62,9.52-.53.73-1.03,1.49-1.42,2.29-.64,1.29.1,2.21,1.29,2.07.43-.05.87-.03,1.31,0,.68.05.99.32,1.03.96.09,1.68-.13,3.27-1.15,4.7-.56.78-1.25,1.16-2.22,1.17-2.22.03-4.23-.68-6.14-1.73-.74-.41-1.14-1.13-1.58-1.8-.28-.43-.51-.9-.69-1.38-.63-1.64-1.86-2.47-3.52-2.91-2.81-.74-5.52-1.8-8.21-2.88-1.86-.75-3.76-1.32-5.8-1.09-.72.08-1.43.25-2.14.41-1.38.3-2.72.15-4.07-.2-1.1-.28-2.16-.67-3.31-.78-1.32-.13-2.51.24-3.73.63-1.8.58-3.46,1.53-5.31,2.02-1.32.35-2.64.69-4,.82-1.5.15-2.99.39-4.49.53-1.84.17-3.68.37-5.52.39-1.12,0-2.29-.13-3.25-.92-.26-.22-.67-.37-1.02-.08-.38.33-.2.68,0,1.03.26.48.69.89.75,1.45.06.51.05,1.01-.53,1.32-.57.31-1,.05-1.31-.3-1.46-1.66-2.95-3.27-3.65-5.49-.42-1.36-1.31-2.58-1.95-3.88-1.73-3.5-3.23-7.11-4.64-10.75-.26-.67-.56-1.33-.82-2-.44-1.14-1.3-1.87-2.41-2.35-3.24-1.43-5.7-3.71-7.38-6.82-.29-.53-.56-1.09-.91-1.58-.35-.5-.87-.51-1.3-.07-1.21,1.24-1.35,2.3-.54,4.06,1.34,2.93,2.8,5.8,4.05,8.77,1.07,2.54,2.09,5.1,2.67,7.8.32,1.48.41,3,.19,4.55-.6,4.19-1.7,8.25-2.72,12.34-.88,3.54-1.77,7.09-2.69,10.62-.81,3.1-2.23,5.88-4.39,8.3-.81.91-1.77,1.64-2.65,2.45-.49.45-1.16.43-1.79.42"/>
      <path class="cls-1" d="M97.1,63.55c-.05-2.39.25-4.75.63-7.1.38-2.38.73-4.76.61-7.17-.2-4.17-1.56-7.89-4.27-11.11-1.01-1.2-2.17-2.18-3.52-2.96-1.82-1.05-3.75-1.26-5.8-.97-3.16.45-6.23,1.2-9.03,2.78-3.4,1.91-6.61,4.07-8.7,7.51-1.27,2.1-2.12,4.32-2.08,6.83.02,1.52.11,3.04.22,4.55.19,2.63-.7,4.91-2.2,7.04-2.51,3.58-5.24,7-7.8,10.55-.95,1.31-1.91,2.61-2.47,4.14-.37,1.01-.57,2.1.26,3.03.72.8,1.38.84,2.2.14.49-.42.85-.96,1.18-1.51,1.99-3.35,3.84-6.78,6.13-9.94,1.46-2.02,2.95-4.01,4.91-5.57,1.9-1.51,4.11-2.27,6.55-2.43,2.9-.18,5.6.51,8.14,1.87,1.57.84,3.16,1.31,4.97.98,1.85-.34,3.62.18,5.38.73.92.29,1.84.58,2.83.64,1.34.08,2.03-.46,1.93-1.95"/>
      <path class="cls-1" d="M131.53,80.04c1.14-.14,2.28-.22,3.38-.61,1.94-.7,3.32-2.1,4.39-3.75,1.83-2.81,3.7-5.61,5.15-8.67.99-2.09,1.63-4.28,2.17-6.5.71-2.92,1.5-5.82,1.82-8.82.13-1.22.17-2.42-.04-3.66-.28-1.67-1.98-2.87-3.61-2.97-1.87-.11-3.5.58-5.03,1.53-3.19,1.96-5.83,4.57-8.35,7.3-2.79,3.02-5.03,6.43-6.74,10.15-1.26,2.74-2.59,5.45-3.78,8.21-.98,2.29-.61,3.56,1.08,4.93.67.54,1.45.95,2.26,1.26,2.22.85,4.48,1.57,6.9,1.52.11,0,.23.04.34.07"/>
      <path class="cls-1" d="M89.72,67.97c-.69-.77-1.55-.36-2.26-.16-.64.18-1.18.41-1.88.19-.56-.18-1.11.25-1.57.54-3.01,1.86-5.64,4.13-7.82,6.94-1.56,2.01-3.28,3.9-4.88,5.88-2.72,3.36-5.47,6.71-7.52,10.55-1.32,2.48-2.09,5.1-2.15,7.93-.05,2.57.41,5.07.82,7.59.42,2.54.92,5.08,1.09,7.65.11,1.66.1,3.32-.66,4.9-1.19,2.47-3.18,2.9-5.39,2.27-.03,0-.05-.09-.07-.13"/>
      <path class="cls-1" d="M111.38,63.9c3.26-.26,5.07-2.24,5.91-5.18.59-2.06.22-4.06-.87-5.93-1.04-1.78-2.39-3.25-4.28-4.13-1.43-.67-2.33-.03-3.04.74-.67.73-1.04,1.61-1.36,2.5-.58,1.62-1.21,3.24-1.45,4.96-.17,1.19-.22,2.38-.02,3.59.29,1.82,1.71,2.92,3.46,3.24.52.1,1.06.14,1.59.21"/>
      <path class="cls-1" d="M89.31,67.9c-.25.24-.71-.17-.9.28"/>
      <path class="cls-1" d="M141.05,61.07c-2.03.33-3.08,2.79-2.5,4.28.35.89,1.25,1.46,2.3.97,1.29-.61,2.28-2.38,2.08-3.74-.17-1.12-.76-1.63-1.8-1.52"/>
      <path class="cls-1" d="M110.62,53c-2.23.88-3.24,2.63-3.6,4.9-.11.72-.2,1.42-.06,2.14.33,1.61,1.25,2.31,2.89,2.35,3.54.09,5.63-3.46,4.9-6.21-.39-1.46-1.2-2.52-2.68-3.05-.48-.17-.93-.05-1.39-.12"/>
      <path class="cls-1" d="M140.77,56.93c-3.38.42-5.38,3.5-5.87,6.28-.17,1-.14,1.97.12,2.97.57,2.22,3.16,3.39,5.46,1.97,2.67-1.64,3.94-4.18,4.01-7.29.05-2.12-1.38-3.76-2.89-3.88-.25-.02-.51-.02-.76-.05"/>
      <path class="cls-1" d="M110.28,55.83c-1.88.35-3.04,2.23-2.4,4,.38,1.06,1.89,1.45,2.95.62.81-.64,1.21-1.53,1.31-2.54.11-1.1-.5-1.78-1.79-2.07"/>
      <path class="cls-1" d="M144.57,46.79c-1.93.31-3.39,1.53-4.89,2.63-2.24,1.64-4.38,3.41-6.43,5.29-3.04,2.79-5.63,5.91-7.51,9.6-.77,1.51-1.11,3.17-1.66,4.76-.31.9-.73,1.77-.95,2.69-.51,2.16.05,3.46,2.27,4.31,3.65,1.41,6.98.53,9.99-1.83.82-.65,1.55-1.4,2.27-2.14,1.21-1.25,2.6-2.28,3.93-3.39,1.99-1.67,3.15-3.83,3.68-6.4.75-3.61,1.81-7.16,2.26-10.83.1-.83.15-1.66-.06-2.48-.38-1.47-1.28-2.19-2.83-2.21"/>
      <path class="cls-1" d="M81.79,44.31c-1.04.12-2.01.46-2.82,1.11-1.38,1.11-1.76,2.66-1.17,4.75.63,2.2,2.02,3.92,3.73,5.37,1.84,1.56,3.94,2.71,6.27,3.38,1.28.37,2.63.41,3.85-.15,1.65-.76,2.6-2.36,2.34-4.66-.36-3.17-2.1-5.57-4.6-7.45-1.64-1.23-3.45-2.05-5.52-2.29-.67-.08-1.34-.02-2-.06"/>
      <path class="cls-1" d="M141.94,43.35c-1.17.24-2.34.5-3.45.96-1.53.62-2.88,1.51-4.06,2.64-3.12,2.98-5.34,6.6-7.39,10.34-1.28,2.34-2.47,4.72-3.51,7.17-1.37,3.22-3.2,6.17-5.18,9.03-.31.45-.59.9-.69,1.45-.2,1.03.16,1.81.96,2.49,1.31,1.13,2.83,1.88,4.36,2.59,2.33,1.08,4.74,1.99,7.24,2.55,2.45.55,4.96.78,7.44.21,2.37-.54,4.07-1.95,5.12-4.18,1.11-2.36,1.56-4.9,2.18-7.39,1.19-4.7,2.31-9.42,3.46-14.14.62-2.54,1.03-5.11,1.02-7.72,0-1.49-.26-2.94-1.29-4.14-.85-1-1.95-1.46-3.18-1.73-.99-.22-1.98-.09-2.97-.13"/>
      <path class="cls-1" d="M81.99,40.93c-1.47.23-2.91.49-4.29,1.15-3.54,1.71-4.8,5.53-3.51,9.05.89,2.42,2.53,4.29,4.5,5.84,2.43,1.93,5.15,3.38,8.13,4.28,1.56.47,3.16.74,4.83.59,1.56-.14,2.54-.98,3.08-2.31.77-1.91,1.21-3.92,1.25-5.99.06-2.59-.84-4.92-2.36-6.95-1.54-2.06-3.46-3.73-5.91-4.71-1.82-.73-3.71-1.01-5.66-.96"/>
      <path class="cls-1" d="M82.75,37.28c-2.93.4-5.64,1.39-8.14,2.97-2.41,1.53-4.37,3.49-5.23,6.28-1.09,3.53-.44,6.72,2.18,9.45,1.53,1.59,3.43,2.54,5.46,3.31,2,.75,3.99,1.55,6.01,2.26,2.31.81,4.69,1.39,7.1,1.8.8.14,1.6.29,2.41.37,1.56.15,2.42-.31,2.97-1.74.96-2.51,1.26-5.15,1.59-7.79.23-1.83.13-3.63-.2-5.45-.46-2.58-1.69-4.78-3.34-6.75-1.55-1.85-3.45-3.22-5.78-4.03-1.63-.57-3.28-.69-4.98-.67"/>
    </g>
  </g>
</svg>